<?xml version="1.0" encoding="UTF-8" standalone="no"?>
<svg
   xmlns:dc="http://purl.org/dc/elements/1.1/"
   xmlns:cc="http://creativecommons.org/ns#"
   xmlns:rdf="http://www.w3.org/1999/02/22-rdf-syntax-ns#"
   xmlns:svg="http://www.w3.org/2000/svg"
   xmlns="http://www.w3.org/2000/svg"
   xmlns:sodipodi="http://sodipodi.sourceforge.net/DTD/sodipodi-0.dtd"
   xmlns:inkscape="http://www.inkscape.org/namespaces/inkscape"
   width="162.402mm"
   height="133.827mm"
   viewBox="0.000 0.000 162.402 133.827"
   version="1.1"
   id="svg86"
   sodipodi:docname="743ff3cb9cfe0b05a2983ee65f7234e8eb82f5f9_switch.svg"
   inkscape:version="1.0.2 (e86c870879, 2021-01-15, custom)">
  <metadata
     id="metadata92">
    <rdf:RDF>
      <cc:Work
         rdf:about="">
        <dc:format>image/svg+xml</dc:format>
        <dc:type
           rdf:resource="http://purl.org/dc/dcmitype/StillImage" />
      </cc:Work>
    </rdf:RDF>
  </metadata>
  <defs
     id="defs90" />
  <sodipodi:namedview
     pagecolor="#ffffff"
     bordercolor="#666666"
     borderopacity="1"
     objecttolerance="10"
     gridtolerance="10"
     guidetolerance="10"
     inkscape:pageopacity="0"
     inkscape:pageshadow="2"
     inkscape:window-width="1920"
     inkscape:window-height="1001"
     id="namedview88"
     showgrid="false"
     inkscape:zoom="1.7670661"
     inkscape:cx="306.9014"
     inkscape:cy="118.91613"
     inkscape:window-x="-9"
     inkscape:window-y="-9"
     inkscape:window-maximized="1"
     inkscape:current-layer="svg86" />
  <polygon
     points="93.251,112.301 93.251,117.001 91.726,117.001 91.726,113.771 84.976,113.771 84.976,117.001 84.151,117.001 84.151,119.801 84.976,119.801 84.976,126.071 86.701,126.071 86.701,127.271 90.001,127.271 90.001,126.071 91.726,126.071 91.726,121.601 93.251,121.601 93.251,126.301 107.251,126.301 107.251,121.601 108.776,121.601 108.776,126.071 110.501,126.071 110.501,127.271 113.801,127.271 113.801,126.071 115.526,126.071 115.526,119.801 116.351,119.801 116.351,117.001 115.526,117.001 115.526,113.771 108.776,113.771 108.776,117.001 107.251,117.001 107.251,112.301"
     style="fill:none;stroke-width:0.050000mm;stroke:black"
     id="polygon4" />
  <polygon
     points="121.825,112.301 121.825,126.301 135.826,126.301 135.826,112.301"
     style="fill:none;stroke-width:0.050000mm;stroke:black"
     id="polygon6" />
  <polygon
     points="64.676,112.301 64.676,126.301 78.676,126.301 78.676,112.301"
     style="fill:none;stroke-width:0.050000mm;stroke:black"
     id="polygon8" />
  <polygon
     points="45.626,112.301 45.626,126.301 59.626,126.301 59.626,112.301"
     style="fill:none;stroke-width:0.050000mm;stroke:black"
     id="polygon10" />
  <polygon
     points="26.576,112.301 26.576,126.301 40.576,126.301 40.576,112.301"
     style="fill:none;stroke-width:0.050000mm;stroke:black"
     id="polygon12" />
  <polygon
     points="7.526,112.301 7.526,126.301 21.526,126.301 21.526,112.301"
     style="fill:none;stroke-width:0.050000mm;stroke:black"
     id="polygon14" />
  <polygon
     points="147.376,93.676 147.376,94.501 141.106,94.501 141.106,96.226 139.906,96.226 139.906,99.526 141.106,99.526 141.106,101.251 145.576,101.251 145.576,102.776 140.876,102.776 140.876,116.776 145.576,116.776 145.576,118.301 141.106,118.301 141.106,120.026 139.906,120.026 139.906,123.326 141.106,123.326 141.106,125.051 147.376,125.051 147.376,125.876 150.176,125.876 150.176,125.051 153.406,125.051 153.406,118.301 150.176,118.301 150.176,116.776 154.876,116.776 154.876,102.776 150.176,102.776 150.176,101.251 153.406,101.251 153.406,94.501 150.176,94.501 150.176,93.676"
     style="fill:none;stroke-width:0.050000mm;stroke:black"
     id="polygon16" />
  <polygon
     points="17.051,93.251 17.051,97.951 15.526,97.951 15.526,94.721 8.776,94.721 8.776,97.951 7.950,97.951 7.950,100.751 8.776,100.751 8.776,107.021 10.501,107.021 10.501,108.221 13.801,108.221 13.801,107.021 15.526,107.021 15.526,102.551 17.051,102.551 17.051,107.251 31.051,107.251 31.051,102.551 32.576,102.551 32.576,107.021 34.301,107.021 34.301,108.221 37.601,108.221 37.601,107.021 39.326,107.021 39.326,100.751 40.151,100.751 40.151,97.951 39.326,97.951 39.326,94.721 32.576,94.721 32.576,97.951 31.051,97.951 31.051,93.251"
     style="fill:none;stroke-width:0.050000mm;stroke:black"
     id="polygon18" />
  <polygon
     points="121.825,93.251 121.825,107.251 135.826,107.251 135.826,93.251"
     style="fill:none;stroke-width:0.050000mm;stroke:black"
     id="polygon20" />
  <polygon
     points="102.775,93.251 102.775,107.251 116.775,107.251 116.775,93.251"
     style="fill:none;stroke-width:0.050000mm;stroke:black"
     id="polygon22" />
  <polygon
     points="83.726,93.251 83.726,107.251 97.726,107.251 97.726,93.251"
     style="fill:none;stroke-width:0.050000mm;stroke:black"
     id="polygon24" />
  <polygon
     points="64.676,93.251 64.676,107.251 78.676,107.251 78.676,93.251"
     style="fill:none;stroke-width:0.050000mm;stroke:black"
     id="polygon26" />
  <polygon
     points="45.626,93.251 45.626,107.251 59.626,107.251 59.626,93.251"
     style="fill:none;stroke-width:0.050000mm;stroke:black"
     id="polygon28" />
  <polygon
     points="121.825,74.201 121.825,88.201 135.826,88.201 135.826,74.201"
     style="fill:none;stroke-width:0.050000mm;stroke:black"
     id="polygon30" />
  <polygon
     points="102.775,74.201 102.775,88.201 116.775,88.201 116.775,74.201"
     style="fill:none;stroke-width:0.050000mm;stroke:black"
     id="polygon32" />
  <polygon
     points="83.726,74.201 83.726,88.201 97.726,88.201 97.726,74.201"
     style="fill:none;stroke-width:0.050000mm;stroke:black"
     id="polygon34" />
  <polygon
     points="64.676,74.201 64.676,88.201 78.676,88.201 78.676,74.201"
     style="fill:none;stroke-width:0.050000mm;stroke:black"
     id="polygon36" />
  <polygon
     points="45.626,74.201 45.626,88.201 59.626,88.201 59.626,74.201"
     style="fill:none;stroke-width:0.050000mm;stroke:black"
     id="polygon38" />
  <polygon
     points="17.050,74.201 17.050,88.201 31.050,88.201 31.050,74.201"
     style="fill:none;stroke-width:0.050000mm;stroke:black"
     id="polygon40" />
  <polygon
     points="147.376,55.576 147.376,56.401 141.106,56.401 141.106,58.126 139.906,58.126 139.906,61.426 141.106,61.426 141.106,63.151 145.576,63.151 145.576,64.676 140.876,64.676 140.876,78.676 145.576,78.676 145.576,80.201 141.106,80.201 141.106,81.926 139.906,81.926 139.906,85.226 141.106,85.226 141.106,86.951 147.376,86.951 147.376,87.776 150.176,87.776 150.176,86.951 153.406,86.951 153.406,80.201 150.176,80.201 150.176,78.676 154.876,78.676 154.876,64.676 150.176,64.676 150.176,63.151 153.406,63.151 153.406,56.401 150.176,56.401 150.176,55.576"
     style="fill:none;stroke-width:0.050000mm;stroke:black"
     id="polygon42" />
  <polygon
     points="17.051,55.151 17.051,59.851 15.526,59.851 15.526,56.621 8.776,56.621 8.776,59.851 7.950,59.851 7.950,62.651 8.776,62.651 8.776,68.921 10.501,68.921 10.501,70.121 13.801,70.121 13.801,68.921 15.526,68.921 15.526,64.451 17.051,64.451 17.051,69.151 31.051,69.151 31.051,64.451 32.576,64.451 32.576,68.921 34.301,68.921 34.301,70.121 37.601,70.121 37.601,68.921 39.326,68.921 39.326,62.651 40.151,62.651 40.151,59.851 39.326,59.851 39.326,56.621 32.576,56.621 32.576,59.851 31.051,59.851 31.051,55.151"
     style="fill:none;stroke-width:0.050000mm;stroke:black"
     id="polygon44" />
  <polygon
     points="121.825,55.151 121.825,69.151 135.826,69.151 135.826,55.151"
     style="fill:none;stroke-width:0.050000mm;stroke:black"
     id="polygon46" />
  <polygon
     points="102.775,55.151 102.775,69.151 116.775,69.151 116.775,55.151"
     style="fill:none;stroke-width:0.050000mm;stroke:black"
     id="polygon48" />
  <polygon
     points="83.726,55.151 83.726,69.151 97.726,69.151 97.726,55.151"
     style="fill:none;stroke-width:0.050000mm;stroke:black"
     id="polygon50" />
  <polygon
     points="64.676,55.151 64.676,69.151 78.676,69.151 78.676,55.151"
     style="fill:none;stroke-width:0.050000mm;stroke:black"
     id="polygon52" />
  <polygon
     points="45.626,55.151 45.626,69.151 59.626,69.151 59.626,55.151"
     style="fill:none;stroke-width:0.050000mm;stroke:black"
     id="polygon54" />
  <polygon
     points="140.876,36.101 140.876,50.101 154.876,50.101 154.876,36.101"
     style="fill:none;stroke-width:0.050000mm;stroke:black"
     id="polygon56" />
  <polygon
     points="121.825,36.101 121.825,50.101 135.826,50.101 135.826,36.101"
     style="fill:none;stroke-width:0.050000mm;stroke:black"
     id="polygon58" />
  <polygon
     points="102.775,36.101 102.775,50.101 116.775,50.101 116.775,36.101"
     style="fill:none;stroke-width:0.050000mm;stroke:black"
     id="polygon60" />
  <polygon
     points="83.726,36.101 83.726,50.101 97.726,50.101 97.726,36.101"
     style="fill:none;stroke-width:0.050000mm;stroke:black"
     id="polygon62" />
  <polygon
     points="64.676,36.101 64.676,50.101 78.676,50.101 78.676,36.101"
     style="fill:none;stroke-width:0.050000mm;stroke:black"
     id="polygon64" />
  <polygon
     points="45.626,36.101 45.626,50.101 59.626,50.101 59.626,36.101"
     style="fill:none;stroke-width:0.050000mm;stroke:black"
     id="polygon66" />
  <polygon
     points="26.576,36.101 26.576,50.101 40.576,50.101 40.576,36.101"
     style="fill:none;stroke-width:0.050000mm;stroke:black"
     id="polygon68" />
  <polygon
     points="7.526,36.101 7.526,50.101 21.526,50.101 21.526,36.101"
     style="fill:none;stroke-width:0.050000mm;stroke:black"
     id="polygon70" />
  <polygon
     points="140.876,7.526 140.876,21.526 154.876,21.526 154.876,7.526"
     style="fill:none;stroke-width:0.050000mm;stroke:black"
     id="polygon72" />
  <polygon
     points="121.825,7.526 121.825,21.526 135.826,21.526 135.826,7.526"
     style="fill:none;stroke-width:0.050000mm;stroke:black"
     id="polygon74" />
  <polygon
     points="102.775,7.526 102.775,21.526 116.775,21.526 116.775,7.526"
     style="fill:none;stroke-width:0.050000mm;stroke:black"
     id="polygon76" />
  <polygon
     points="83.726,7.526 83.726,21.526 97.726,21.526 97.726,7.526"
     style="fill:none;stroke-width:0.050000mm;stroke:black"
     id="polygon78" />
  <polygon
     points="64.676,7.526 64.676,21.526 78.676,21.526 78.676,7.526"
     style="fill:none;stroke-width:0.050000mm;stroke:black"
     id="polygon80" />
  <polygon
     points="45.626,7.526 45.626,21.526 59.626,21.526 59.626,7.526"
     style="fill:none;stroke-width:0.050000mm;stroke:black"
     id="polygon82" />
  <polygon
     points="7.526,7.526 7.526,21.526 21.526,21.526 21.526,7.526"
     style="fill:none;stroke-width:0.050000mm;stroke:black"
     id="polygon84" />
</svg>
