%TF.GenerationSoftware,KiCad,Pcbnew,(5.1.10)-1*%
%TF.CreationDate,2021-08-17T12:27:07-04:00*%
%TF.ProjectId,macropad,6d616372-6f70-4616-942e-6b696361645f,rev?*%
%TF.SameCoordinates,Original*%
%TF.FileFunction,Legend,Bot*%
%TF.FilePolarity,Positive*%
%FSLAX46Y46*%
G04 Gerber Fmt 4.6, Leading zero omitted, Abs format (unit mm)*
G04 Created by KiCad (PCBNEW (5.1.10)-1) date 2021-08-17 12:27:07*
%MOMM*%
%LPD*%
G01*
G04 APERTURE LIST*
%ADD10C,0.150000*%
%ADD11C,0.381000*%
%ADD12C,0.120000*%
G04 APERTURE END LIST*
D10*
X86602857Y-36101428D02*
X86631428Y-36187142D01*
X86631428Y-36330000D01*
X86602857Y-36387142D01*
X86574285Y-36415714D01*
X86517142Y-36444285D01*
X86460000Y-36444285D01*
X86402857Y-36415714D01*
X86374285Y-36387142D01*
X86345714Y-36330000D01*
X86317142Y-36215714D01*
X86288571Y-36158571D01*
X86260000Y-36130000D01*
X86202857Y-36101428D01*
X86145714Y-36101428D01*
X86088571Y-36130000D01*
X86060000Y-36158571D01*
X86031428Y-36215714D01*
X86031428Y-36358571D01*
X86060000Y-36444285D01*
X86631428Y-36701428D02*
X86031428Y-36701428D01*
X86031428Y-36844285D01*
X86060000Y-36930000D01*
X86117142Y-36987142D01*
X86174285Y-37015714D01*
X86288571Y-37044285D01*
X86374285Y-37044285D01*
X86488571Y-37015714D01*
X86545714Y-36987142D01*
X86602857Y-36930000D01*
X86631428Y-36844285D01*
X86631428Y-36701428D01*
X86460000Y-37272857D02*
X86460000Y-37558571D01*
X86631428Y-37215714D02*
X86031428Y-37415714D01*
X86631428Y-37615714D01*
X86602857Y-38655714D02*
X86631428Y-38741428D01*
X86631428Y-38884285D01*
X86602857Y-38941428D01*
X86574285Y-38970000D01*
X86517142Y-38998571D01*
X86460000Y-38998571D01*
X86402857Y-38970000D01*
X86374285Y-38941428D01*
X86345714Y-38884285D01*
X86317142Y-38770000D01*
X86288571Y-38712857D01*
X86260000Y-38684285D01*
X86202857Y-38655714D01*
X86145714Y-38655714D01*
X86088571Y-38684285D01*
X86060000Y-38712857D01*
X86031428Y-38770000D01*
X86031428Y-38912857D01*
X86060000Y-38998571D01*
X86574285Y-39598571D02*
X86602857Y-39570000D01*
X86631428Y-39484285D01*
X86631428Y-39427142D01*
X86602857Y-39341428D01*
X86545714Y-39284285D01*
X86488571Y-39255714D01*
X86374285Y-39227142D01*
X86288571Y-39227142D01*
X86174285Y-39255714D01*
X86117142Y-39284285D01*
X86060000Y-39341428D01*
X86031428Y-39427142D01*
X86031428Y-39484285D01*
X86060000Y-39570000D01*
X86088571Y-39598571D01*
X86631428Y-40141428D02*
X86631428Y-39855714D01*
X86031428Y-39855714D01*
X86666428Y-41110000D02*
X87266428Y-41310000D01*
X86666428Y-41510000D01*
X87209285Y-42052857D02*
X87237857Y-42024285D01*
X87266428Y-41938571D01*
X87266428Y-41881428D01*
X87237857Y-41795714D01*
X87180714Y-41738571D01*
X87123571Y-41710000D01*
X87009285Y-41681428D01*
X86923571Y-41681428D01*
X86809285Y-41710000D01*
X86752142Y-41738571D01*
X86695000Y-41795714D01*
X86666428Y-41881428D01*
X86666428Y-41938571D01*
X86695000Y-42024285D01*
X86723571Y-42052857D01*
X87209285Y-42652857D02*
X87237857Y-42624285D01*
X87266428Y-42538571D01*
X87266428Y-42481428D01*
X87237857Y-42395714D01*
X87180714Y-42338571D01*
X87123571Y-42310000D01*
X87009285Y-42281428D01*
X86923571Y-42281428D01*
X86809285Y-42310000D01*
X86752142Y-42338571D01*
X86695000Y-42395714D01*
X86666428Y-42481428D01*
X86666428Y-42538571D01*
X86695000Y-42624285D01*
X86723571Y-42652857D01*
X86695000Y-43992857D02*
X86666428Y-43935714D01*
X86666428Y-43850000D01*
X86695000Y-43764285D01*
X86752142Y-43707142D01*
X86809285Y-43678571D01*
X86923571Y-43650000D01*
X87009285Y-43650000D01*
X87123571Y-43678571D01*
X87180714Y-43707142D01*
X87237857Y-43764285D01*
X87266428Y-43850000D01*
X87266428Y-43907142D01*
X87237857Y-43992857D01*
X87209285Y-44021428D01*
X87009285Y-44021428D01*
X87009285Y-43907142D01*
X87266428Y-44278571D02*
X86666428Y-44278571D01*
X87266428Y-44621428D01*
X86666428Y-44621428D01*
X87266428Y-44907142D02*
X86666428Y-44907142D01*
X86666428Y-45050000D01*
X86695000Y-45135714D01*
X86752142Y-45192857D01*
X86809285Y-45221428D01*
X86923571Y-45250000D01*
X87009285Y-45250000D01*
X87123571Y-45221428D01*
X87180714Y-45192857D01*
X87237857Y-45135714D01*
X87266428Y-45050000D01*
X87266428Y-44907142D01*
D11*
%TO.C,U1*%
X44450000Y-45720000D02*
X44450000Y-48260000D01*
X41910000Y-45720000D02*
X44450000Y-45720000D01*
D10*
G36*
X48199030Y-33325365D02*
G01*
X48299030Y-33325365D01*
X48299030Y-33225365D01*
X48199030Y-33225365D01*
X48199030Y-33325365D01*
G37*
X48199030Y-33325365D02*
X48299030Y-33325365D01*
X48299030Y-33225365D01*
X48199030Y-33225365D01*
X48199030Y-33325365D01*
G36*
X47799030Y-33125365D02*
G01*
X48599030Y-33125365D01*
X48599030Y-33025365D01*
X47799030Y-33025365D01*
X47799030Y-33125365D01*
G37*
X47799030Y-33125365D02*
X48599030Y-33125365D01*
X48599030Y-33025365D01*
X47799030Y-33025365D01*
X47799030Y-33125365D01*
G36*
X48399030Y-33525365D02*
G01*
X48599030Y-33525365D01*
X48599030Y-33425365D01*
X48399030Y-33425365D01*
X48399030Y-33525365D01*
G37*
X48399030Y-33525365D02*
X48599030Y-33525365D01*
X48599030Y-33425365D01*
X48399030Y-33425365D01*
X48399030Y-33525365D01*
G36*
X47799030Y-33525365D02*
G01*
X48099030Y-33525365D01*
X48099030Y-33425365D01*
X47799030Y-33425365D01*
X47799030Y-33525365D01*
G37*
X47799030Y-33525365D02*
X48099030Y-33525365D01*
X48099030Y-33425365D01*
X47799030Y-33425365D01*
X47799030Y-33525365D01*
G36*
X47799030Y-33525365D02*
G01*
X47899030Y-33525365D01*
X47899030Y-33025365D01*
X47799030Y-33025365D01*
X47799030Y-33525365D01*
G37*
X47799030Y-33525365D02*
X47899030Y-33525365D01*
X47899030Y-33025365D01*
X47799030Y-33025365D01*
X47799030Y-33525365D01*
D11*
X72390000Y-30480000D02*
X39370000Y-30480000D01*
X72390000Y-48260000D02*
X72390000Y-30480000D01*
X39370000Y-48260000D02*
X72390000Y-48260000D01*
X39370000Y-30480000D02*
X39370000Y-48260000D01*
X41910000Y-45720000D02*
X41910000Y-48260000D01*
D12*
%TO.C,SW10*%
X82895000Y-55965000D02*
X87995000Y-55965000D01*
X86795000Y-60165000D02*
X91895000Y-60165000D01*
X80895000Y-57965000D02*
G75*
G02*
X82895000Y-55965000I2000000J0D01*
G01*
X84795000Y-62165000D02*
G75*
G02*
X86795000Y-60165000I2000000J0D01*
G01*
%TO.C,D44*%
X168640000Y-38445000D02*
X168640000Y-34545000D01*
X166640000Y-38445000D02*
X166640000Y-34545000D01*
X168640000Y-38445000D02*
X166640000Y-38445000D01*
%TO.C,D43*%
X130540000Y-38445000D02*
X130540000Y-34545000D01*
X128540000Y-38445000D02*
X128540000Y-34545000D01*
X130540000Y-38445000D02*
X128540000Y-38445000D01*
%TO.C,D7*%
X149590000Y-38445000D02*
X149590000Y-34545000D01*
X147590000Y-38445000D02*
X147590000Y-34545000D01*
X149590000Y-38445000D02*
X147590000Y-38445000D01*
%TO.C,D6*%
X58150000Y-171795000D02*
X58150000Y-167895000D01*
X56150000Y-171795000D02*
X56150000Y-167895000D01*
X58150000Y-171795000D02*
X56150000Y-171795000D01*
%TO.C,SW40*%
X182045000Y-88740000D02*
X187145000Y-88740000D01*
X178145000Y-84540000D02*
X183245000Y-84540000D01*
X180045000Y-90740000D02*
G75*
G02*
X182045000Y-88740000I2000000J0D01*
G01*
X176145000Y-86540000D02*
G75*
G02*
X178145000Y-84540000I2000000J0D01*
G01*
%TO.C,SW39*%
X178145000Y-55965000D02*
X183245000Y-55965000D01*
X182045000Y-60165000D02*
X187145000Y-60165000D01*
X176145000Y-57965000D02*
G75*
G02*
X178145000Y-55965000I2000000J0D01*
G01*
X180045000Y-62165000D02*
G75*
G02*
X182045000Y-60165000I2000000J0D01*
G01*
%TO.C,SW38*%
X162995000Y-164940000D02*
X168095000Y-164940000D01*
X159095000Y-160740000D02*
X164195000Y-160740000D01*
X160995000Y-166940000D02*
G75*
G02*
X162995000Y-164940000I2000000J0D01*
G01*
X157095000Y-162740000D02*
G75*
G02*
X159095000Y-160740000I2000000J0D01*
G01*
%TO.C,SW37*%
X162995000Y-145890000D02*
X168095000Y-145890000D01*
X159095000Y-141690000D02*
X164195000Y-141690000D01*
X160995000Y-147890000D02*
G75*
G02*
X162995000Y-145890000I2000000J0D01*
G01*
X157095000Y-143690000D02*
G75*
G02*
X159095000Y-141690000I2000000J0D01*
G01*
%TO.C,SW36*%
X162995000Y-126840000D02*
X168095000Y-126840000D01*
X159095000Y-122640000D02*
X164195000Y-122640000D01*
X160995000Y-128840000D02*
G75*
G02*
X162995000Y-126840000I2000000J0D01*
G01*
X157095000Y-124640000D02*
G75*
G02*
X159095000Y-122640000I2000000J0D01*
G01*
%TO.C,SW35*%
X162995000Y-107790000D02*
X168095000Y-107790000D01*
X159095000Y-103590000D02*
X164195000Y-103590000D01*
X160995000Y-109790000D02*
G75*
G02*
X162995000Y-107790000I2000000J0D01*
G01*
X157095000Y-105590000D02*
G75*
G02*
X159095000Y-103590000I2000000J0D01*
G01*
%TO.C,SW34*%
X162995000Y-88740000D02*
X168095000Y-88740000D01*
X159095000Y-84540000D02*
X164195000Y-84540000D01*
X160995000Y-90740000D02*
G75*
G02*
X162995000Y-88740000I2000000J0D01*
G01*
X157095000Y-86540000D02*
G75*
G02*
X159095000Y-84540000I2000000J0D01*
G01*
%TO.C,SW33*%
X159095000Y-55965000D02*
X164195000Y-55965000D01*
X162995000Y-60165000D02*
X168095000Y-60165000D01*
X157095000Y-57965000D02*
G75*
G02*
X159095000Y-55965000I2000000J0D01*
G01*
X160995000Y-62165000D02*
G75*
G02*
X162995000Y-60165000I2000000J0D01*
G01*
%TO.C,SW32*%
X143945000Y-145890000D02*
X149045000Y-145890000D01*
X140045000Y-141690000D02*
X145145000Y-141690000D01*
X141945000Y-147890000D02*
G75*
G02*
X143945000Y-145890000I2000000J0D01*
G01*
X138045000Y-143690000D02*
G75*
G02*
X140045000Y-141690000I2000000J0D01*
G01*
%TO.C,SW31*%
X143945000Y-126840000D02*
X149045000Y-126840000D01*
X140045000Y-122640000D02*
X145145000Y-122640000D01*
X141945000Y-128840000D02*
G75*
G02*
X143945000Y-126840000I2000000J0D01*
G01*
X138045000Y-124640000D02*
G75*
G02*
X140045000Y-122640000I2000000J0D01*
G01*
%TO.C,SW30*%
X143945000Y-107790000D02*
X149045000Y-107790000D01*
X140045000Y-103590000D02*
X145145000Y-103590000D01*
X141945000Y-109790000D02*
G75*
G02*
X143945000Y-107790000I2000000J0D01*
G01*
X138045000Y-105590000D02*
G75*
G02*
X140045000Y-103590000I2000000J0D01*
G01*
%TO.C,SW29*%
X143945000Y-88740000D02*
X149045000Y-88740000D01*
X140045000Y-84540000D02*
X145145000Y-84540000D01*
X141945000Y-90740000D02*
G75*
G02*
X143945000Y-88740000I2000000J0D01*
G01*
X138045000Y-86540000D02*
G75*
G02*
X140045000Y-84540000I2000000J0D01*
G01*
%TO.C,SW28*%
X140045000Y-55965000D02*
X145145000Y-55965000D01*
X143945000Y-60165000D02*
X149045000Y-60165000D01*
X138045000Y-57965000D02*
G75*
G02*
X140045000Y-55965000I2000000J0D01*
G01*
X141945000Y-62165000D02*
G75*
G02*
X143945000Y-60165000I2000000J0D01*
G01*
%TO.C,SW26*%
X124895000Y-145890000D02*
X129995000Y-145890000D01*
X120995000Y-141690000D02*
X126095000Y-141690000D01*
X122895000Y-147890000D02*
G75*
G02*
X124895000Y-145890000I2000000J0D01*
G01*
X118995000Y-143690000D02*
G75*
G02*
X120995000Y-141690000I2000000J0D01*
G01*
%TO.C,SW25*%
X124895000Y-126840000D02*
X129995000Y-126840000D01*
X120995000Y-122640000D02*
X126095000Y-122640000D01*
X122895000Y-128840000D02*
G75*
G02*
X124895000Y-126840000I2000000J0D01*
G01*
X118995000Y-124640000D02*
G75*
G02*
X120995000Y-122640000I2000000J0D01*
G01*
%TO.C,SW24*%
X124895000Y-107790000D02*
X129995000Y-107790000D01*
X120995000Y-103590000D02*
X126095000Y-103590000D01*
X122895000Y-109790000D02*
G75*
G02*
X124895000Y-107790000I2000000J0D01*
G01*
X118995000Y-105590000D02*
G75*
G02*
X120995000Y-103590000I2000000J0D01*
G01*
%TO.C,SW23*%
X124895000Y-88740000D02*
X129995000Y-88740000D01*
X120995000Y-84540000D02*
X126095000Y-84540000D01*
X122895000Y-90740000D02*
G75*
G02*
X124895000Y-88740000I2000000J0D01*
G01*
X118995000Y-86540000D02*
G75*
G02*
X120995000Y-84540000I2000000J0D01*
G01*
%TO.C,SW22*%
X120995000Y-55965000D02*
X126095000Y-55965000D01*
X124895000Y-60165000D02*
X129995000Y-60165000D01*
X118995000Y-57965000D02*
G75*
G02*
X120995000Y-55965000I2000000J0D01*
G01*
X122895000Y-62165000D02*
G75*
G02*
X124895000Y-60165000I2000000J0D01*
G01*
%TO.C,SW21*%
X105845000Y-164940000D02*
X110945000Y-164940000D01*
X101945000Y-160740000D02*
X107045000Y-160740000D01*
X103845000Y-166940000D02*
G75*
G02*
X105845000Y-164940000I2000000J0D01*
G01*
X99945000Y-162740000D02*
G75*
G02*
X101945000Y-160740000I2000000J0D01*
G01*
%TO.C,SW20*%
X105845000Y-145890000D02*
X110945000Y-145890000D01*
X101945000Y-141690000D02*
X107045000Y-141690000D01*
X103845000Y-147890000D02*
G75*
G02*
X105845000Y-145890000I2000000J0D01*
G01*
X99945000Y-143690000D02*
G75*
G02*
X101945000Y-141690000I2000000J0D01*
G01*
%TO.C,SW19*%
X105845000Y-126840000D02*
X110945000Y-126840000D01*
X101945000Y-122640000D02*
X107045000Y-122640000D01*
X103845000Y-128840000D02*
G75*
G02*
X105845000Y-126840000I2000000J0D01*
G01*
X99945000Y-124640000D02*
G75*
G02*
X101945000Y-122640000I2000000J0D01*
G01*
%TO.C,SW18*%
X105845000Y-107790000D02*
X110945000Y-107790000D01*
X101945000Y-103590000D02*
X107045000Y-103590000D01*
X103845000Y-109790000D02*
G75*
G02*
X105845000Y-107790000I2000000J0D01*
G01*
X99945000Y-105590000D02*
G75*
G02*
X101945000Y-103590000I2000000J0D01*
G01*
%TO.C,SW17*%
X105845000Y-88740000D02*
X110945000Y-88740000D01*
X101945000Y-84540000D02*
X107045000Y-84540000D01*
X103845000Y-90740000D02*
G75*
G02*
X105845000Y-88740000I2000000J0D01*
G01*
X99945000Y-86540000D02*
G75*
G02*
X101945000Y-84540000I2000000J0D01*
G01*
%TO.C,SW16*%
X101945000Y-55965000D02*
X107045000Y-55965000D01*
X105845000Y-60165000D02*
X110945000Y-60165000D01*
X99945000Y-57965000D02*
G75*
G02*
X101945000Y-55965000I2000000J0D01*
G01*
X103845000Y-62165000D02*
G75*
G02*
X105845000Y-60165000I2000000J0D01*
G01*
%TO.C,SW15*%
X86795000Y-164940000D02*
X91895000Y-164940000D01*
X82895000Y-160740000D02*
X87995000Y-160740000D01*
X84795000Y-166940000D02*
G75*
G02*
X86795000Y-164940000I2000000J0D01*
G01*
X80895000Y-162740000D02*
G75*
G02*
X82895000Y-160740000I2000000J0D01*
G01*
%TO.C,SW14*%
X86795000Y-145890000D02*
X91895000Y-145890000D01*
X82895000Y-141690000D02*
X87995000Y-141690000D01*
X84795000Y-147890000D02*
G75*
G02*
X86795000Y-145890000I2000000J0D01*
G01*
X80895000Y-143690000D02*
G75*
G02*
X82895000Y-141690000I2000000J0D01*
G01*
%TO.C,SW13*%
X86795000Y-126840000D02*
X91895000Y-126840000D01*
X82895000Y-122640000D02*
X87995000Y-122640000D01*
X84795000Y-128840000D02*
G75*
G02*
X86795000Y-126840000I2000000J0D01*
G01*
X80895000Y-124640000D02*
G75*
G02*
X82895000Y-122640000I2000000J0D01*
G01*
%TO.C,SW12*%
X86795000Y-107790000D02*
X91895000Y-107790000D01*
X82895000Y-103590000D02*
X87995000Y-103590000D01*
X84795000Y-109790000D02*
G75*
G02*
X86795000Y-107790000I2000000J0D01*
G01*
X80895000Y-105590000D02*
G75*
G02*
X82895000Y-103590000I2000000J0D01*
G01*
%TO.C,SW11*%
X86795000Y-88740000D02*
X91895000Y-88740000D01*
X82895000Y-84540000D02*
X87995000Y-84540000D01*
X84795000Y-90740000D02*
G75*
G02*
X86795000Y-88740000I2000000J0D01*
G01*
X80895000Y-86540000D02*
G75*
G02*
X82895000Y-84540000I2000000J0D01*
G01*
%TO.C,SW9*%
X67745000Y-164940000D02*
X72845000Y-164940000D01*
X63845000Y-160740000D02*
X68945000Y-160740000D01*
X65745000Y-166940000D02*
G75*
G02*
X67745000Y-164940000I2000000J0D01*
G01*
X61845000Y-162740000D02*
G75*
G02*
X63845000Y-160740000I2000000J0D01*
G01*
%TO.C,SW8*%
X67745000Y-88740000D02*
X72845000Y-88740000D01*
X63845000Y-84540000D02*
X68945000Y-84540000D01*
X65745000Y-90740000D02*
G75*
G02*
X67745000Y-88740000I2000000J0D01*
G01*
X61845000Y-86540000D02*
G75*
G02*
X63845000Y-84540000I2000000J0D01*
G01*
%TO.C,SW6*%
X48695000Y-164940000D02*
X53795000Y-164940000D01*
X44795000Y-160740000D02*
X49895000Y-160740000D01*
X46695000Y-166940000D02*
G75*
G02*
X48695000Y-164940000I2000000J0D01*
G01*
X42795000Y-162740000D02*
G75*
G02*
X44795000Y-160740000I2000000J0D01*
G01*
%TO.C,SW2*%
X48695000Y-88740000D02*
X53795000Y-88740000D01*
X44795000Y-84540000D02*
X49895000Y-84540000D01*
X46695000Y-90740000D02*
G75*
G02*
X48695000Y-88740000I2000000J0D01*
G01*
X42795000Y-86540000D02*
G75*
G02*
X44795000Y-84540000I2000000J0D01*
G01*
%TO.C,SW1*%
X44795000Y-55965000D02*
X49895000Y-55965000D01*
X48695000Y-60165000D02*
X53795000Y-60165000D01*
X42795000Y-57965000D02*
G75*
G02*
X44795000Y-55965000I2000000J0D01*
G01*
X46695000Y-62165000D02*
G75*
G02*
X48695000Y-60165000I2000000J0D01*
G01*
%TO.C,D42*%
X190135000Y-148880000D02*
X190135000Y-152780000D01*
X192135000Y-148880000D02*
X192135000Y-152780000D01*
X190135000Y-148880000D02*
X192135000Y-148880000D01*
%TO.C,D41*%
X190135000Y-110780000D02*
X190135000Y-114680000D01*
X192135000Y-110780000D02*
X192135000Y-114680000D01*
X190135000Y-110780000D02*
X192135000Y-110780000D01*
%TO.C,D40*%
X191500000Y-95595000D02*
X191500000Y-91695000D01*
X189500000Y-95595000D02*
X189500000Y-91695000D01*
X191500000Y-95595000D02*
X189500000Y-95595000D01*
%TO.C,D39*%
X191500000Y-67020000D02*
X189500000Y-67020000D01*
X189500000Y-67020000D02*
X189500000Y-63120000D01*
X191500000Y-67020000D02*
X191500000Y-63120000D01*
%TO.C,D38*%
X173085000Y-166080000D02*
X173085000Y-162180000D01*
X171085000Y-166080000D02*
X171085000Y-162180000D01*
X173085000Y-166080000D02*
X171085000Y-166080000D01*
%TO.C,D37*%
X172450000Y-152745000D02*
X172450000Y-148845000D01*
X170450000Y-152745000D02*
X170450000Y-148845000D01*
X172450000Y-152745000D02*
X170450000Y-152745000D01*
%TO.C,D36*%
X173720000Y-128615000D02*
X173720000Y-124715000D01*
X171720000Y-128615000D02*
X171720000Y-124715000D01*
X173720000Y-128615000D02*
X171720000Y-128615000D01*
%TO.C,D35*%
X172450000Y-115915000D02*
X172450000Y-112015000D01*
X170450000Y-115915000D02*
X170450000Y-112015000D01*
X172450000Y-115915000D02*
X170450000Y-115915000D01*
%TO.C,D34*%
X172450000Y-95595000D02*
X172450000Y-91695000D01*
X170450000Y-95595000D02*
X170450000Y-91695000D01*
X172450000Y-95595000D02*
X170450000Y-95595000D01*
%TO.C,D33*%
X172450000Y-67020000D02*
X170450000Y-67020000D01*
X170450000Y-67020000D02*
X170450000Y-63120000D01*
X172450000Y-67020000D02*
X172450000Y-63120000D01*
%TO.C,D32*%
X153400000Y-152745000D02*
X153400000Y-148845000D01*
X151400000Y-152745000D02*
X151400000Y-148845000D01*
X153400000Y-152745000D02*
X151400000Y-152745000D01*
%TO.C,D31*%
X153400000Y-133695000D02*
X153400000Y-129795000D01*
X151400000Y-133695000D02*
X151400000Y-129795000D01*
X153400000Y-133695000D02*
X151400000Y-133695000D01*
%TO.C,D30*%
X153400000Y-114645000D02*
X153400000Y-110745000D01*
X151400000Y-114645000D02*
X151400000Y-110745000D01*
X153400000Y-114645000D02*
X151400000Y-114645000D01*
%TO.C,D29*%
X153400000Y-95595000D02*
X153400000Y-91695000D01*
X151400000Y-95595000D02*
X151400000Y-91695000D01*
X153400000Y-95595000D02*
X151400000Y-95595000D01*
%TO.C,D28*%
X153400000Y-67020000D02*
X151400000Y-67020000D01*
X151400000Y-67020000D02*
X151400000Y-63120000D01*
X153400000Y-67020000D02*
X153400000Y-63120000D01*
%TO.C,D27*%
X145780000Y-171795000D02*
X145780000Y-167895000D01*
X143780000Y-171795000D02*
X143780000Y-167895000D01*
X145780000Y-171795000D02*
X143780000Y-171795000D01*
%TO.C,D26*%
X134350000Y-152745000D02*
X134350000Y-148845000D01*
X132350000Y-152745000D02*
X132350000Y-148845000D01*
X134350000Y-152745000D02*
X132350000Y-152745000D01*
%TO.C,D25*%
X134350000Y-133695000D02*
X134350000Y-129795000D01*
X132350000Y-133695000D02*
X132350000Y-129795000D01*
X134350000Y-133695000D02*
X132350000Y-133695000D01*
%TO.C,D24*%
X134350000Y-114645000D02*
X134350000Y-110745000D01*
X132350000Y-114645000D02*
X132350000Y-110745000D01*
X134350000Y-114645000D02*
X132350000Y-114645000D01*
%TO.C,D23*%
X134350000Y-95595000D02*
X134350000Y-91695000D01*
X132350000Y-95595000D02*
X132350000Y-91695000D01*
X134350000Y-95595000D02*
X132350000Y-95595000D01*
%TO.C,D22*%
X134350000Y-67020000D02*
X132350000Y-67020000D01*
X132350000Y-67020000D02*
X132350000Y-63120000D01*
X134350000Y-67020000D02*
X134350000Y-63120000D01*
%TO.C,D21*%
X115300000Y-171795000D02*
X115300000Y-167895000D01*
X113300000Y-171795000D02*
X113300000Y-167895000D01*
X115300000Y-171795000D02*
X113300000Y-171795000D01*
%TO.C,D20*%
X115300000Y-152745000D02*
X115300000Y-148845000D01*
X113300000Y-152745000D02*
X113300000Y-148845000D01*
X115300000Y-152745000D02*
X113300000Y-152745000D01*
%TO.C,D19*%
X115300000Y-133695000D02*
X115300000Y-129795000D01*
X113300000Y-133695000D02*
X113300000Y-129795000D01*
X115300000Y-133695000D02*
X113300000Y-133695000D01*
%TO.C,D18*%
X115300000Y-114645000D02*
X115300000Y-110745000D01*
X113300000Y-114645000D02*
X113300000Y-110745000D01*
X115300000Y-114645000D02*
X113300000Y-114645000D01*
%TO.C,D17*%
X115300000Y-95595000D02*
X115300000Y-91695000D01*
X113300000Y-95595000D02*
X113300000Y-91695000D01*
X115300000Y-95595000D02*
X113300000Y-95595000D01*
%TO.C,D16*%
X115300000Y-67020000D02*
X113300000Y-67020000D01*
X113300000Y-67020000D02*
X113300000Y-63120000D01*
X115300000Y-67020000D02*
X115300000Y-63120000D01*
%TO.C,D15*%
X96250000Y-171795000D02*
X96250000Y-167895000D01*
X94250000Y-171795000D02*
X94250000Y-167895000D01*
X96250000Y-171795000D02*
X94250000Y-171795000D01*
%TO.C,D14*%
X96250000Y-152745000D02*
X96250000Y-148845000D01*
X94250000Y-152745000D02*
X94250000Y-148845000D01*
X96250000Y-152745000D02*
X94250000Y-152745000D01*
%TO.C,D13*%
X96250000Y-133695000D02*
X96250000Y-129795000D01*
X94250000Y-133695000D02*
X94250000Y-129795000D01*
X96250000Y-133695000D02*
X94250000Y-133695000D01*
%TO.C,D12*%
X96885000Y-114645000D02*
X96885000Y-110745000D01*
X94885000Y-114645000D02*
X94885000Y-110745000D01*
X96885000Y-114645000D02*
X94885000Y-114645000D01*
%TO.C,D11*%
X96250000Y-95595000D02*
X96250000Y-91695000D01*
X94250000Y-95595000D02*
X94250000Y-91695000D01*
X96250000Y-95595000D02*
X94250000Y-95595000D01*
%TO.C,D10*%
X96250000Y-67020000D02*
X94250000Y-67020000D01*
X94250000Y-67020000D02*
X94250000Y-63120000D01*
X96250000Y-67020000D02*
X96250000Y-63120000D01*
%TO.C,D9*%
X77200000Y-171795000D02*
X77200000Y-167895000D01*
X75200000Y-171795000D02*
X75200000Y-167895000D01*
X77200000Y-171795000D02*
X75200000Y-171795000D01*
%TO.C,D8*%
X77200000Y-95595000D02*
X77200000Y-91695000D01*
X75200000Y-95595000D02*
X75200000Y-91695000D01*
X77200000Y-95595000D02*
X75200000Y-95595000D01*
%TO.C,D5*%
X75295000Y-152745000D02*
X75295000Y-148845000D01*
X73295000Y-152745000D02*
X73295000Y-148845000D01*
X75295000Y-152745000D02*
X73295000Y-152745000D01*
%TO.C,D4*%
X75295000Y-133695000D02*
X75295000Y-129795000D01*
X73295000Y-133695000D02*
X73295000Y-129795000D01*
X75295000Y-133695000D02*
X73295000Y-133695000D01*
%TO.C,D3*%
X74660000Y-114645000D02*
X74660000Y-110745000D01*
X72660000Y-114645000D02*
X72660000Y-110745000D01*
X74660000Y-114645000D02*
X72660000Y-114645000D01*
%TO.C,D2*%
X58150000Y-95595000D02*
X58150000Y-91695000D01*
X56150000Y-95595000D02*
X56150000Y-91695000D01*
X58150000Y-95595000D02*
X56150000Y-95595000D01*
%TO.C,D1*%
X58150000Y-67020000D02*
X56150000Y-67020000D01*
X56150000Y-67020000D02*
X56150000Y-63120000D01*
X58150000Y-67020000D02*
X58150000Y-63120000D01*
%TO.C,U1*%
D10*
X69911904Y-41319523D02*
X69111904Y-41319523D01*
X69111904Y-41510000D01*
X69150000Y-41624285D01*
X69226190Y-41700476D01*
X69302380Y-41738571D01*
X69454761Y-41776666D01*
X69569047Y-41776666D01*
X69721428Y-41738571D01*
X69797619Y-41700476D01*
X69873809Y-41624285D01*
X69911904Y-41510000D01*
X69911904Y-41319523D01*
X69111904Y-42500476D02*
X69111904Y-42119523D01*
X69492857Y-42081428D01*
X69454761Y-42119523D01*
X69416666Y-42195714D01*
X69416666Y-42386190D01*
X69454761Y-42462380D01*
X69492857Y-42500476D01*
X69569047Y-42538571D01*
X69759523Y-42538571D01*
X69835714Y-42500476D01*
X69873809Y-42462380D01*
X69911904Y-42386190D01*
X69911904Y-42195714D01*
X69873809Y-42119523D01*
X69835714Y-42081428D01*
X69492857Y-36563333D02*
X69492857Y-36296666D01*
X69911904Y-36296666D02*
X69111904Y-36296666D01*
X69111904Y-36677619D01*
X69911904Y-37401428D02*
X69911904Y-36944285D01*
X69911904Y-37172857D02*
X69111904Y-37172857D01*
X69226190Y-37096666D01*
X69302380Y-37020476D01*
X69340476Y-36944285D01*
X69835714Y-39236666D02*
X69873809Y-39198571D01*
X69911904Y-39084285D01*
X69911904Y-39008095D01*
X69873809Y-38893809D01*
X69797619Y-38817619D01*
X69721428Y-38779523D01*
X69569047Y-38741428D01*
X69454761Y-38741428D01*
X69302380Y-38779523D01*
X69226190Y-38817619D01*
X69150000Y-38893809D01*
X69111904Y-39008095D01*
X69111904Y-39084285D01*
X69150000Y-39198571D01*
X69188095Y-39236666D01*
X69111904Y-39503333D02*
X69111904Y-40036666D01*
X69911904Y-39693809D01*
X69614297Y-32805008D02*
X69708578Y-32852148D01*
X69755719Y-32852148D01*
X69826429Y-32828578D01*
X69897140Y-32757867D01*
X69920710Y-32687157D01*
X69920710Y-32640016D01*
X69897140Y-32569306D01*
X69708578Y-32380744D01*
X69213603Y-32875719D01*
X69378595Y-33040710D01*
X69449306Y-33064280D01*
X69496446Y-33064280D01*
X69567157Y-33040710D01*
X69614297Y-32993570D01*
X69637867Y-32922859D01*
X69637867Y-32875719D01*
X69614297Y-32805008D01*
X69449306Y-32640016D01*
X69920710Y-33582825D02*
X69826429Y-33488544D01*
X69802859Y-33417834D01*
X69802859Y-33370693D01*
X69826429Y-33252842D01*
X69897140Y-33134991D01*
X70085702Y-32946429D01*
X70156412Y-32922859D01*
X70203553Y-32922859D01*
X70274264Y-32946429D01*
X70368544Y-33040710D01*
X70392115Y-33111421D01*
X70392115Y-33158561D01*
X70368544Y-33229272D01*
X70250693Y-33347123D01*
X70179983Y-33370693D01*
X70132842Y-33370693D01*
X70062132Y-33347123D01*
X69967851Y-33252842D01*
X69944280Y-33182132D01*
X69944280Y-33134991D01*
X69967851Y-33064280D01*
X69700000Y-34636666D02*
X69700000Y-34403333D01*
X70066666Y-34403333D02*
X69366666Y-34403333D01*
X69366666Y-34736666D01*
X69366666Y-35136666D02*
X69366666Y-35203333D01*
X69400000Y-35270000D01*
X69433333Y-35303333D01*
X69500000Y-35336666D01*
X69633333Y-35370000D01*
X69800000Y-35370000D01*
X69933333Y-35336666D01*
X70000000Y-35303333D01*
X70033333Y-35270000D01*
X70066666Y-35203333D01*
X70066666Y-35136666D01*
X70033333Y-35070000D01*
X70000000Y-35036666D01*
X69933333Y-35003333D01*
X69800000Y-34970000D01*
X69633333Y-34970000D01*
X69500000Y-35003333D01*
X69433333Y-35036666D01*
X69400000Y-35070000D01*
X69366666Y-35136666D01*
X69700000Y-43586666D02*
X69733333Y-43686666D01*
X69766666Y-43720000D01*
X69833333Y-43753333D01*
X69933333Y-43753333D01*
X70000000Y-43720000D01*
X70033333Y-43686666D01*
X70066666Y-43620000D01*
X70066666Y-43353333D01*
X69366666Y-43353333D01*
X69366666Y-43586666D01*
X69400000Y-43653333D01*
X69433333Y-43686666D01*
X69500000Y-43720000D01*
X69566666Y-43720000D01*
X69633333Y-43686666D01*
X69666666Y-43653333D01*
X69700000Y-43586666D01*
X69700000Y-43353333D01*
X69366666Y-43986666D02*
X69366666Y-44453333D01*
X70066666Y-44153333D01*
X48563809Y-33796666D02*
X48601904Y-33910952D01*
X48601904Y-34101428D01*
X48563809Y-34177619D01*
X48525714Y-34215714D01*
X48449523Y-34253809D01*
X48373333Y-34253809D01*
X48297142Y-34215714D01*
X48259047Y-34177619D01*
X48220952Y-34101428D01*
X48182857Y-33949047D01*
X48144761Y-33872857D01*
X48106666Y-33834761D01*
X48030476Y-33796666D01*
X47954285Y-33796666D01*
X47878095Y-33834761D01*
X47840000Y-33872857D01*
X47801904Y-33949047D01*
X47801904Y-34139523D01*
X47840000Y-34253809D01*
X47801904Y-34482380D02*
X47801904Y-34939523D01*
X48601904Y-34710952D02*
X47801904Y-34710952D01*
X42741904Y-40751395D02*
X42741904Y-41208538D01*
X43541904Y-40979967D02*
X42741904Y-40979967D01*
X42741904Y-41399014D02*
X43541904Y-41932348D01*
X42741904Y-41932348D02*
X43541904Y-41399014D01*
X42741904Y-42389491D02*
X42741904Y-42465681D01*
X42780000Y-42541872D01*
X42818095Y-42579967D01*
X42894285Y-42618062D01*
X43046666Y-42656157D01*
X43237142Y-42656157D01*
X43389523Y-42618062D01*
X43465714Y-42579967D01*
X43503809Y-42541872D01*
X43541904Y-42465681D01*
X43541904Y-42389491D01*
X43503809Y-42313300D01*
X43465714Y-42275205D01*
X43389523Y-42237110D01*
X43237142Y-42199014D01*
X43046666Y-42199014D01*
X42894285Y-42237110D01*
X42818095Y-42275205D01*
X42780000Y-42313300D01*
X42741904Y-42389491D01*
X42703809Y-43570443D02*
X43732380Y-42884729D01*
X43541904Y-43837110D02*
X42741904Y-43837110D01*
X42741904Y-44027586D01*
X42780000Y-44141872D01*
X42856190Y-44218062D01*
X42932380Y-44256157D01*
X43084761Y-44294252D01*
X43199047Y-44294252D01*
X43351428Y-44256157D01*
X43427619Y-44218062D01*
X43503809Y-44141872D01*
X43541904Y-44027586D01*
X43541904Y-43837110D01*
X42741904Y-44560919D02*
X42741904Y-45056157D01*
X43046666Y-44789491D01*
X43046666Y-44903776D01*
X43084761Y-44979967D01*
X43122857Y-45018062D01*
X43199047Y-45056157D01*
X43389523Y-45056157D01*
X43465714Y-45018062D01*
X43503809Y-44979967D01*
X43541904Y-44903776D01*
X43541904Y-44675205D01*
X43503809Y-44599014D01*
X43465714Y-44560919D01*
X68522857Y-33585190D02*
X68560952Y-33699476D01*
X68599047Y-33737571D01*
X68675238Y-33775666D01*
X68789523Y-33775666D01*
X68865714Y-33737571D01*
X68903809Y-33699476D01*
X68941904Y-33623285D01*
X68941904Y-33318523D01*
X68141904Y-33318523D01*
X68141904Y-33585190D01*
X68180000Y-33661380D01*
X68218095Y-33699476D01*
X68294285Y-33737571D01*
X68370476Y-33737571D01*
X68446666Y-33699476D01*
X68484761Y-33661380D01*
X68522857Y-33585190D01*
X68522857Y-33318523D01*
X68218095Y-34080428D02*
X68180000Y-34118523D01*
X68141904Y-34194714D01*
X68141904Y-34385190D01*
X68180000Y-34461380D01*
X68218095Y-34499476D01*
X68294285Y-34537571D01*
X68370476Y-34537571D01*
X68484761Y-34499476D01*
X68941904Y-34042333D01*
X68941904Y-34537571D01*
X60902857Y-33642333D02*
X60902857Y-33375666D01*
X61321904Y-33375666D02*
X60521904Y-33375666D01*
X60521904Y-33756619D01*
X60521904Y-33985190D02*
X60521904Y-34518523D01*
X61321904Y-34175666D01*
X58362857Y-33642333D02*
X58362857Y-33375666D01*
X58781904Y-33375666D02*
X57981904Y-33375666D01*
X57981904Y-33756619D01*
X57981904Y-34404238D02*
X57981904Y-34251857D01*
X58020000Y-34175666D01*
X58058095Y-34137571D01*
X58172380Y-34061380D01*
X58324761Y-34023285D01*
X58629523Y-34023285D01*
X58705714Y-34061380D01*
X58743809Y-34099476D01*
X58781904Y-34175666D01*
X58781904Y-34328047D01*
X58743809Y-34404238D01*
X58705714Y-34442333D01*
X58629523Y-34480428D01*
X58439047Y-34480428D01*
X58362857Y-34442333D01*
X58324761Y-34404238D01*
X58286666Y-34328047D01*
X58286666Y-34175666D01*
X58324761Y-34099476D01*
X58362857Y-34061380D01*
X58439047Y-34023285D01*
X55822857Y-33642333D02*
X55822857Y-33375666D01*
X56241904Y-33375666D02*
X55441904Y-33375666D01*
X55441904Y-33756619D01*
X55441904Y-34442333D02*
X55441904Y-34061380D01*
X55822857Y-34023285D01*
X55784761Y-34061380D01*
X55746666Y-34137571D01*
X55746666Y-34328047D01*
X55784761Y-34404238D01*
X55822857Y-34442333D01*
X55899047Y-34480428D01*
X56089523Y-34480428D01*
X56165714Y-34442333D01*
X56203809Y-34404238D01*
X56241904Y-34328047D01*
X56241904Y-34137571D01*
X56203809Y-34061380D01*
X56165714Y-34023285D01*
X43122857Y-33585190D02*
X43160952Y-33699476D01*
X43199047Y-33737571D01*
X43275238Y-33775666D01*
X43389523Y-33775666D01*
X43465714Y-33737571D01*
X43503809Y-33699476D01*
X43541904Y-33623285D01*
X43541904Y-33318523D01*
X42741904Y-33318523D01*
X42741904Y-33585190D01*
X42780000Y-33661380D01*
X42818095Y-33699476D01*
X42894285Y-33737571D01*
X42970476Y-33737571D01*
X43046666Y-33699476D01*
X43084761Y-33661380D01*
X43122857Y-33585190D01*
X43122857Y-33318523D01*
X42741904Y-34270904D02*
X42741904Y-34347095D01*
X42780000Y-34423285D01*
X42818095Y-34461380D01*
X42894285Y-34499476D01*
X43046666Y-34537571D01*
X43237142Y-34537571D01*
X43389523Y-34499476D01*
X43465714Y-34461380D01*
X43503809Y-34423285D01*
X43541904Y-34347095D01*
X43541904Y-34270904D01*
X43503809Y-34194714D01*
X43465714Y-34156619D01*
X43389523Y-34118523D01*
X43237142Y-34080428D01*
X43046666Y-34080428D01*
X42894285Y-34118523D01*
X42818095Y-34156619D01*
X42780000Y-34194714D01*
X42741904Y-34270904D01*
X45320000Y-33299476D02*
X45281904Y-33223285D01*
X45281904Y-33109000D01*
X45320000Y-32994714D01*
X45396190Y-32918523D01*
X45472380Y-32880428D01*
X45624761Y-32842333D01*
X45739047Y-32842333D01*
X45891428Y-32880428D01*
X45967619Y-32918523D01*
X46043809Y-32994714D01*
X46081904Y-33109000D01*
X46081904Y-33185190D01*
X46043809Y-33299476D01*
X46005714Y-33337571D01*
X45739047Y-33337571D01*
X45739047Y-33185190D01*
X46081904Y-33680428D02*
X45281904Y-33680428D01*
X46081904Y-34137571D01*
X45281904Y-34137571D01*
X46081904Y-34518523D02*
X45281904Y-34518523D01*
X45281904Y-34709000D01*
X45320000Y-34823285D01*
X45396190Y-34899476D01*
X45472380Y-34937571D01*
X45624761Y-34975666D01*
X45739047Y-34975666D01*
X45891428Y-34937571D01*
X45967619Y-34899476D01*
X46043809Y-34823285D01*
X46081904Y-34709000D01*
X46081904Y-34518523D01*
X50361904Y-32842333D02*
X51161904Y-33109000D01*
X50361904Y-33375666D01*
X51085714Y-34099476D02*
X51123809Y-34061380D01*
X51161904Y-33947095D01*
X51161904Y-33870904D01*
X51123809Y-33756619D01*
X51047619Y-33680428D01*
X50971428Y-33642333D01*
X50819047Y-33604238D01*
X50704761Y-33604238D01*
X50552380Y-33642333D01*
X50476190Y-33680428D01*
X50400000Y-33756619D01*
X50361904Y-33870904D01*
X50361904Y-33947095D01*
X50400000Y-34061380D01*
X50438095Y-34099476D01*
X51085714Y-34899476D02*
X51123809Y-34861380D01*
X51161904Y-34747095D01*
X51161904Y-34670904D01*
X51123809Y-34556619D01*
X51047619Y-34480428D01*
X50971428Y-34442333D01*
X50819047Y-34404238D01*
X50704761Y-34404238D01*
X50552380Y-34442333D01*
X50476190Y-34480428D01*
X50400000Y-34556619D01*
X50361904Y-34670904D01*
X50361904Y-34747095D01*
X50400000Y-34861380D01*
X50438095Y-34899476D01*
X53282857Y-33642333D02*
X53282857Y-33375666D01*
X53701904Y-33375666D02*
X52901904Y-33375666D01*
X52901904Y-33756619D01*
X53168571Y-34404238D02*
X53701904Y-34404238D01*
X52863809Y-34213761D02*
X53435238Y-34023285D01*
X53435238Y-34518523D01*
X63442857Y-33585190D02*
X63480952Y-33699476D01*
X63519047Y-33737571D01*
X63595238Y-33775666D01*
X63709523Y-33775666D01*
X63785714Y-33737571D01*
X63823809Y-33699476D01*
X63861904Y-33623285D01*
X63861904Y-33318523D01*
X63061904Y-33318523D01*
X63061904Y-33585190D01*
X63100000Y-33661380D01*
X63138095Y-33699476D01*
X63214285Y-33737571D01*
X63290476Y-33737571D01*
X63366666Y-33699476D01*
X63404761Y-33661380D01*
X63442857Y-33585190D01*
X63442857Y-33318523D01*
X63861904Y-34537571D02*
X63861904Y-34080428D01*
X63861904Y-34309000D02*
X63061904Y-34309000D01*
X63176190Y-34232809D01*
X63252380Y-34156619D01*
X63290476Y-34080428D01*
X65982857Y-33585190D02*
X66020952Y-33699476D01*
X66059047Y-33737571D01*
X66135238Y-33775666D01*
X66249523Y-33775666D01*
X66325714Y-33737571D01*
X66363809Y-33699476D01*
X66401904Y-33623285D01*
X66401904Y-33318523D01*
X65601904Y-33318523D01*
X65601904Y-33585190D01*
X65640000Y-33661380D01*
X65678095Y-33699476D01*
X65754285Y-33737571D01*
X65830476Y-33737571D01*
X65906666Y-33699476D01*
X65944761Y-33661380D01*
X65982857Y-33585190D01*
X65982857Y-33318523D01*
X65601904Y-34042333D02*
X65601904Y-34537571D01*
X65906666Y-34270904D01*
X65906666Y-34385190D01*
X65944761Y-34461380D01*
X65982857Y-34499476D01*
X66059047Y-34537571D01*
X66249523Y-34537571D01*
X66325714Y-34499476D01*
X66363809Y-34461380D01*
X66401904Y-34385190D01*
X66401904Y-34156619D01*
X66363809Y-34080428D01*
X66325714Y-34042333D01*
X70014991Y-45534297D02*
X69967851Y-45628578D01*
X69967851Y-45675719D01*
X69991421Y-45746429D01*
X70062132Y-45817140D01*
X70132842Y-45840710D01*
X70179983Y-45840710D01*
X70250693Y-45817140D01*
X70439255Y-45628578D01*
X69944280Y-45133603D01*
X69779289Y-45298595D01*
X69755719Y-45369306D01*
X69755719Y-45416446D01*
X69779289Y-45487157D01*
X69826429Y-45534297D01*
X69897140Y-45557867D01*
X69944280Y-45557867D01*
X70014991Y-45534297D01*
X70179983Y-45369306D01*
X69213603Y-45864280D02*
X69449306Y-45628578D01*
X69708578Y-45840710D01*
X69661438Y-45840710D01*
X69590727Y-45864280D01*
X69472876Y-45982132D01*
X69449306Y-46052842D01*
X69449306Y-46099983D01*
X69472876Y-46170693D01*
X69590727Y-46288544D01*
X69661438Y-46312115D01*
X69708578Y-46312115D01*
X69779289Y-46288544D01*
X69897140Y-46170693D01*
X69920710Y-46099983D01*
X69920710Y-46052842D01*
X68522857Y-44507190D02*
X68560952Y-44621476D01*
X68599047Y-44659571D01*
X68675238Y-44697666D01*
X68789523Y-44697666D01*
X68865714Y-44659571D01*
X68903809Y-44621476D01*
X68941904Y-44545285D01*
X68941904Y-44240523D01*
X68141904Y-44240523D01*
X68141904Y-44507190D01*
X68180000Y-44583380D01*
X68218095Y-44621476D01*
X68294285Y-44659571D01*
X68370476Y-44659571D01*
X68446666Y-44621476D01*
X68484761Y-44583380D01*
X68522857Y-44507190D01*
X68522857Y-44240523D01*
X68408571Y-45383380D02*
X68941904Y-45383380D01*
X68103809Y-45192904D02*
X68675238Y-45002428D01*
X68675238Y-45497666D01*
X65982857Y-44278619D02*
X65982857Y-44545285D01*
X66401904Y-44659571D02*
X66401904Y-44278619D01*
X65601904Y-44278619D01*
X65601904Y-44659571D01*
X65601904Y-45345285D02*
X65601904Y-45192904D01*
X65640000Y-45116714D01*
X65678095Y-45078619D01*
X65792380Y-45002428D01*
X65944761Y-44964333D01*
X66249523Y-44964333D01*
X66325714Y-45002428D01*
X66363809Y-45040523D01*
X66401904Y-45116714D01*
X66401904Y-45269095D01*
X66363809Y-45345285D01*
X66325714Y-45383380D01*
X66249523Y-45421476D01*
X66059047Y-45421476D01*
X65982857Y-45383380D01*
X65944761Y-45345285D01*
X65906666Y-45269095D01*
X65906666Y-45116714D01*
X65944761Y-45040523D01*
X65982857Y-45002428D01*
X66059047Y-44964333D01*
X63861904Y-44240523D02*
X63061904Y-44240523D01*
X63061904Y-44431000D01*
X63100000Y-44545285D01*
X63176190Y-44621476D01*
X63252380Y-44659571D01*
X63404761Y-44697666D01*
X63519047Y-44697666D01*
X63671428Y-44659571D01*
X63747619Y-44621476D01*
X63823809Y-44545285D01*
X63861904Y-44431000D01*
X63861904Y-44240523D01*
X63061904Y-44964333D02*
X63061904Y-45497666D01*
X63861904Y-45154809D01*
X61245714Y-44697666D02*
X61283809Y-44659571D01*
X61321904Y-44545285D01*
X61321904Y-44469095D01*
X61283809Y-44354809D01*
X61207619Y-44278619D01*
X61131428Y-44240523D01*
X60979047Y-44202428D01*
X60864761Y-44202428D01*
X60712380Y-44240523D01*
X60636190Y-44278619D01*
X60560000Y-44354809D01*
X60521904Y-44469095D01*
X60521904Y-44545285D01*
X60560000Y-44659571D01*
X60598095Y-44697666D01*
X60521904Y-45383380D02*
X60521904Y-45231000D01*
X60560000Y-45154809D01*
X60598095Y-45116714D01*
X60712380Y-45040523D01*
X60864761Y-45002428D01*
X61169523Y-45002428D01*
X61245714Y-45040523D01*
X61283809Y-45078619D01*
X61321904Y-45154809D01*
X61321904Y-45307190D01*
X61283809Y-45383380D01*
X61245714Y-45421476D01*
X61169523Y-45459571D01*
X60979047Y-45459571D01*
X60902857Y-45421476D01*
X60864761Y-45383380D01*
X60826666Y-45307190D01*
X60826666Y-45154809D01*
X60864761Y-45078619D01*
X60902857Y-45040523D01*
X60979047Y-45002428D01*
X58781904Y-44240523D02*
X57981904Y-44240523D01*
X57981904Y-44431000D01*
X58020000Y-44545285D01*
X58096190Y-44621476D01*
X58172380Y-44659571D01*
X58324761Y-44697666D01*
X58439047Y-44697666D01*
X58591428Y-44659571D01*
X58667619Y-44621476D01*
X58743809Y-44545285D01*
X58781904Y-44431000D01*
X58781904Y-44240523D01*
X58248571Y-45383380D02*
X58781904Y-45383380D01*
X57943809Y-45192904D02*
X58515238Y-45002428D01*
X58515238Y-45497666D01*
X47860000Y-44221476D02*
X47821904Y-44145285D01*
X47821904Y-44031000D01*
X47860000Y-43916714D01*
X47936190Y-43840523D01*
X48012380Y-43802428D01*
X48164761Y-43764333D01*
X48279047Y-43764333D01*
X48431428Y-43802428D01*
X48507619Y-43840523D01*
X48583809Y-43916714D01*
X48621904Y-44031000D01*
X48621904Y-44107190D01*
X48583809Y-44221476D01*
X48545714Y-44259571D01*
X48279047Y-44259571D01*
X48279047Y-44107190D01*
X48621904Y-44602428D02*
X47821904Y-44602428D01*
X48621904Y-45059571D01*
X47821904Y-45059571D01*
X48621904Y-45440523D02*
X47821904Y-45440523D01*
X47821904Y-45631000D01*
X47860000Y-45745285D01*
X47936190Y-45821476D01*
X48012380Y-45859571D01*
X48164761Y-45897666D01*
X48279047Y-45897666D01*
X48431428Y-45859571D01*
X48507619Y-45821476D01*
X48583809Y-45745285D01*
X48621904Y-45631000D01*
X48621904Y-45440523D01*
X50400000Y-44221476D02*
X50361904Y-44145285D01*
X50361904Y-44031000D01*
X50400000Y-43916714D01*
X50476190Y-43840523D01*
X50552380Y-43802428D01*
X50704761Y-43764333D01*
X50819047Y-43764333D01*
X50971428Y-43802428D01*
X51047619Y-43840523D01*
X51123809Y-43916714D01*
X51161904Y-44031000D01*
X51161904Y-44107190D01*
X51123809Y-44221476D01*
X51085714Y-44259571D01*
X50819047Y-44259571D01*
X50819047Y-44107190D01*
X51161904Y-44602428D02*
X50361904Y-44602428D01*
X51161904Y-45059571D01*
X50361904Y-45059571D01*
X51161904Y-45440523D02*
X50361904Y-45440523D01*
X50361904Y-45631000D01*
X50400000Y-45745285D01*
X50476190Y-45821476D01*
X50552380Y-45859571D01*
X50704761Y-45897666D01*
X50819047Y-45897666D01*
X50971428Y-45859571D01*
X51047619Y-45821476D01*
X51123809Y-45745285D01*
X51161904Y-45631000D01*
X51161904Y-45440523D01*
X53701904Y-44240523D02*
X52901904Y-44240523D01*
X52901904Y-44431000D01*
X52940000Y-44545285D01*
X53016190Y-44621476D01*
X53092380Y-44659571D01*
X53244761Y-44697666D01*
X53359047Y-44697666D01*
X53511428Y-44659571D01*
X53587619Y-44621476D01*
X53663809Y-44545285D01*
X53701904Y-44431000D01*
X53701904Y-44240523D01*
X53701904Y-45459571D02*
X53701904Y-45002428D01*
X53701904Y-45231000D02*
X52901904Y-45231000D01*
X53016190Y-45154809D01*
X53092380Y-45078619D01*
X53130476Y-45002428D01*
X56241904Y-44240523D02*
X55441904Y-44240523D01*
X55441904Y-44431000D01*
X55480000Y-44545285D01*
X55556190Y-44621476D01*
X55632380Y-44659571D01*
X55784761Y-44697666D01*
X55899047Y-44697666D01*
X56051428Y-44659571D01*
X56127619Y-44621476D01*
X56203809Y-44545285D01*
X56241904Y-44431000D01*
X56241904Y-44240523D01*
X55441904Y-45192904D02*
X55441904Y-45269095D01*
X55480000Y-45345285D01*
X55518095Y-45383380D01*
X55594285Y-45421476D01*
X55746666Y-45459571D01*
X55937142Y-45459571D01*
X56089523Y-45421476D01*
X56165714Y-45383380D01*
X56203809Y-45345285D01*
X56241904Y-45269095D01*
X56241904Y-45192904D01*
X56203809Y-45116714D01*
X56165714Y-45078619D01*
X56089523Y-45040523D01*
X55937142Y-45002428D01*
X55746666Y-45002428D01*
X55594285Y-45040523D01*
X55518095Y-45078619D01*
X55480000Y-45116714D01*
X55441904Y-45192904D01*
X46081904Y-44240523D02*
X45281904Y-44240523D01*
X45281904Y-44431000D01*
X45320000Y-44545285D01*
X45396190Y-44621476D01*
X45472380Y-44659571D01*
X45624761Y-44697666D01*
X45739047Y-44697666D01*
X45891428Y-44659571D01*
X45967619Y-44621476D01*
X46043809Y-44545285D01*
X46081904Y-44431000D01*
X46081904Y-44240523D01*
X45358095Y-45002428D02*
X45320000Y-45040523D01*
X45281904Y-45116714D01*
X45281904Y-45307190D01*
X45320000Y-45383380D01*
X45358095Y-45421476D01*
X45434285Y-45459571D01*
X45510476Y-45459571D01*
X45624761Y-45421476D01*
X46081904Y-44964333D01*
X46081904Y-45459571D01*
%TO.C,SW10*%
X88804523Y-55269761D02*
X88661666Y-55317380D01*
X88423571Y-55317380D01*
X88328333Y-55269761D01*
X88280714Y-55222142D01*
X88233095Y-55126904D01*
X88233095Y-55031666D01*
X88280714Y-54936428D01*
X88328333Y-54888809D01*
X88423571Y-54841190D01*
X88614047Y-54793571D01*
X88709285Y-54745952D01*
X88756904Y-54698333D01*
X88804523Y-54603095D01*
X88804523Y-54507857D01*
X88756904Y-54412619D01*
X88709285Y-54365000D01*
X88614047Y-54317380D01*
X88375952Y-54317380D01*
X88233095Y-54365000D01*
X87899761Y-54317380D02*
X87661666Y-55317380D01*
X87471190Y-54603095D01*
X87280714Y-55317380D01*
X87042619Y-54317380D01*
X86137857Y-55317380D02*
X86709285Y-55317380D01*
X86423571Y-55317380D02*
X86423571Y-54317380D01*
X86518809Y-54460238D01*
X86614047Y-54555476D01*
X86709285Y-54603095D01*
X85518809Y-54317380D02*
X85423571Y-54317380D01*
X85328333Y-54365000D01*
X85280714Y-54412619D01*
X85233095Y-54507857D01*
X85185476Y-54698333D01*
X85185476Y-54936428D01*
X85233095Y-55126904D01*
X85280714Y-55222142D01*
X85328333Y-55269761D01*
X85423571Y-55317380D01*
X85518809Y-55317380D01*
X85614047Y-55269761D01*
X85661666Y-55222142D01*
X85709285Y-55126904D01*
X85756904Y-54936428D01*
X85756904Y-54698333D01*
X85709285Y-54507857D01*
X85661666Y-54412619D01*
X85614047Y-54365000D01*
X85518809Y-54317380D01*
%TO.C,D44*%
X170092380Y-34980714D02*
X169092380Y-34980714D01*
X169092380Y-35218809D01*
X169140000Y-35361666D01*
X169235238Y-35456904D01*
X169330476Y-35504523D01*
X169520952Y-35552142D01*
X169663809Y-35552142D01*
X169854285Y-35504523D01*
X169949523Y-35456904D01*
X170044761Y-35361666D01*
X170092380Y-35218809D01*
X170092380Y-34980714D01*
X169425714Y-36409285D02*
X170092380Y-36409285D01*
X169044761Y-36171190D02*
X169759047Y-35933095D01*
X169759047Y-36552142D01*
X169425714Y-37361666D02*
X170092380Y-37361666D01*
X169044761Y-37123571D02*
X169759047Y-36885476D01*
X169759047Y-37504523D01*
%TO.C,D43*%
X131992380Y-34980714D02*
X130992380Y-34980714D01*
X130992380Y-35218809D01*
X131040000Y-35361666D01*
X131135238Y-35456904D01*
X131230476Y-35504523D01*
X131420952Y-35552142D01*
X131563809Y-35552142D01*
X131754285Y-35504523D01*
X131849523Y-35456904D01*
X131944761Y-35361666D01*
X131992380Y-35218809D01*
X131992380Y-34980714D01*
X131325714Y-36409285D02*
X131992380Y-36409285D01*
X130944761Y-36171190D02*
X131659047Y-35933095D01*
X131659047Y-36552142D01*
X130992380Y-36837857D02*
X130992380Y-37456904D01*
X131373333Y-37123571D01*
X131373333Y-37266428D01*
X131420952Y-37361666D01*
X131468571Y-37409285D01*
X131563809Y-37456904D01*
X131801904Y-37456904D01*
X131897142Y-37409285D01*
X131944761Y-37361666D01*
X131992380Y-37266428D01*
X131992380Y-36980714D01*
X131944761Y-36885476D01*
X131897142Y-36837857D01*
%TO.C,D7*%
X151042380Y-35456904D02*
X150042380Y-35456904D01*
X150042380Y-35695000D01*
X150090000Y-35837857D01*
X150185238Y-35933095D01*
X150280476Y-35980714D01*
X150470952Y-36028333D01*
X150613809Y-36028333D01*
X150804285Y-35980714D01*
X150899523Y-35933095D01*
X150994761Y-35837857D01*
X151042380Y-35695000D01*
X151042380Y-35456904D01*
X150042380Y-36361666D02*
X150042380Y-37028333D01*
X151042380Y-36599761D01*
%TO.C,SW4*%
X59783584Y-133039071D02*
X59640727Y-133086690D01*
X59402631Y-133086690D01*
X59307393Y-133039071D01*
X59259774Y-132991452D01*
X59212155Y-132896214D01*
X59212155Y-132800976D01*
X59259774Y-132705738D01*
X59307393Y-132658119D01*
X59402631Y-132610500D01*
X59593108Y-132562881D01*
X59688346Y-132515262D01*
X59735965Y-132467643D01*
X59783584Y-132372405D01*
X59783584Y-132277167D01*
X59735965Y-132181929D01*
X59688346Y-132134310D01*
X59593108Y-132086690D01*
X59355012Y-132086690D01*
X59212155Y-132134310D01*
X58878822Y-132086690D02*
X58640727Y-133086690D01*
X58450251Y-132372405D01*
X58259774Y-133086690D01*
X58021679Y-132086690D01*
X57212155Y-132420024D02*
X57212155Y-133086690D01*
X57450251Y-132039071D02*
X57688346Y-132753357D01*
X57069298Y-132753357D01*
%TO.C,D6*%
X59602380Y-168806904D02*
X58602380Y-168806904D01*
X58602380Y-169045000D01*
X58650000Y-169187857D01*
X58745238Y-169283095D01*
X58840476Y-169330714D01*
X59030952Y-169378333D01*
X59173809Y-169378333D01*
X59364285Y-169330714D01*
X59459523Y-169283095D01*
X59554761Y-169187857D01*
X59602380Y-169045000D01*
X59602380Y-168806904D01*
X58602380Y-170235476D02*
X58602380Y-170045000D01*
X58650000Y-169949761D01*
X58697619Y-169902142D01*
X58840476Y-169806904D01*
X59030952Y-169759285D01*
X59411904Y-169759285D01*
X59507142Y-169806904D01*
X59554761Y-169854523D01*
X59602380Y-169949761D01*
X59602380Y-170140238D01*
X59554761Y-170235476D01*
X59507142Y-170283095D01*
X59411904Y-170330714D01*
X59173809Y-170330714D01*
X59078571Y-170283095D01*
X59030952Y-170235476D01*
X58983333Y-170140238D01*
X58983333Y-169949761D01*
X59030952Y-169854523D01*
X59078571Y-169806904D01*
X59173809Y-169759285D01*
%TO.C,SW42*%
X183993544Y-161528955D02*
X183850687Y-161576574D01*
X183612592Y-161576574D01*
X183517354Y-161528955D01*
X183469735Y-161481336D01*
X183422116Y-161386098D01*
X183422116Y-161290860D01*
X183469735Y-161195622D01*
X183517354Y-161148003D01*
X183612592Y-161100384D01*
X183803068Y-161052765D01*
X183898306Y-161005146D01*
X183945925Y-160957527D01*
X183993544Y-160862289D01*
X183993544Y-160767051D01*
X183945925Y-160671813D01*
X183898306Y-160624194D01*
X183803068Y-160576574D01*
X183564973Y-160576574D01*
X183422116Y-160624194D01*
X183088782Y-160576574D02*
X182850687Y-161576574D01*
X182660211Y-160862289D01*
X182469735Y-161576574D01*
X182231640Y-160576574D01*
X181422116Y-160909908D02*
X181422116Y-161576574D01*
X181660211Y-160528955D02*
X181898306Y-161243241D01*
X181279259Y-161243241D01*
X180945925Y-160671813D02*
X180898306Y-160624194D01*
X180803068Y-160576574D01*
X180564973Y-160576574D01*
X180469735Y-160624194D01*
X180422116Y-160671813D01*
X180374497Y-160767051D01*
X180374497Y-160862289D01*
X180422116Y-161005146D01*
X180993544Y-161576574D01*
X180374497Y-161576574D01*
%TO.C,SW41*%
X184018447Y-123457641D02*
X183875590Y-123505260D01*
X183637495Y-123505260D01*
X183542257Y-123457641D01*
X183494638Y-123410022D01*
X183447019Y-123314784D01*
X183447019Y-123219546D01*
X183494638Y-123124308D01*
X183542257Y-123076689D01*
X183637495Y-123029070D01*
X183827971Y-122981451D01*
X183923209Y-122933832D01*
X183970828Y-122886213D01*
X184018447Y-122790975D01*
X184018447Y-122695737D01*
X183970828Y-122600499D01*
X183923209Y-122552880D01*
X183827971Y-122505260D01*
X183589876Y-122505260D01*
X183447019Y-122552880D01*
X183113685Y-122505260D02*
X182875590Y-123505260D01*
X182685114Y-122790975D01*
X182494638Y-123505260D01*
X182256543Y-122505260D01*
X181447019Y-122838594D02*
X181447019Y-123505260D01*
X181685114Y-122457641D02*
X181923209Y-123171927D01*
X181304162Y-123171927D01*
X180399400Y-123505260D02*
X180970828Y-123505260D01*
X180685114Y-123505260D02*
X180685114Y-122505260D01*
X180780352Y-122648118D01*
X180875590Y-122743356D01*
X180970828Y-122790975D01*
%TO.C,SW40*%
X184054523Y-83844761D02*
X183911666Y-83892380D01*
X183673571Y-83892380D01*
X183578333Y-83844761D01*
X183530714Y-83797142D01*
X183483095Y-83701904D01*
X183483095Y-83606666D01*
X183530714Y-83511428D01*
X183578333Y-83463809D01*
X183673571Y-83416190D01*
X183864047Y-83368571D01*
X183959285Y-83320952D01*
X184006904Y-83273333D01*
X184054523Y-83178095D01*
X184054523Y-83082857D01*
X184006904Y-82987619D01*
X183959285Y-82940000D01*
X183864047Y-82892380D01*
X183625952Y-82892380D01*
X183483095Y-82940000D01*
X183149761Y-82892380D02*
X182911666Y-83892380D01*
X182721190Y-83178095D01*
X182530714Y-83892380D01*
X182292619Y-82892380D01*
X181483095Y-83225714D02*
X181483095Y-83892380D01*
X181721190Y-82844761D02*
X181959285Y-83559047D01*
X181340238Y-83559047D01*
X180768809Y-82892380D02*
X180673571Y-82892380D01*
X180578333Y-82940000D01*
X180530714Y-82987619D01*
X180483095Y-83082857D01*
X180435476Y-83273333D01*
X180435476Y-83511428D01*
X180483095Y-83701904D01*
X180530714Y-83797142D01*
X180578333Y-83844761D01*
X180673571Y-83892380D01*
X180768809Y-83892380D01*
X180864047Y-83844761D01*
X180911666Y-83797142D01*
X180959285Y-83701904D01*
X181006904Y-83511428D01*
X181006904Y-83273333D01*
X180959285Y-83082857D01*
X180911666Y-82987619D01*
X180864047Y-82940000D01*
X180768809Y-82892380D01*
%TO.C,SW39*%
X184054523Y-55269761D02*
X183911666Y-55317380D01*
X183673571Y-55317380D01*
X183578333Y-55269761D01*
X183530714Y-55222142D01*
X183483095Y-55126904D01*
X183483095Y-55031666D01*
X183530714Y-54936428D01*
X183578333Y-54888809D01*
X183673571Y-54841190D01*
X183864047Y-54793571D01*
X183959285Y-54745952D01*
X184006904Y-54698333D01*
X184054523Y-54603095D01*
X184054523Y-54507857D01*
X184006904Y-54412619D01*
X183959285Y-54365000D01*
X183864047Y-54317380D01*
X183625952Y-54317380D01*
X183483095Y-54365000D01*
X183149761Y-54317380D02*
X182911666Y-55317380D01*
X182721190Y-54603095D01*
X182530714Y-55317380D01*
X182292619Y-54317380D01*
X182006904Y-54317380D02*
X181387857Y-54317380D01*
X181721190Y-54698333D01*
X181578333Y-54698333D01*
X181483095Y-54745952D01*
X181435476Y-54793571D01*
X181387857Y-54888809D01*
X181387857Y-55126904D01*
X181435476Y-55222142D01*
X181483095Y-55269761D01*
X181578333Y-55317380D01*
X181864047Y-55317380D01*
X181959285Y-55269761D01*
X182006904Y-55222142D01*
X180911666Y-55317380D02*
X180721190Y-55317380D01*
X180625952Y-55269761D01*
X180578333Y-55222142D01*
X180483095Y-55079285D01*
X180435476Y-54888809D01*
X180435476Y-54507857D01*
X180483095Y-54412619D01*
X180530714Y-54365000D01*
X180625952Y-54317380D01*
X180816428Y-54317380D01*
X180911666Y-54365000D01*
X180959285Y-54412619D01*
X181006904Y-54507857D01*
X181006904Y-54745952D01*
X180959285Y-54841190D01*
X180911666Y-54888809D01*
X180816428Y-54936428D01*
X180625952Y-54936428D01*
X180530714Y-54888809D01*
X180483095Y-54841190D01*
X180435476Y-54745952D01*
%TO.C,SW38*%
X165004523Y-160044761D02*
X164861666Y-160092380D01*
X164623571Y-160092380D01*
X164528333Y-160044761D01*
X164480714Y-159997142D01*
X164433095Y-159901904D01*
X164433095Y-159806666D01*
X164480714Y-159711428D01*
X164528333Y-159663809D01*
X164623571Y-159616190D01*
X164814047Y-159568571D01*
X164909285Y-159520952D01*
X164956904Y-159473333D01*
X165004523Y-159378095D01*
X165004523Y-159282857D01*
X164956904Y-159187619D01*
X164909285Y-159140000D01*
X164814047Y-159092380D01*
X164575952Y-159092380D01*
X164433095Y-159140000D01*
X164099761Y-159092380D02*
X163861666Y-160092380D01*
X163671190Y-159378095D01*
X163480714Y-160092380D01*
X163242619Y-159092380D01*
X162956904Y-159092380D02*
X162337857Y-159092380D01*
X162671190Y-159473333D01*
X162528333Y-159473333D01*
X162433095Y-159520952D01*
X162385476Y-159568571D01*
X162337857Y-159663809D01*
X162337857Y-159901904D01*
X162385476Y-159997142D01*
X162433095Y-160044761D01*
X162528333Y-160092380D01*
X162814047Y-160092380D01*
X162909285Y-160044761D01*
X162956904Y-159997142D01*
X161766428Y-159520952D02*
X161861666Y-159473333D01*
X161909285Y-159425714D01*
X161956904Y-159330476D01*
X161956904Y-159282857D01*
X161909285Y-159187619D01*
X161861666Y-159140000D01*
X161766428Y-159092380D01*
X161575952Y-159092380D01*
X161480714Y-159140000D01*
X161433095Y-159187619D01*
X161385476Y-159282857D01*
X161385476Y-159330476D01*
X161433095Y-159425714D01*
X161480714Y-159473333D01*
X161575952Y-159520952D01*
X161766428Y-159520952D01*
X161861666Y-159568571D01*
X161909285Y-159616190D01*
X161956904Y-159711428D01*
X161956904Y-159901904D01*
X161909285Y-159997142D01*
X161861666Y-160044761D01*
X161766428Y-160092380D01*
X161575952Y-160092380D01*
X161480714Y-160044761D01*
X161433095Y-159997142D01*
X161385476Y-159901904D01*
X161385476Y-159711428D01*
X161433095Y-159616190D01*
X161480714Y-159568571D01*
X161575952Y-159520952D01*
%TO.C,SW37*%
X165004523Y-140994761D02*
X164861666Y-141042380D01*
X164623571Y-141042380D01*
X164528333Y-140994761D01*
X164480714Y-140947142D01*
X164433095Y-140851904D01*
X164433095Y-140756666D01*
X164480714Y-140661428D01*
X164528333Y-140613809D01*
X164623571Y-140566190D01*
X164814047Y-140518571D01*
X164909285Y-140470952D01*
X164956904Y-140423333D01*
X165004523Y-140328095D01*
X165004523Y-140232857D01*
X164956904Y-140137619D01*
X164909285Y-140090000D01*
X164814047Y-140042380D01*
X164575952Y-140042380D01*
X164433095Y-140090000D01*
X164099761Y-140042380D02*
X163861666Y-141042380D01*
X163671190Y-140328095D01*
X163480714Y-141042380D01*
X163242619Y-140042380D01*
X162956904Y-140042380D02*
X162337857Y-140042380D01*
X162671190Y-140423333D01*
X162528333Y-140423333D01*
X162433095Y-140470952D01*
X162385476Y-140518571D01*
X162337857Y-140613809D01*
X162337857Y-140851904D01*
X162385476Y-140947142D01*
X162433095Y-140994761D01*
X162528333Y-141042380D01*
X162814047Y-141042380D01*
X162909285Y-140994761D01*
X162956904Y-140947142D01*
X162004523Y-140042380D02*
X161337857Y-140042380D01*
X161766428Y-141042380D01*
%TO.C,SW36*%
X165004523Y-121944761D02*
X164861666Y-121992380D01*
X164623571Y-121992380D01*
X164528333Y-121944761D01*
X164480714Y-121897142D01*
X164433095Y-121801904D01*
X164433095Y-121706666D01*
X164480714Y-121611428D01*
X164528333Y-121563809D01*
X164623571Y-121516190D01*
X164814047Y-121468571D01*
X164909285Y-121420952D01*
X164956904Y-121373333D01*
X165004523Y-121278095D01*
X165004523Y-121182857D01*
X164956904Y-121087619D01*
X164909285Y-121040000D01*
X164814047Y-120992380D01*
X164575952Y-120992380D01*
X164433095Y-121040000D01*
X164099761Y-120992380D02*
X163861666Y-121992380D01*
X163671190Y-121278095D01*
X163480714Y-121992380D01*
X163242619Y-120992380D01*
X162956904Y-120992380D02*
X162337857Y-120992380D01*
X162671190Y-121373333D01*
X162528333Y-121373333D01*
X162433095Y-121420952D01*
X162385476Y-121468571D01*
X162337857Y-121563809D01*
X162337857Y-121801904D01*
X162385476Y-121897142D01*
X162433095Y-121944761D01*
X162528333Y-121992380D01*
X162814047Y-121992380D01*
X162909285Y-121944761D01*
X162956904Y-121897142D01*
X161480714Y-120992380D02*
X161671190Y-120992380D01*
X161766428Y-121040000D01*
X161814047Y-121087619D01*
X161909285Y-121230476D01*
X161956904Y-121420952D01*
X161956904Y-121801904D01*
X161909285Y-121897142D01*
X161861666Y-121944761D01*
X161766428Y-121992380D01*
X161575952Y-121992380D01*
X161480714Y-121944761D01*
X161433095Y-121897142D01*
X161385476Y-121801904D01*
X161385476Y-121563809D01*
X161433095Y-121468571D01*
X161480714Y-121420952D01*
X161575952Y-121373333D01*
X161766428Y-121373333D01*
X161861666Y-121420952D01*
X161909285Y-121468571D01*
X161956904Y-121563809D01*
%TO.C,SW35*%
X165004523Y-102894761D02*
X164861666Y-102942380D01*
X164623571Y-102942380D01*
X164528333Y-102894761D01*
X164480714Y-102847142D01*
X164433095Y-102751904D01*
X164433095Y-102656666D01*
X164480714Y-102561428D01*
X164528333Y-102513809D01*
X164623571Y-102466190D01*
X164814047Y-102418571D01*
X164909285Y-102370952D01*
X164956904Y-102323333D01*
X165004523Y-102228095D01*
X165004523Y-102132857D01*
X164956904Y-102037619D01*
X164909285Y-101990000D01*
X164814047Y-101942380D01*
X164575952Y-101942380D01*
X164433095Y-101990000D01*
X164099761Y-101942380D02*
X163861666Y-102942380D01*
X163671190Y-102228095D01*
X163480714Y-102942380D01*
X163242619Y-101942380D01*
X162956904Y-101942380D02*
X162337857Y-101942380D01*
X162671190Y-102323333D01*
X162528333Y-102323333D01*
X162433095Y-102370952D01*
X162385476Y-102418571D01*
X162337857Y-102513809D01*
X162337857Y-102751904D01*
X162385476Y-102847142D01*
X162433095Y-102894761D01*
X162528333Y-102942380D01*
X162814047Y-102942380D01*
X162909285Y-102894761D01*
X162956904Y-102847142D01*
X161433095Y-101942380D02*
X161909285Y-101942380D01*
X161956904Y-102418571D01*
X161909285Y-102370952D01*
X161814047Y-102323333D01*
X161575952Y-102323333D01*
X161480714Y-102370952D01*
X161433095Y-102418571D01*
X161385476Y-102513809D01*
X161385476Y-102751904D01*
X161433095Y-102847142D01*
X161480714Y-102894761D01*
X161575952Y-102942380D01*
X161814047Y-102942380D01*
X161909285Y-102894761D01*
X161956904Y-102847142D01*
%TO.C,SW34*%
X165004523Y-83844761D02*
X164861666Y-83892380D01*
X164623571Y-83892380D01*
X164528333Y-83844761D01*
X164480714Y-83797142D01*
X164433095Y-83701904D01*
X164433095Y-83606666D01*
X164480714Y-83511428D01*
X164528333Y-83463809D01*
X164623571Y-83416190D01*
X164814047Y-83368571D01*
X164909285Y-83320952D01*
X164956904Y-83273333D01*
X165004523Y-83178095D01*
X165004523Y-83082857D01*
X164956904Y-82987619D01*
X164909285Y-82940000D01*
X164814047Y-82892380D01*
X164575952Y-82892380D01*
X164433095Y-82940000D01*
X164099761Y-82892380D02*
X163861666Y-83892380D01*
X163671190Y-83178095D01*
X163480714Y-83892380D01*
X163242619Y-82892380D01*
X162956904Y-82892380D02*
X162337857Y-82892380D01*
X162671190Y-83273333D01*
X162528333Y-83273333D01*
X162433095Y-83320952D01*
X162385476Y-83368571D01*
X162337857Y-83463809D01*
X162337857Y-83701904D01*
X162385476Y-83797142D01*
X162433095Y-83844761D01*
X162528333Y-83892380D01*
X162814047Y-83892380D01*
X162909285Y-83844761D01*
X162956904Y-83797142D01*
X161480714Y-83225714D02*
X161480714Y-83892380D01*
X161718809Y-82844761D02*
X161956904Y-83559047D01*
X161337857Y-83559047D01*
%TO.C,SW33*%
X165004523Y-55269761D02*
X164861666Y-55317380D01*
X164623571Y-55317380D01*
X164528333Y-55269761D01*
X164480714Y-55222142D01*
X164433095Y-55126904D01*
X164433095Y-55031666D01*
X164480714Y-54936428D01*
X164528333Y-54888809D01*
X164623571Y-54841190D01*
X164814047Y-54793571D01*
X164909285Y-54745952D01*
X164956904Y-54698333D01*
X165004523Y-54603095D01*
X165004523Y-54507857D01*
X164956904Y-54412619D01*
X164909285Y-54365000D01*
X164814047Y-54317380D01*
X164575952Y-54317380D01*
X164433095Y-54365000D01*
X164099761Y-54317380D02*
X163861666Y-55317380D01*
X163671190Y-54603095D01*
X163480714Y-55317380D01*
X163242619Y-54317380D01*
X162956904Y-54317380D02*
X162337857Y-54317380D01*
X162671190Y-54698333D01*
X162528333Y-54698333D01*
X162433095Y-54745952D01*
X162385476Y-54793571D01*
X162337857Y-54888809D01*
X162337857Y-55126904D01*
X162385476Y-55222142D01*
X162433095Y-55269761D01*
X162528333Y-55317380D01*
X162814047Y-55317380D01*
X162909285Y-55269761D01*
X162956904Y-55222142D01*
X162004523Y-54317380D02*
X161385476Y-54317380D01*
X161718809Y-54698333D01*
X161575952Y-54698333D01*
X161480714Y-54745952D01*
X161433095Y-54793571D01*
X161385476Y-54888809D01*
X161385476Y-55126904D01*
X161433095Y-55222142D01*
X161480714Y-55269761D01*
X161575952Y-55317380D01*
X161861666Y-55317380D01*
X161956904Y-55269761D01*
X162004523Y-55222142D01*
%TO.C,SW32*%
X145954523Y-140994761D02*
X145811666Y-141042380D01*
X145573571Y-141042380D01*
X145478333Y-140994761D01*
X145430714Y-140947142D01*
X145383095Y-140851904D01*
X145383095Y-140756666D01*
X145430714Y-140661428D01*
X145478333Y-140613809D01*
X145573571Y-140566190D01*
X145764047Y-140518571D01*
X145859285Y-140470952D01*
X145906904Y-140423333D01*
X145954523Y-140328095D01*
X145954523Y-140232857D01*
X145906904Y-140137619D01*
X145859285Y-140090000D01*
X145764047Y-140042380D01*
X145525952Y-140042380D01*
X145383095Y-140090000D01*
X145049761Y-140042380D02*
X144811666Y-141042380D01*
X144621190Y-140328095D01*
X144430714Y-141042380D01*
X144192619Y-140042380D01*
X143906904Y-140042380D02*
X143287857Y-140042380D01*
X143621190Y-140423333D01*
X143478333Y-140423333D01*
X143383095Y-140470952D01*
X143335476Y-140518571D01*
X143287857Y-140613809D01*
X143287857Y-140851904D01*
X143335476Y-140947142D01*
X143383095Y-140994761D01*
X143478333Y-141042380D01*
X143764047Y-141042380D01*
X143859285Y-140994761D01*
X143906904Y-140947142D01*
X142906904Y-140137619D02*
X142859285Y-140090000D01*
X142764047Y-140042380D01*
X142525952Y-140042380D01*
X142430714Y-140090000D01*
X142383095Y-140137619D01*
X142335476Y-140232857D01*
X142335476Y-140328095D01*
X142383095Y-140470952D01*
X142954523Y-141042380D01*
X142335476Y-141042380D01*
%TO.C,SW31*%
X145954523Y-121944761D02*
X145811666Y-121992380D01*
X145573571Y-121992380D01*
X145478333Y-121944761D01*
X145430714Y-121897142D01*
X145383095Y-121801904D01*
X145383095Y-121706666D01*
X145430714Y-121611428D01*
X145478333Y-121563809D01*
X145573571Y-121516190D01*
X145764047Y-121468571D01*
X145859285Y-121420952D01*
X145906904Y-121373333D01*
X145954523Y-121278095D01*
X145954523Y-121182857D01*
X145906904Y-121087619D01*
X145859285Y-121040000D01*
X145764047Y-120992380D01*
X145525952Y-120992380D01*
X145383095Y-121040000D01*
X145049761Y-120992380D02*
X144811666Y-121992380D01*
X144621190Y-121278095D01*
X144430714Y-121992380D01*
X144192619Y-120992380D01*
X143906904Y-120992380D02*
X143287857Y-120992380D01*
X143621190Y-121373333D01*
X143478333Y-121373333D01*
X143383095Y-121420952D01*
X143335476Y-121468571D01*
X143287857Y-121563809D01*
X143287857Y-121801904D01*
X143335476Y-121897142D01*
X143383095Y-121944761D01*
X143478333Y-121992380D01*
X143764047Y-121992380D01*
X143859285Y-121944761D01*
X143906904Y-121897142D01*
X142335476Y-121992380D02*
X142906904Y-121992380D01*
X142621190Y-121992380D02*
X142621190Y-120992380D01*
X142716428Y-121135238D01*
X142811666Y-121230476D01*
X142906904Y-121278095D01*
%TO.C,SW30*%
X145954523Y-102894761D02*
X145811666Y-102942380D01*
X145573571Y-102942380D01*
X145478333Y-102894761D01*
X145430714Y-102847142D01*
X145383095Y-102751904D01*
X145383095Y-102656666D01*
X145430714Y-102561428D01*
X145478333Y-102513809D01*
X145573571Y-102466190D01*
X145764047Y-102418571D01*
X145859285Y-102370952D01*
X145906904Y-102323333D01*
X145954523Y-102228095D01*
X145954523Y-102132857D01*
X145906904Y-102037619D01*
X145859285Y-101990000D01*
X145764047Y-101942380D01*
X145525952Y-101942380D01*
X145383095Y-101990000D01*
X145049761Y-101942380D02*
X144811666Y-102942380D01*
X144621190Y-102228095D01*
X144430714Y-102942380D01*
X144192619Y-101942380D01*
X143906904Y-101942380D02*
X143287857Y-101942380D01*
X143621190Y-102323333D01*
X143478333Y-102323333D01*
X143383095Y-102370952D01*
X143335476Y-102418571D01*
X143287857Y-102513809D01*
X143287857Y-102751904D01*
X143335476Y-102847142D01*
X143383095Y-102894761D01*
X143478333Y-102942380D01*
X143764047Y-102942380D01*
X143859285Y-102894761D01*
X143906904Y-102847142D01*
X142668809Y-101942380D02*
X142573571Y-101942380D01*
X142478333Y-101990000D01*
X142430714Y-102037619D01*
X142383095Y-102132857D01*
X142335476Y-102323333D01*
X142335476Y-102561428D01*
X142383095Y-102751904D01*
X142430714Y-102847142D01*
X142478333Y-102894761D01*
X142573571Y-102942380D01*
X142668809Y-102942380D01*
X142764047Y-102894761D01*
X142811666Y-102847142D01*
X142859285Y-102751904D01*
X142906904Y-102561428D01*
X142906904Y-102323333D01*
X142859285Y-102132857D01*
X142811666Y-102037619D01*
X142764047Y-101990000D01*
X142668809Y-101942380D01*
%TO.C,SW29*%
X145954523Y-83844761D02*
X145811666Y-83892380D01*
X145573571Y-83892380D01*
X145478333Y-83844761D01*
X145430714Y-83797142D01*
X145383095Y-83701904D01*
X145383095Y-83606666D01*
X145430714Y-83511428D01*
X145478333Y-83463809D01*
X145573571Y-83416190D01*
X145764047Y-83368571D01*
X145859285Y-83320952D01*
X145906904Y-83273333D01*
X145954523Y-83178095D01*
X145954523Y-83082857D01*
X145906904Y-82987619D01*
X145859285Y-82940000D01*
X145764047Y-82892380D01*
X145525952Y-82892380D01*
X145383095Y-82940000D01*
X145049761Y-82892380D02*
X144811666Y-83892380D01*
X144621190Y-83178095D01*
X144430714Y-83892380D01*
X144192619Y-82892380D01*
X143859285Y-82987619D02*
X143811666Y-82940000D01*
X143716428Y-82892380D01*
X143478333Y-82892380D01*
X143383095Y-82940000D01*
X143335476Y-82987619D01*
X143287857Y-83082857D01*
X143287857Y-83178095D01*
X143335476Y-83320952D01*
X143906904Y-83892380D01*
X143287857Y-83892380D01*
X142811666Y-83892380D02*
X142621190Y-83892380D01*
X142525952Y-83844761D01*
X142478333Y-83797142D01*
X142383095Y-83654285D01*
X142335476Y-83463809D01*
X142335476Y-83082857D01*
X142383095Y-82987619D01*
X142430714Y-82940000D01*
X142525952Y-82892380D01*
X142716428Y-82892380D01*
X142811666Y-82940000D01*
X142859285Y-82987619D01*
X142906904Y-83082857D01*
X142906904Y-83320952D01*
X142859285Y-83416190D01*
X142811666Y-83463809D01*
X142716428Y-83511428D01*
X142525952Y-83511428D01*
X142430714Y-83463809D01*
X142383095Y-83416190D01*
X142335476Y-83320952D01*
%TO.C,SW28*%
X145954523Y-55269761D02*
X145811666Y-55317380D01*
X145573571Y-55317380D01*
X145478333Y-55269761D01*
X145430714Y-55222142D01*
X145383095Y-55126904D01*
X145383095Y-55031666D01*
X145430714Y-54936428D01*
X145478333Y-54888809D01*
X145573571Y-54841190D01*
X145764047Y-54793571D01*
X145859285Y-54745952D01*
X145906904Y-54698333D01*
X145954523Y-54603095D01*
X145954523Y-54507857D01*
X145906904Y-54412619D01*
X145859285Y-54365000D01*
X145764047Y-54317380D01*
X145525952Y-54317380D01*
X145383095Y-54365000D01*
X145049761Y-54317380D02*
X144811666Y-55317380D01*
X144621190Y-54603095D01*
X144430714Y-55317380D01*
X144192619Y-54317380D01*
X143859285Y-54412619D02*
X143811666Y-54365000D01*
X143716428Y-54317380D01*
X143478333Y-54317380D01*
X143383095Y-54365000D01*
X143335476Y-54412619D01*
X143287857Y-54507857D01*
X143287857Y-54603095D01*
X143335476Y-54745952D01*
X143906904Y-55317380D01*
X143287857Y-55317380D01*
X142716428Y-54745952D02*
X142811666Y-54698333D01*
X142859285Y-54650714D01*
X142906904Y-54555476D01*
X142906904Y-54507857D01*
X142859285Y-54412619D01*
X142811666Y-54365000D01*
X142716428Y-54317380D01*
X142525952Y-54317380D01*
X142430714Y-54365000D01*
X142383095Y-54412619D01*
X142335476Y-54507857D01*
X142335476Y-54555476D01*
X142383095Y-54650714D01*
X142430714Y-54698333D01*
X142525952Y-54745952D01*
X142716428Y-54745952D01*
X142811666Y-54793571D01*
X142859285Y-54841190D01*
X142906904Y-54936428D01*
X142906904Y-55126904D01*
X142859285Y-55222142D01*
X142811666Y-55269761D01*
X142716428Y-55317380D01*
X142525952Y-55317380D01*
X142430714Y-55269761D01*
X142383095Y-55222142D01*
X142335476Y-55126904D01*
X142335476Y-54936428D01*
X142383095Y-54841190D01*
X142430714Y-54793571D01*
X142525952Y-54745952D01*
%TO.C,SW27*%
X136429523Y-171092761D02*
X136286666Y-171140380D01*
X136048571Y-171140380D01*
X135953333Y-171092761D01*
X135905714Y-171045142D01*
X135858095Y-170949904D01*
X135858095Y-170854666D01*
X135905714Y-170759428D01*
X135953333Y-170711809D01*
X136048571Y-170664190D01*
X136239047Y-170616571D01*
X136334285Y-170568952D01*
X136381904Y-170521333D01*
X136429523Y-170426095D01*
X136429523Y-170330857D01*
X136381904Y-170235619D01*
X136334285Y-170188000D01*
X136239047Y-170140380D01*
X136000952Y-170140380D01*
X135858095Y-170188000D01*
X135524761Y-170140380D02*
X135286666Y-171140380D01*
X135096190Y-170426095D01*
X134905714Y-171140380D01*
X134667619Y-170140380D01*
X134334285Y-170235619D02*
X134286666Y-170188000D01*
X134191428Y-170140380D01*
X133953333Y-170140380D01*
X133858095Y-170188000D01*
X133810476Y-170235619D01*
X133762857Y-170330857D01*
X133762857Y-170426095D01*
X133810476Y-170568952D01*
X134381904Y-171140380D01*
X133762857Y-171140380D01*
X133429523Y-170140380D02*
X132762857Y-170140380D01*
X133191428Y-171140380D01*
%TO.C,SW26*%
X126904523Y-140994761D02*
X126761666Y-141042380D01*
X126523571Y-141042380D01*
X126428333Y-140994761D01*
X126380714Y-140947142D01*
X126333095Y-140851904D01*
X126333095Y-140756666D01*
X126380714Y-140661428D01*
X126428333Y-140613809D01*
X126523571Y-140566190D01*
X126714047Y-140518571D01*
X126809285Y-140470952D01*
X126856904Y-140423333D01*
X126904523Y-140328095D01*
X126904523Y-140232857D01*
X126856904Y-140137619D01*
X126809285Y-140090000D01*
X126714047Y-140042380D01*
X126475952Y-140042380D01*
X126333095Y-140090000D01*
X125999761Y-140042380D02*
X125761666Y-141042380D01*
X125571190Y-140328095D01*
X125380714Y-141042380D01*
X125142619Y-140042380D01*
X124809285Y-140137619D02*
X124761666Y-140090000D01*
X124666428Y-140042380D01*
X124428333Y-140042380D01*
X124333095Y-140090000D01*
X124285476Y-140137619D01*
X124237857Y-140232857D01*
X124237857Y-140328095D01*
X124285476Y-140470952D01*
X124856904Y-141042380D01*
X124237857Y-141042380D01*
X123380714Y-140042380D02*
X123571190Y-140042380D01*
X123666428Y-140090000D01*
X123714047Y-140137619D01*
X123809285Y-140280476D01*
X123856904Y-140470952D01*
X123856904Y-140851904D01*
X123809285Y-140947142D01*
X123761666Y-140994761D01*
X123666428Y-141042380D01*
X123475952Y-141042380D01*
X123380714Y-140994761D01*
X123333095Y-140947142D01*
X123285476Y-140851904D01*
X123285476Y-140613809D01*
X123333095Y-140518571D01*
X123380714Y-140470952D01*
X123475952Y-140423333D01*
X123666428Y-140423333D01*
X123761666Y-140470952D01*
X123809285Y-140518571D01*
X123856904Y-140613809D01*
%TO.C,SW25*%
X126904523Y-121944761D02*
X126761666Y-121992380D01*
X126523571Y-121992380D01*
X126428333Y-121944761D01*
X126380714Y-121897142D01*
X126333095Y-121801904D01*
X126333095Y-121706666D01*
X126380714Y-121611428D01*
X126428333Y-121563809D01*
X126523571Y-121516190D01*
X126714047Y-121468571D01*
X126809285Y-121420952D01*
X126856904Y-121373333D01*
X126904523Y-121278095D01*
X126904523Y-121182857D01*
X126856904Y-121087619D01*
X126809285Y-121040000D01*
X126714047Y-120992380D01*
X126475952Y-120992380D01*
X126333095Y-121040000D01*
X125999761Y-120992380D02*
X125761666Y-121992380D01*
X125571190Y-121278095D01*
X125380714Y-121992380D01*
X125142619Y-120992380D01*
X124809285Y-121087619D02*
X124761666Y-121040000D01*
X124666428Y-120992380D01*
X124428333Y-120992380D01*
X124333095Y-121040000D01*
X124285476Y-121087619D01*
X124237857Y-121182857D01*
X124237857Y-121278095D01*
X124285476Y-121420952D01*
X124856904Y-121992380D01*
X124237857Y-121992380D01*
X123333095Y-120992380D02*
X123809285Y-120992380D01*
X123856904Y-121468571D01*
X123809285Y-121420952D01*
X123714047Y-121373333D01*
X123475952Y-121373333D01*
X123380714Y-121420952D01*
X123333095Y-121468571D01*
X123285476Y-121563809D01*
X123285476Y-121801904D01*
X123333095Y-121897142D01*
X123380714Y-121944761D01*
X123475952Y-121992380D01*
X123714047Y-121992380D01*
X123809285Y-121944761D01*
X123856904Y-121897142D01*
%TO.C,SW24*%
X126904523Y-102894761D02*
X126761666Y-102942380D01*
X126523571Y-102942380D01*
X126428333Y-102894761D01*
X126380714Y-102847142D01*
X126333095Y-102751904D01*
X126333095Y-102656666D01*
X126380714Y-102561428D01*
X126428333Y-102513809D01*
X126523571Y-102466190D01*
X126714047Y-102418571D01*
X126809285Y-102370952D01*
X126856904Y-102323333D01*
X126904523Y-102228095D01*
X126904523Y-102132857D01*
X126856904Y-102037619D01*
X126809285Y-101990000D01*
X126714047Y-101942380D01*
X126475952Y-101942380D01*
X126333095Y-101990000D01*
X125999761Y-101942380D02*
X125761666Y-102942380D01*
X125571190Y-102228095D01*
X125380714Y-102942380D01*
X125142619Y-101942380D01*
X124809285Y-102037619D02*
X124761666Y-101990000D01*
X124666428Y-101942380D01*
X124428333Y-101942380D01*
X124333095Y-101990000D01*
X124285476Y-102037619D01*
X124237857Y-102132857D01*
X124237857Y-102228095D01*
X124285476Y-102370952D01*
X124856904Y-102942380D01*
X124237857Y-102942380D01*
X123380714Y-102275714D02*
X123380714Y-102942380D01*
X123618809Y-101894761D02*
X123856904Y-102609047D01*
X123237857Y-102609047D01*
%TO.C,SW23*%
X126904523Y-83844761D02*
X126761666Y-83892380D01*
X126523571Y-83892380D01*
X126428333Y-83844761D01*
X126380714Y-83797142D01*
X126333095Y-83701904D01*
X126333095Y-83606666D01*
X126380714Y-83511428D01*
X126428333Y-83463809D01*
X126523571Y-83416190D01*
X126714047Y-83368571D01*
X126809285Y-83320952D01*
X126856904Y-83273333D01*
X126904523Y-83178095D01*
X126904523Y-83082857D01*
X126856904Y-82987619D01*
X126809285Y-82940000D01*
X126714047Y-82892380D01*
X126475952Y-82892380D01*
X126333095Y-82940000D01*
X125999761Y-82892380D02*
X125761666Y-83892380D01*
X125571190Y-83178095D01*
X125380714Y-83892380D01*
X125142619Y-82892380D01*
X124809285Y-82987619D02*
X124761666Y-82940000D01*
X124666428Y-82892380D01*
X124428333Y-82892380D01*
X124333095Y-82940000D01*
X124285476Y-82987619D01*
X124237857Y-83082857D01*
X124237857Y-83178095D01*
X124285476Y-83320952D01*
X124856904Y-83892380D01*
X124237857Y-83892380D01*
X123904523Y-82892380D02*
X123285476Y-82892380D01*
X123618809Y-83273333D01*
X123475952Y-83273333D01*
X123380714Y-83320952D01*
X123333095Y-83368571D01*
X123285476Y-83463809D01*
X123285476Y-83701904D01*
X123333095Y-83797142D01*
X123380714Y-83844761D01*
X123475952Y-83892380D01*
X123761666Y-83892380D01*
X123856904Y-83844761D01*
X123904523Y-83797142D01*
%TO.C,SW22*%
X126904523Y-55269761D02*
X126761666Y-55317380D01*
X126523571Y-55317380D01*
X126428333Y-55269761D01*
X126380714Y-55222142D01*
X126333095Y-55126904D01*
X126333095Y-55031666D01*
X126380714Y-54936428D01*
X126428333Y-54888809D01*
X126523571Y-54841190D01*
X126714047Y-54793571D01*
X126809285Y-54745952D01*
X126856904Y-54698333D01*
X126904523Y-54603095D01*
X126904523Y-54507857D01*
X126856904Y-54412619D01*
X126809285Y-54365000D01*
X126714047Y-54317380D01*
X126475952Y-54317380D01*
X126333095Y-54365000D01*
X125999761Y-54317380D02*
X125761666Y-55317380D01*
X125571190Y-54603095D01*
X125380714Y-55317380D01*
X125142619Y-54317380D01*
X124809285Y-54412619D02*
X124761666Y-54365000D01*
X124666428Y-54317380D01*
X124428333Y-54317380D01*
X124333095Y-54365000D01*
X124285476Y-54412619D01*
X124237857Y-54507857D01*
X124237857Y-54603095D01*
X124285476Y-54745952D01*
X124856904Y-55317380D01*
X124237857Y-55317380D01*
X123856904Y-54412619D02*
X123809285Y-54365000D01*
X123714047Y-54317380D01*
X123475952Y-54317380D01*
X123380714Y-54365000D01*
X123333095Y-54412619D01*
X123285476Y-54507857D01*
X123285476Y-54603095D01*
X123333095Y-54745952D01*
X123904523Y-55317380D01*
X123285476Y-55317380D01*
%TO.C,SW21*%
X107854523Y-160044761D02*
X107711666Y-160092380D01*
X107473571Y-160092380D01*
X107378333Y-160044761D01*
X107330714Y-159997142D01*
X107283095Y-159901904D01*
X107283095Y-159806666D01*
X107330714Y-159711428D01*
X107378333Y-159663809D01*
X107473571Y-159616190D01*
X107664047Y-159568571D01*
X107759285Y-159520952D01*
X107806904Y-159473333D01*
X107854523Y-159378095D01*
X107854523Y-159282857D01*
X107806904Y-159187619D01*
X107759285Y-159140000D01*
X107664047Y-159092380D01*
X107425952Y-159092380D01*
X107283095Y-159140000D01*
X106949761Y-159092380D02*
X106711666Y-160092380D01*
X106521190Y-159378095D01*
X106330714Y-160092380D01*
X106092619Y-159092380D01*
X105759285Y-159187619D02*
X105711666Y-159140000D01*
X105616428Y-159092380D01*
X105378333Y-159092380D01*
X105283095Y-159140000D01*
X105235476Y-159187619D01*
X105187857Y-159282857D01*
X105187857Y-159378095D01*
X105235476Y-159520952D01*
X105806904Y-160092380D01*
X105187857Y-160092380D01*
X104235476Y-160092380D02*
X104806904Y-160092380D01*
X104521190Y-160092380D02*
X104521190Y-159092380D01*
X104616428Y-159235238D01*
X104711666Y-159330476D01*
X104806904Y-159378095D01*
%TO.C,SW20*%
X107854523Y-140994761D02*
X107711666Y-141042380D01*
X107473571Y-141042380D01*
X107378333Y-140994761D01*
X107330714Y-140947142D01*
X107283095Y-140851904D01*
X107283095Y-140756666D01*
X107330714Y-140661428D01*
X107378333Y-140613809D01*
X107473571Y-140566190D01*
X107664047Y-140518571D01*
X107759285Y-140470952D01*
X107806904Y-140423333D01*
X107854523Y-140328095D01*
X107854523Y-140232857D01*
X107806904Y-140137619D01*
X107759285Y-140090000D01*
X107664047Y-140042380D01*
X107425952Y-140042380D01*
X107283095Y-140090000D01*
X106949761Y-140042380D02*
X106711666Y-141042380D01*
X106521190Y-140328095D01*
X106330714Y-141042380D01*
X106092619Y-140042380D01*
X105759285Y-140137619D02*
X105711666Y-140090000D01*
X105616428Y-140042380D01*
X105378333Y-140042380D01*
X105283095Y-140090000D01*
X105235476Y-140137619D01*
X105187857Y-140232857D01*
X105187857Y-140328095D01*
X105235476Y-140470952D01*
X105806904Y-141042380D01*
X105187857Y-141042380D01*
X104568809Y-140042380D02*
X104473571Y-140042380D01*
X104378333Y-140090000D01*
X104330714Y-140137619D01*
X104283095Y-140232857D01*
X104235476Y-140423333D01*
X104235476Y-140661428D01*
X104283095Y-140851904D01*
X104330714Y-140947142D01*
X104378333Y-140994761D01*
X104473571Y-141042380D01*
X104568809Y-141042380D01*
X104664047Y-140994761D01*
X104711666Y-140947142D01*
X104759285Y-140851904D01*
X104806904Y-140661428D01*
X104806904Y-140423333D01*
X104759285Y-140232857D01*
X104711666Y-140137619D01*
X104664047Y-140090000D01*
X104568809Y-140042380D01*
%TO.C,SW19*%
X107854523Y-121944761D02*
X107711666Y-121992380D01*
X107473571Y-121992380D01*
X107378333Y-121944761D01*
X107330714Y-121897142D01*
X107283095Y-121801904D01*
X107283095Y-121706666D01*
X107330714Y-121611428D01*
X107378333Y-121563809D01*
X107473571Y-121516190D01*
X107664047Y-121468571D01*
X107759285Y-121420952D01*
X107806904Y-121373333D01*
X107854523Y-121278095D01*
X107854523Y-121182857D01*
X107806904Y-121087619D01*
X107759285Y-121040000D01*
X107664047Y-120992380D01*
X107425952Y-120992380D01*
X107283095Y-121040000D01*
X106949761Y-120992380D02*
X106711666Y-121992380D01*
X106521190Y-121278095D01*
X106330714Y-121992380D01*
X106092619Y-120992380D01*
X105187857Y-121992380D02*
X105759285Y-121992380D01*
X105473571Y-121992380D02*
X105473571Y-120992380D01*
X105568809Y-121135238D01*
X105664047Y-121230476D01*
X105759285Y-121278095D01*
X104711666Y-121992380D02*
X104521190Y-121992380D01*
X104425952Y-121944761D01*
X104378333Y-121897142D01*
X104283095Y-121754285D01*
X104235476Y-121563809D01*
X104235476Y-121182857D01*
X104283095Y-121087619D01*
X104330714Y-121040000D01*
X104425952Y-120992380D01*
X104616428Y-120992380D01*
X104711666Y-121040000D01*
X104759285Y-121087619D01*
X104806904Y-121182857D01*
X104806904Y-121420952D01*
X104759285Y-121516190D01*
X104711666Y-121563809D01*
X104616428Y-121611428D01*
X104425952Y-121611428D01*
X104330714Y-121563809D01*
X104283095Y-121516190D01*
X104235476Y-121420952D01*
%TO.C,SW18*%
X107854523Y-102894761D02*
X107711666Y-102942380D01*
X107473571Y-102942380D01*
X107378333Y-102894761D01*
X107330714Y-102847142D01*
X107283095Y-102751904D01*
X107283095Y-102656666D01*
X107330714Y-102561428D01*
X107378333Y-102513809D01*
X107473571Y-102466190D01*
X107664047Y-102418571D01*
X107759285Y-102370952D01*
X107806904Y-102323333D01*
X107854523Y-102228095D01*
X107854523Y-102132857D01*
X107806904Y-102037619D01*
X107759285Y-101990000D01*
X107664047Y-101942380D01*
X107425952Y-101942380D01*
X107283095Y-101990000D01*
X106949761Y-101942380D02*
X106711666Y-102942380D01*
X106521190Y-102228095D01*
X106330714Y-102942380D01*
X106092619Y-101942380D01*
X105187857Y-102942380D02*
X105759285Y-102942380D01*
X105473571Y-102942380D02*
X105473571Y-101942380D01*
X105568809Y-102085238D01*
X105664047Y-102180476D01*
X105759285Y-102228095D01*
X104616428Y-102370952D02*
X104711666Y-102323333D01*
X104759285Y-102275714D01*
X104806904Y-102180476D01*
X104806904Y-102132857D01*
X104759285Y-102037619D01*
X104711666Y-101990000D01*
X104616428Y-101942380D01*
X104425952Y-101942380D01*
X104330714Y-101990000D01*
X104283095Y-102037619D01*
X104235476Y-102132857D01*
X104235476Y-102180476D01*
X104283095Y-102275714D01*
X104330714Y-102323333D01*
X104425952Y-102370952D01*
X104616428Y-102370952D01*
X104711666Y-102418571D01*
X104759285Y-102466190D01*
X104806904Y-102561428D01*
X104806904Y-102751904D01*
X104759285Y-102847142D01*
X104711666Y-102894761D01*
X104616428Y-102942380D01*
X104425952Y-102942380D01*
X104330714Y-102894761D01*
X104283095Y-102847142D01*
X104235476Y-102751904D01*
X104235476Y-102561428D01*
X104283095Y-102466190D01*
X104330714Y-102418571D01*
X104425952Y-102370952D01*
%TO.C,SW17*%
X107854523Y-83844761D02*
X107711666Y-83892380D01*
X107473571Y-83892380D01*
X107378333Y-83844761D01*
X107330714Y-83797142D01*
X107283095Y-83701904D01*
X107283095Y-83606666D01*
X107330714Y-83511428D01*
X107378333Y-83463809D01*
X107473571Y-83416190D01*
X107664047Y-83368571D01*
X107759285Y-83320952D01*
X107806904Y-83273333D01*
X107854523Y-83178095D01*
X107854523Y-83082857D01*
X107806904Y-82987619D01*
X107759285Y-82940000D01*
X107664047Y-82892380D01*
X107425952Y-82892380D01*
X107283095Y-82940000D01*
X106949761Y-82892380D02*
X106711666Y-83892380D01*
X106521190Y-83178095D01*
X106330714Y-83892380D01*
X106092619Y-82892380D01*
X105187857Y-83892380D02*
X105759285Y-83892380D01*
X105473571Y-83892380D02*
X105473571Y-82892380D01*
X105568809Y-83035238D01*
X105664047Y-83130476D01*
X105759285Y-83178095D01*
X104854523Y-82892380D02*
X104187857Y-82892380D01*
X104616428Y-83892380D01*
%TO.C,SW16*%
X107854523Y-55269761D02*
X107711666Y-55317380D01*
X107473571Y-55317380D01*
X107378333Y-55269761D01*
X107330714Y-55222142D01*
X107283095Y-55126904D01*
X107283095Y-55031666D01*
X107330714Y-54936428D01*
X107378333Y-54888809D01*
X107473571Y-54841190D01*
X107664047Y-54793571D01*
X107759285Y-54745952D01*
X107806904Y-54698333D01*
X107854523Y-54603095D01*
X107854523Y-54507857D01*
X107806904Y-54412619D01*
X107759285Y-54365000D01*
X107664047Y-54317380D01*
X107425952Y-54317380D01*
X107283095Y-54365000D01*
X106949761Y-54317380D02*
X106711666Y-55317380D01*
X106521190Y-54603095D01*
X106330714Y-55317380D01*
X106092619Y-54317380D01*
X105187857Y-55317380D02*
X105759285Y-55317380D01*
X105473571Y-55317380D02*
X105473571Y-54317380D01*
X105568809Y-54460238D01*
X105664047Y-54555476D01*
X105759285Y-54603095D01*
X104330714Y-54317380D02*
X104521190Y-54317380D01*
X104616428Y-54365000D01*
X104664047Y-54412619D01*
X104759285Y-54555476D01*
X104806904Y-54745952D01*
X104806904Y-55126904D01*
X104759285Y-55222142D01*
X104711666Y-55269761D01*
X104616428Y-55317380D01*
X104425952Y-55317380D01*
X104330714Y-55269761D01*
X104283095Y-55222142D01*
X104235476Y-55126904D01*
X104235476Y-54888809D01*
X104283095Y-54793571D01*
X104330714Y-54745952D01*
X104425952Y-54698333D01*
X104616428Y-54698333D01*
X104711666Y-54745952D01*
X104759285Y-54793571D01*
X104806904Y-54888809D01*
%TO.C,SW15*%
X88804523Y-160044761D02*
X88661666Y-160092380D01*
X88423571Y-160092380D01*
X88328333Y-160044761D01*
X88280714Y-159997142D01*
X88233095Y-159901904D01*
X88233095Y-159806666D01*
X88280714Y-159711428D01*
X88328333Y-159663809D01*
X88423571Y-159616190D01*
X88614047Y-159568571D01*
X88709285Y-159520952D01*
X88756904Y-159473333D01*
X88804523Y-159378095D01*
X88804523Y-159282857D01*
X88756904Y-159187619D01*
X88709285Y-159140000D01*
X88614047Y-159092380D01*
X88375952Y-159092380D01*
X88233095Y-159140000D01*
X87899761Y-159092380D02*
X87661666Y-160092380D01*
X87471190Y-159378095D01*
X87280714Y-160092380D01*
X87042619Y-159092380D01*
X86137857Y-160092380D02*
X86709285Y-160092380D01*
X86423571Y-160092380D02*
X86423571Y-159092380D01*
X86518809Y-159235238D01*
X86614047Y-159330476D01*
X86709285Y-159378095D01*
X85233095Y-159092380D02*
X85709285Y-159092380D01*
X85756904Y-159568571D01*
X85709285Y-159520952D01*
X85614047Y-159473333D01*
X85375952Y-159473333D01*
X85280714Y-159520952D01*
X85233095Y-159568571D01*
X85185476Y-159663809D01*
X85185476Y-159901904D01*
X85233095Y-159997142D01*
X85280714Y-160044761D01*
X85375952Y-160092380D01*
X85614047Y-160092380D01*
X85709285Y-160044761D01*
X85756904Y-159997142D01*
%TO.C,SW14*%
X88804523Y-140994761D02*
X88661666Y-141042380D01*
X88423571Y-141042380D01*
X88328333Y-140994761D01*
X88280714Y-140947142D01*
X88233095Y-140851904D01*
X88233095Y-140756666D01*
X88280714Y-140661428D01*
X88328333Y-140613809D01*
X88423571Y-140566190D01*
X88614047Y-140518571D01*
X88709285Y-140470952D01*
X88756904Y-140423333D01*
X88804523Y-140328095D01*
X88804523Y-140232857D01*
X88756904Y-140137619D01*
X88709285Y-140090000D01*
X88614047Y-140042380D01*
X88375952Y-140042380D01*
X88233095Y-140090000D01*
X87899761Y-140042380D02*
X87661666Y-141042380D01*
X87471190Y-140328095D01*
X87280714Y-141042380D01*
X87042619Y-140042380D01*
X86137857Y-141042380D02*
X86709285Y-141042380D01*
X86423571Y-141042380D02*
X86423571Y-140042380D01*
X86518809Y-140185238D01*
X86614047Y-140280476D01*
X86709285Y-140328095D01*
X85280714Y-140375714D02*
X85280714Y-141042380D01*
X85518809Y-139994761D02*
X85756904Y-140709047D01*
X85137857Y-140709047D01*
%TO.C,SW13*%
X88804523Y-121944761D02*
X88661666Y-121992380D01*
X88423571Y-121992380D01*
X88328333Y-121944761D01*
X88280714Y-121897142D01*
X88233095Y-121801904D01*
X88233095Y-121706666D01*
X88280714Y-121611428D01*
X88328333Y-121563809D01*
X88423571Y-121516190D01*
X88614047Y-121468571D01*
X88709285Y-121420952D01*
X88756904Y-121373333D01*
X88804523Y-121278095D01*
X88804523Y-121182857D01*
X88756904Y-121087619D01*
X88709285Y-121040000D01*
X88614047Y-120992380D01*
X88375952Y-120992380D01*
X88233095Y-121040000D01*
X87899761Y-120992380D02*
X87661666Y-121992380D01*
X87471190Y-121278095D01*
X87280714Y-121992380D01*
X87042619Y-120992380D01*
X86137857Y-121992380D02*
X86709285Y-121992380D01*
X86423571Y-121992380D02*
X86423571Y-120992380D01*
X86518809Y-121135238D01*
X86614047Y-121230476D01*
X86709285Y-121278095D01*
X85804523Y-120992380D02*
X85185476Y-120992380D01*
X85518809Y-121373333D01*
X85375952Y-121373333D01*
X85280714Y-121420952D01*
X85233095Y-121468571D01*
X85185476Y-121563809D01*
X85185476Y-121801904D01*
X85233095Y-121897142D01*
X85280714Y-121944761D01*
X85375952Y-121992380D01*
X85661666Y-121992380D01*
X85756904Y-121944761D01*
X85804523Y-121897142D01*
%TO.C,SW12*%
X88804523Y-102894761D02*
X88661666Y-102942380D01*
X88423571Y-102942380D01*
X88328333Y-102894761D01*
X88280714Y-102847142D01*
X88233095Y-102751904D01*
X88233095Y-102656666D01*
X88280714Y-102561428D01*
X88328333Y-102513809D01*
X88423571Y-102466190D01*
X88614047Y-102418571D01*
X88709285Y-102370952D01*
X88756904Y-102323333D01*
X88804523Y-102228095D01*
X88804523Y-102132857D01*
X88756904Y-102037619D01*
X88709285Y-101990000D01*
X88614047Y-101942380D01*
X88375952Y-101942380D01*
X88233095Y-101990000D01*
X87899761Y-101942380D02*
X87661666Y-102942380D01*
X87471190Y-102228095D01*
X87280714Y-102942380D01*
X87042619Y-101942380D01*
X86137857Y-102942380D02*
X86709285Y-102942380D01*
X86423571Y-102942380D02*
X86423571Y-101942380D01*
X86518809Y-102085238D01*
X86614047Y-102180476D01*
X86709285Y-102228095D01*
X85756904Y-102037619D02*
X85709285Y-101990000D01*
X85614047Y-101942380D01*
X85375952Y-101942380D01*
X85280714Y-101990000D01*
X85233095Y-102037619D01*
X85185476Y-102132857D01*
X85185476Y-102228095D01*
X85233095Y-102370952D01*
X85804523Y-102942380D01*
X85185476Y-102942380D01*
%TO.C,SW11*%
X88804523Y-83844761D02*
X88661666Y-83892380D01*
X88423571Y-83892380D01*
X88328333Y-83844761D01*
X88280714Y-83797142D01*
X88233095Y-83701904D01*
X88233095Y-83606666D01*
X88280714Y-83511428D01*
X88328333Y-83463809D01*
X88423571Y-83416190D01*
X88614047Y-83368571D01*
X88709285Y-83320952D01*
X88756904Y-83273333D01*
X88804523Y-83178095D01*
X88804523Y-83082857D01*
X88756904Y-82987619D01*
X88709285Y-82940000D01*
X88614047Y-82892380D01*
X88375952Y-82892380D01*
X88233095Y-82940000D01*
X87899761Y-82892380D02*
X87661666Y-83892380D01*
X87471190Y-83178095D01*
X87280714Y-83892380D01*
X87042619Y-82892380D01*
X86137857Y-83892380D02*
X86709285Y-83892380D01*
X86423571Y-83892380D02*
X86423571Y-82892380D01*
X86518809Y-83035238D01*
X86614047Y-83130476D01*
X86709285Y-83178095D01*
X85185476Y-83892380D02*
X85756904Y-83892380D01*
X85471190Y-83892380D02*
X85471190Y-82892380D01*
X85566428Y-83035238D01*
X85661666Y-83130476D01*
X85756904Y-83178095D01*
%TO.C,SW9*%
X69278333Y-160044761D02*
X69135476Y-160092380D01*
X68897380Y-160092380D01*
X68802142Y-160044761D01*
X68754523Y-159997142D01*
X68706904Y-159901904D01*
X68706904Y-159806666D01*
X68754523Y-159711428D01*
X68802142Y-159663809D01*
X68897380Y-159616190D01*
X69087857Y-159568571D01*
X69183095Y-159520952D01*
X69230714Y-159473333D01*
X69278333Y-159378095D01*
X69278333Y-159282857D01*
X69230714Y-159187619D01*
X69183095Y-159140000D01*
X69087857Y-159092380D01*
X68849761Y-159092380D01*
X68706904Y-159140000D01*
X68373571Y-159092380D02*
X68135476Y-160092380D01*
X67945000Y-159378095D01*
X67754523Y-160092380D01*
X67516428Y-159092380D01*
X67087857Y-160092380D02*
X66897380Y-160092380D01*
X66802142Y-160044761D01*
X66754523Y-159997142D01*
X66659285Y-159854285D01*
X66611666Y-159663809D01*
X66611666Y-159282857D01*
X66659285Y-159187619D01*
X66706904Y-159140000D01*
X66802142Y-159092380D01*
X66992619Y-159092380D01*
X67087857Y-159140000D01*
X67135476Y-159187619D01*
X67183095Y-159282857D01*
X67183095Y-159520952D01*
X67135476Y-159616190D01*
X67087857Y-159663809D01*
X66992619Y-159711428D01*
X66802142Y-159711428D01*
X66706904Y-159663809D01*
X66659285Y-159616190D01*
X66611666Y-159520952D01*
%TO.C,SW8*%
X69278333Y-83844761D02*
X69135476Y-83892380D01*
X68897380Y-83892380D01*
X68802142Y-83844761D01*
X68754523Y-83797142D01*
X68706904Y-83701904D01*
X68706904Y-83606666D01*
X68754523Y-83511428D01*
X68802142Y-83463809D01*
X68897380Y-83416190D01*
X69087857Y-83368571D01*
X69183095Y-83320952D01*
X69230714Y-83273333D01*
X69278333Y-83178095D01*
X69278333Y-83082857D01*
X69230714Y-82987619D01*
X69183095Y-82940000D01*
X69087857Y-82892380D01*
X68849761Y-82892380D01*
X68706904Y-82940000D01*
X68373571Y-82892380D02*
X68135476Y-83892380D01*
X67945000Y-83178095D01*
X67754523Y-83892380D01*
X67516428Y-82892380D01*
X66992619Y-83320952D02*
X67087857Y-83273333D01*
X67135476Y-83225714D01*
X67183095Y-83130476D01*
X67183095Y-83082857D01*
X67135476Y-82987619D01*
X67087857Y-82940000D01*
X66992619Y-82892380D01*
X66802142Y-82892380D01*
X66706904Y-82940000D01*
X66659285Y-82987619D01*
X66611666Y-83082857D01*
X66611666Y-83130476D01*
X66659285Y-83225714D01*
X66706904Y-83273333D01*
X66802142Y-83320952D01*
X66992619Y-83320952D01*
X67087857Y-83368571D01*
X67135476Y-83416190D01*
X67183095Y-83511428D01*
X67183095Y-83701904D01*
X67135476Y-83797142D01*
X67087857Y-83844761D01*
X66992619Y-83892380D01*
X66802142Y-83892380D01*
X66706904Y-83844761D01*
X66659285Y-83797142D01*
X66611666Y-83701904D01*
X66611666Y-83511428D01*
X66659285Y-83416190D01*
X66706904Y-83368571D01*
X66802142Y-83320952D01*
%TO.C,SW6*%
X50228333Y-160044761D02*
X50085476Y-160092380D01*
X49847380Y-160092380D01*
X49752142Y-160044761D01*
X49704523Y-159997142D01*
X49656904Y-159901904D01*
X49656904Y-159806666D01*
X49704523Y-159711428D01*
X49752142Y-159663809D01*
X49847380Y-159616190D01*
X50037857Y-159568571D01*
X50133095Y-159520952D01*
X50180714Y-159473333D01*
X50228333Y-159378095D01*
X50228333Y-159282857D01*
X50180714Y-159187619D01*
X50133095Y-159140000D01*
X50037857Y-159092380D01*
X49799761Y-159092380D01*
X49656904Y-159140000D01*
X49323571Y-159092380D02*
X49085476Y-160092380D01*
X48895000Y-159378095D01*
X48704523Y-160092380D01*
X48466428Y-159092380D01*
X47656904Y-159092380D02*
X47847380Y-159092380D01*
X47942619Y-159140000D01*
X47990238Y-159187619D01*
X48085476Y-159330476D01*
X48133095Y-159520952D01*
X48133095Y-159901904D01*
X48085476Y-159997142D01*
X48037857Y-160044761D01*
X47942619Y-160092380D01*
X47752142Y-160092380D01*
X47656904Y-160044761D01*
X47609285Y-159997142D01*
X47561666Y-159901904D01*
X47561666Y-159663809D01*
X47609285Y-159568571D01*
X47656904Y-159520952D01*
X47752142Y-159473333D01*
X47942619Y-159473333D01*
X48037857Y-159520952D01*
X48085476Y-159568571D01*
X48133095Y-159663809D01*
%TO.C,SW5*%
X59753333Y-152042761D02*
X59610476Y-152090380D01*
X59372380Y-152090380D01*
X59277142Y-152042761D01*
X59229523Y-151995142D01*
X59181904Y-151899904D01*
X59181904Y-151804666D01*
X59229523Y-151709428D01*
X59277142Y-151661809D01*
X59372380Y-151614190D01*
X59562857Y-151566571D01*
X59658095Y-151518952D01*
X59705714Y-151471333D01*
X59753333Y-151376095D01*
X59753333Y-151280857D01*
X59705714Y-151185619D01*
X59658095Y-151138000D01*
X59562857Y-151090380D01*
X59324761Y-151090380D01*
X59181904Y-151138000D01*
X58848571Y-151090380D02*
X58610476Y-152090380D01*
X58420000Y-151376095D01*
X58229523Y-152090380D01*
X57991428Y-151090380D01*
X57134285Y-151090380D02*
X57610476Y-151090380D01*
X57658095Y-151566571D01*
X57610476Y-151518952D01*
X57515238Y-151471333D01*
X57277142Y-151471333D01*
X57181904Y-151518952D01*
X57134285Y-151566571D01*
X57086666Y-151661809D01*
X57086666Y-151899904D01*
X57134285Y-151995142D01*
X57181904Y-152042761D01*
X57277142Y-152090380D01*
X57515238Y-152090380D01*
X57610476Y-152042761D01*
X57658095Y-151995142D01*
%TO.C,SW3*%
X59753333Y-113942761D02*
X59610476Y-113990380D01*
X59372380Y-113990380D01*
X59277142Y-113942761D01*
X59229523Y-113895142D01*
X59181904Y-113799904D01*
X59181904Y-113704666D01*
X59229523Y-113609428D01*
X59277142Y-113561809D01*
X59372380Y-113514190D01*
X59562857Y-113466571D01*
X59658095Y-113418952D01*
X59705714Y-113371333D01*
X59753333Y-113276095D01*
X59753333Y-113180857D01*
X59705714Y-113085619D01*
X59658095Y-113038000D01*
X59562857Y-112990380D01*
X59324761Y-112990380D01*
X59181904Y-113038000D01*
X58848571Y-112990380D02*
X58610476Y-113990380D01*
X58420000Y-113276095D01*
X58229523Y-113990380D01*
X57991428Y-112990380D01*
X57705714Y-112990380D02*
X57086666Y-112990380D01*
X57420000Y-113371333D01*
X57277142Y-113371333D01*
X57181904Y-113418952D01*
X57134285Y-113466571D01*
X57086666Y-113561809D01*
X57086666Y-113799904D01*
X57134285Y-113895142D01*
X57181904Y-113942761D01*
X57277142Y-113990380D01*
X57562857Y-113990380D01*
X57658095Y-113942761D01*
X57705714Y-113895142D01*
%TO.C,SW2*%
X50228333Y-83844761D02*
X50085476Y-83892380D01*
X49847380Y-83892380D01*
X49752142Y-83844761D01*
X49704523Y-83797142D01*
X49656904Y-83701904D01*
X49656904Y-83606666D01*
X49704523Y-83511428D01*
X49752142Y-83463809D01*
X49847380Y-83416190D01*
X50037857Y-83368571D01*
X50133095Y-83320952D01*
X50180714Y-83273333D01*
X50228333Y-83178095D01*
X50228333Y-83082857D01*
X50180714Y-82987619D01*
X50133095Y-82940000D01*
X50037857Y-82892380D01*
X49799761Y-82892380D01*
X49656904Y-82940000D01*
X49323571Y-82892380D02*
X49085476Y-83892380D01*
X48895000Y-83178095D01*
X48704523Y-83892380D01*
X48466428Y-82892380D01*
X48133095Y-82987619D02*
X48085476Y-82940000D01*
X47990238Y-82892380D01*
X47752142Y-82892380D01*
X47656904Y-82940000D01*
X47609285Y-82987619D01*
X47561666Y-83082857D01*
X47561666Y-83178095D01*
X47609285Y-83320952D01*
X48180714Y-83892380D01*
X47561666Y-83892380D01*
%TO.C,SW1*%
X50228333Y-55269761D02*
X50085476Y-55317380D01*
X49847380Y-55317380D01*
X49752142Y-55269761D01*
X49704523Y-55222142D01*
X49656904Y-55126904D01*
X49656904Y-55031666D01*
X49704523Y-54936428D01*
X49752142Y-54888809D01*
X49847380Y-54841190D01*
X50037857Y-54793571D01*
X50133095Y-54745952D01*
X50180714Y-54698333D01*
X50228333Y-54603095D01*
X50228333Y-54507857D01*
X50180714Y-54412619D01*
X50133095Y-54365000D01*
X50037857Y-54317380D01*
X49799761Y-54317380D01*
X49656904Y-54365000D01*
X49323571Y-54317380D02*
X49085476Y-55317380D01*
X48895000Y-54603095D01*
X48704523Y-55317380D01*
X48466428Y-54317380D01*
X47561666Y-55317380D02*
X48133095Y-55317380D01*
X47847380Y-55317380D02*
X47847380Y-54317380D01*
X47942619Y-54460238D01*
X48037857Y-54555476D01*
X48133095Y-54603095D01*
%TO.C,D42*%
X189587380Y-149915714D02*
X188587380Y-149915714D01*
X188587380Y-150153809D01*
X188635000Y-150296666D01*
X188730238Y-150391904D01*
X188825476Y-150439523D01*
X189015952Y-150487142D01*
X189158809Y-150487142D01*
X189349285Y-150439523D01*
X189444523Y-150391904D01*
X189539761Y-150296666D01*
X189587380Y-150153809D01*
X189587380Y-149915714D01*
X188920714Y-151344285D02*
X189587380Y-151344285D01*
X188539761Y-151106190D02*
X189254047Y-150868095D01*
X189254047Y-151487142D01*
X188682619Y-151820476D02*
X188635000Y-151868095D01*
X188587380Y-151963333D01*
X188587380Y-152201428D01*
X188635000Y-152296666D01*
X188682619Y-152344285D01*
X188777857Y-152391904D01*
X188873095Y-152391904D01*
X189015952Y-152344285D01*
X189587380Y-151772857D01*
X189587380Y-152391904D01*
%TO.C,D41*%
X189587380Y-111815714D02*
X188587380Y-111815714D01*
X188587380Y-112053809D01*
X188635000Y-112196666D01*
X188730238Y-112291904D01*
X188825476Y-112339523D01*
X189015952Y-112387142D01*
X189158809Y-112387142D01*
X189349285Y-112339523D01*
X189444523Y-112291904D01*
X189539761Y-112196666D01*
X189587380Y-112053809D01*
X189587380Y-111815714D01*
X188920714Y-113244285D02*
X189587380Y-113244285D01*
X188539761Y-113006190D02*
X189254047Y-112768095D01*
X189254047Y-113387142D01*
X189587380Y-114291904D02*
X189587380Y-113720476D01*
X189587380Y-114006190D02*
X188587380Y-114006190D01*
X188730238Y-113910952D01*
X188825476Y-113815714D01*
X188873095Y-113720476D01*
%TO.C,D40*%
X192952380Y-92130714D02*
X191952380Y-92130714D01*
X191952380Y-92368809D01*
X192000000Y-92511666D01*
X192095238Y-92606904D01*
X192190476Y-92654523D01*
X192380952Y-92702142D01*
X192523809Y-92702142D01*
X192714285Y-92654523D01*
X192809523Y-92606904D01*
X192904761Y-92511666D01*
X192952380Y-92368809D01*
X192952380Y-92130714D01*
X192285714Y-93559285D02*
X192952380Y-93559285D01*
X191904761Y-93321190D02*
X192619047Y-93083095D01*
X192619047Y-93702142D01*
X191952380Y-94273571D02*
X191952380Y-94368809D01*
X192000000Y-94464047D01*
X192047619Y-94511666D01*
X192142857Y-94559285D01*
X192333333Y-94606904D01*
X192571428Y-94606904D01*
X192761904Y-94559285D01*
X192857142Y-94511666D01*
X192904761Y-94464047D01*
X192952380Y-94368809D01*
X192952380Y-94273571D01*
X192904761Y-94178333D01*
X192857142Y-94130714D01*
X192761904Y-94083095D01*
X192571428Y-94035476D01*
X192333333Y-94035476D01*
X192142857Y-94083095D01*
X192047619Y-94130714D01*
X192000000Y-94178333D01*
X191952380Y-94273571D01*
%TO.C,D39*%
X192952380Y-63555714D02*
X191952380Y-63555714D01*
X191952380Y-63793809D01*
X192000000Y-63936666D01*
X192095238Y-64031904D01*
X192190476Y-64079523D01*
X192380952Y-64127142D01*
X192523809Y-64127142D01*
X192714285Y-64079523D01*
X192809523Y-64031904D01*
X192904761Y-63936666D01*
X192952380Y-63793809D01*
X192952380Y-63555714D01*
X191952380Y-64460476D02*
X191952380Y-65079523D01*
X192333333Y-64746190D01*
X192333333Y-64889047D01*
X192380952Y-64984285D01*
X192428571Y-65031904D01*
X192523809Y-65079523D01*
X192761904Y-65079523D01*
X192857142Y-65031904D01*
X192904761Y-64984285D01*
X192952380Y-64889047D01*
X192952380Y-64603333D01*
X192904761Y-64508095D01*
X192857142Y-64460476D01*
X192952380Y-65555714D02*
X192952380Y-65746190D01*
X192904761Y-65841428D01*
X192857142Y-65889047D01*
X192714285Y-65984285D01*
X192523809Y-66031904D01*
X192142857Y-66031904D01*
X192047619Y-65984285D01*
X192000000Y-65936666D01*
X191952380Y-65841428D01*
X191952380Y-65650952D01*
X192000000Y-65555714D01*
X192047619Y-65508095D01*
X192142857Y-65460476D01*
X192380952Y-65460476D01*
X192476190Y-65508095D01*
X192523809Y-65555714D01*
X192571428Y-65650952D01*
X192571428Y-65841428D01*
X192523809Y-65936666D01*
X192476190Y-65984285D01*
X192380952Y-66031904D01*
%TO.C,D38*%
X174537380Y-162615714D02*
X173537380Y-162615714D01*
X173537380Y-162853809D01*
X173585000Y-162996666D01*
X173680238Y-163091904D01*
X173775476Y-163139523D01*
X173965952Y-163187142D01*
X174108809Y-163187142D01*
X174299285Y-163139523D01*
X174394523Y-163091904D01*
X174489761Y-162996666D01*
X174537380Y-162853809D01*
X174537380Y-162615714D01*
X173537380Y-163520476D02*
X173537380Y-164139523D01*
X173918333Y-163806190D01*
X173918333Y-163949047D01*
X173965952Y-164044285D01*
X174013571Y-164091904D01*
X174108809Y-164139523D01*
X174346904Y-164139523D01*
X174442142Y-164091904D01*
X174489761Y-164044285D01*
X174537380Y-163949047D01*
X174537380Y-163663333D01*
X174489761Y-163568095D01*
X174442142Y-163520476D01*
X173965952Y-164710952D02*
X173918333Y-164615714D01*
X173870714Y-164568095D01*
X173775476Y-164520476D01*
X173727857Y-164520476D01*
X173632619Y-164568095D01*
X173585000Y-164615714D01*
X173537380Y-164710952D01*
X173537380Y-164901428D01*
X173585000Y-164996666D01*
X173632619Y-165044285D01*
X173727857Y-165091904D01*
X173775476Y-165091904D01*
X173870714Y-165044285D01*
X173918333Y-164996666D01*
X173965952Y-164901428D01*
X173965952Y-164710952D01*
X174013571Y-164615714D01*
X174061190Y-164568095D01*
X174156428Y-164520476D01*
X174346904Y-164520476D01*
X174442142Y-164568095D01*
X174489761Y-164615714D01*
X174537380Y-164710952D01*
X174537380Y-164901428D01*
X174489761Y-164996666D01*
X174442142Y-165044285D01*
X174346904Y-165091904D01*
X174156428Y-165091904D01*
X174061190Y-165044285D01*
X174013571Y-164996666D01*
X173965952Y-164901428D01*
%TO.C,D37*%
X173902380Y-149280714D02*
X172902380Y-149280714D01*
X172902380Y-149518809D01*
X172950000Y-149661666D01*
X173045238Y-149756904D01*
X173140476Y-149804523D01*
X173330952Y-149852142D01*
X173473809Y-149852142D01*
X173664285Y-149804523D01*
X173759523Y-149756904D01*
X173854761Y-149661666D01*
X173902380Y-149518809D01*
X173902380Y-149280714D01*
X172902380Y-150185476D02*
X172902380Y-150804523D01*
X173283333Y-150471190D01*
X173283333Y-150614047D01*
X173330952Y-150709285D01*
X173378571Y-150756904D01*
X173473809Y-150804523D01*
X173711904Y-150804523D01*
X173807142Y-150756904D01*
X173854761Y-150709285D01*
X173902380Y-150614047D01*
X173902380Y-150328333D01*
X173854761Y-150233095D01*
X173807142Y-150185476D01*
X172902380Y-151137857D02*
X172902380Y-151804523D01*
X173902380Y-151375952D01*
%TO.C,D36*%
X175172380Y-125150714D02*
X174172380Y-125150714D01*
X174172380Y-125388809D01*
X174220000Y-125531666D01*
X174315238Y-125626904D01*
X174410476Y-125674523D01*
X174600952Y-125722142D01*
X174743809Y-125722142D01*
X174934285Y-125674523D01*
X175029523Y-125626904D01*
X175124761Y-125531666D01*
X175172380Y-125388809D01*
X175172380Y-125150714D01*
X174172380Y-126055476D02*
X174172380Y-126674523D01*
X174553333Y-126341190D01*
X174553333Y-126484047D01*
X174600952Y-126579285D01*
X174648571Y-126626904D01*
X174743809Y-126674523D01*
X174981904Y-126674523D01*
X175077142Y-126626904D01*
X175124761Y-126579285D01*
X175172380Y-126484047D01*
X175172380Y-126198333D01*
X175124761Y-126103095D01*
X175077142Y-126055476D01*
X174172380Y-127531666D02*
X174172380Y-127341190D01*
X174220000Y-127245952D01*
X174267619Y-127198333D01*
X174410476Y-127103095D01*
X174600952Y-127055476D01*
X174981904Y-127055476D01*
X175077142Y-127103095D01*
X175124761Y-127150714D01*
X175172380Y-127245952D01*
X175172380Y-127436428D01*
X175124761Y-127531666D01*
X175077142Y-127579285D01*
X174981904Y-127626904D01*
X174743809Y-127626904D01*
X174648571Y-127579285D01*
X174600952Y-127531666D01*
X174553333Y-127436428D01*
X174553333Y-127245952D01*
X174600952Y-127150714D01*
X174648571Y-127103095D01*
X174743809Y-127055476D01*
%TO.C,D35*%
X173902380Y-112450714D02*
X172902380Y-112450714D01*
X172902380Y-112688809D01*
X172950000Y-112831666D01*
X173045238Y-112926904D01*
X173140476Y-112974523D01*
X173330952Y-113022142D01*
X173473809Y-113022142D01*
X173664285Y-112974523D01*
X173759523Y-112926904D01*
X173854761Y-112831666D01*
X173902380Y-112688809D01*
X173902380Y-112450714D01*
X172902380Y-113355476D02*
X172902380Y-113974523D01*
X173283333Y-113641190D01*
X173283333Y-113784047D01*
X173330952Y-113879285D01*
X173378571Y-113926904D01*
X173473809Y-113974523D01*
X173711904Y-113974523D01*
X173807142Y-113926904D01*
X173854761Y-113879285D01*
X173902380Y-113784047D01*
X173902380Y-113498333D01*
X173854761Y-113403095D01*
X173807142Y-113355476D01*
X172902380Y-114879285D02*
X172902380Y-114403095D01*
X173378571Y-114355476D01*
X173330952Y-114403095D01*
X173283333Y-114498333D01*
X173283333Y-114736428D01*
X173330952Y-114831666D01*
X173378571Y-114879285D01*
X173473809Y-114926904D01*
X173711904Y-114926904D01*
X173807142Y-114879285D01*
X173854761Y-114831666D01*
X173902380Y-114736428D01*
X173902380Y-114498333D01*
X173854761Y-114403095D01*
X173807142Y-114355476D01*
%TO.C,D34*%
X173902380Y-92130714D02*
X172902380Y-92130714D01*
X172902380Y-92368809D01*
X172950000Y-92511666D01*
X173045238Y-92606904D01*
X173140476Y-92654523D01*
X173330952Y-92702142D01*
X173473809Y-92702142D01*
X173664285Y-92654523D01*
X173759523Y-92606904D01*
X173854761Y-92511666D01*
X173902380Y-92368809D01*
X173902380Y-92130714D01*
X172902380Y-93035476D02*
X172902380Y-93654523D01*
X173283333Y-93321190D01*
X173283333Y-93464047D01*
X173330952Y-93559285D01*
X173378571Y-93606904D01*
X173473809Y-93654523D01*
X173711904Y-93654523D01*
X173807142Y-93606904D01*
X173854761Y-93559285D01*
X173902380Y-93464047D01*
X173902380Y-93178333D01*
X173854761Y-93083095D01*
X173807142Y-93035476D01*
X173235714Y-94511666D02*
X173902380Y-94511666D01*
X172854761Y-94273571D02*
X173569047Y-94035476D01*
X173569047Y-94654523D01*
%TO.C,D33*%
X173902380Y-63555714D02*
X172902380Y-63555714D01*
X172902380Y-63793809D01*
X172950000Y-63936666D01*
X173045238Y-64031904D01*
X173140476Y-64079523D01*
X173330952Y-64127142D01*
X173473809Y-64127142D01*
X173664285Y-64079523D01*
X173759523Y-64031904D01*
X173854761Y-63936666D01*
X173902380Y-63793809D01*
X173902380Y-63555714D01*
X172902380Y-64460476D02*
X172902380Y-65079523D01*
X173283333Y-64746190D01*
X173283333Y-64889047D01*
X173330952Y-64984285D01*
X173378571Y-65031904D01*
X173473809Y-65079523D01*
X173711904Y-65079523D01*
X173807142Y-65031904D01*
X173854761Y-64984285D01*
X173902380Y-64889047D01*
X173902380Y-64603333D01*
X173854761Y-64508095D01*
X173807142Y-64460476D01*
X172902380Y-65412857D02*
X172902380Y-66031904D01*
X173283333Y-65698571D01*
X173283333Y-65841428D01*
X173330952Y-65936666D01*
X173378571Y-65984285D01*
X173473809Y-66031904D01*
X173711904Y-66031904D01*
X173807142Y-65984285D01*
X173854761Y-65936666D01*
X173902380Y-65841428D01*
X173902380Y-65555714D01*
X173854761Y-65460476D01*
X173807142Y-65412857D01*
%TO.C,D32*%
X154852380Y-149280714D02*
X153852380Y-149280714D01*
X153852380Y-149518809D01*
X153900000Y-149661666D01*
X153995238Y-149756904D01*
X154090476Y-149804523D01*
X154280952Y-149852142D01*
X154423809Y-149852142D01*
X154614285Y-149804523D01*
X154709523Y-149756904D01*
X154804761Y-149661666D01*
X154852380Y-149518809D01*
X154852380Y-149280714D01*
X153852380Y-150185476D02*
X153852380Y-150804523D01*
X154233333Y-150471190D01*
X154233333Y-150614047D01*
X154280952Y-150709285D01*
X154328571Y-150756904D01*
X154423809Y-150804523D01*
X154661904Y-150804523D01*
X154757142Y-150756904D01*
X154804761Y-150709285D01*
X154852380Y-150614047D01*
X154852380Y-150328333D01*
X154804761Y-150233095D01*
X154757142Y-150185476D01*
X153947619Y-151185476D02*
X153900000Y-151233095D01*
X153852380Y-151328333D01*
X153852380Y-151566428D01*
X153900000Y-151661666D01*
X153947619Y-151709285D01*
X154042857Y-151756904D01*
X154138095Y-151756904D01*
X154280952Y-151709285D01*
X154852380Y-151137857D01*
X154852380Y-151756904D01*
%TO.C,D31*%
X154852380Y-130230714D02*
X153852380Y-130230714D01*
X153852380Y-130468809D01*
X153900000Y-130611666D01*
X153995238Y-130706904D01*
X154090476Y-130754523D01*
X154280952Y-130802142D01*
X154423809Y-130802142D01*
X154614285Y-130754523D01*
X154709523Y-130706904D01*
X154804761Y-130611666D01*
X154852380Y-130468809D01*
X154852380Y-130230714D01*
X153852380Y-131135476D02*
X153852380Y-131754523D01*
X154233333Y-131421190D01*
X154233333Y-131564047D01*
X154280952Y-131659285D01*
X154328571Y-131706904D01*
X154423809Y-131754523D01*
X154661904Y-131754523D01*
X154757142Y-131706904D01*
X154804761Y-131659285D01*
X154852380Y-131564047D01*
X154852380Y-131278333D01*
X154804761Y-131183095D01*
X154757142Y-131135476D01*
X154852380Y-132706904D02*
X154852380Y-132135476D01*
X154852380Y-132421190D02*
X153852380Y-132421190D01*
X153995238Y-132325952D01*
X154090476Y-132230714D01*
X154138095Y-132135476D01*
%TO.C,D30*%
X154852380Y-111180714D02*
X153852380Y-111180714D01*
X153852380Y-111418809D01*
X153900000Y-111561666D01*
X153995238Y-111656904D01*
X154090476Y-111704523D01*
X154280952Y-111752142D01*
X154423809Y-111752142D01*
X154614285Y-111704523D01*
X154709523Y-111656904D01*
X154804761Y-111561666D01*
X154852380Y-111418809D01*
X154852380Y-111180714D01*
X153852380Y-112085476D02*
X153852380Y-112704523D01*
X154233333Y-112371190D01*
X154233333Y-112514047D01*
X154280952Y-112609285D01*
X154328571Y-112656904D01*
X154423809Y-112704523D01*
X154661904Y-112704523D01*
X154757142Y-112656904D01*
X154804761Y-112609285D01*
X154852380Y-112514047D01*
X154852380Y-112228333D01*
X154804761Y-112133095D01*
X154757142Y-112085476D01*
X153852380Y-113323571D02*
X153852380Y-113418809D01*
X153900000Y-113514047D01*
X153947619Y-113561666D01*
X154042857Y-113609285D01*
X154233333Y-113656904D01*
X154471428Y-113656904D01*
X154661904Y-113609285D01*
X154757142Y-113561666D01*
X154804761Y-113514047D01*
X154852380Y-113418809D01*
X154852380Y-113323571D01*
X154804761Y-113228333D01*
X154757142Y-113180714D01*
X154661904Y-113133095D01*
X154471428Y-113085476D01*
X154233333Y-113085476D01*
X154042857Y-113133095D01*
X153947619Y-113180714D01*
X153900000Y-113228333D01*
X153852380Y-113323571D01*
%TO.C,D29*%
X154852380Y-92130714D02*
X153852380Y-92130714D01*
X153852380Y-92368809D01*
X153900000Y-92511666D01*
X153995238Y-92606904D01*
X154090476Y-92654523D01*
X154280952Y-92702142D01*
X154423809Y-92702142D01*
X154614285Y-92654523D01*
X154709523Y-92606904D01*
X154804761Y-92511666D01*
X154852380Y-92368809D01*
X154852380Y-92130714D01*
X153947619Y-93083095D02*
X153900000Y-93130714D01*
X153852380Y-93225952D01*
X153852380Y-93464047D01*
X153900000Y-93559285D01*
X153947619Y-93606904D01*
X154042857Y-93654523D01*
X154138095Y-93654523D01*
X154280952Y-93606904D01*
X154852380Y-93035476D01*
X154852380Y-93654523D01*
X154852380Y-94130714D02*
X154852380Y-94321190D01*
X154804761Y-94416428D01*
X154757142Y-94464047D01*
X154614285Y-94559285D01*
X154423809Y-94606904D01*
X154042857Y-94606904D01*
X153947619Y-94559285D01*
X153900000Y-94511666D01*
X153852380Y-94416428D01*
X153852380Y-94225952D01*
X153900000Y-94130714D01*
X153947619Y-94083095D01*
X154042857Y-94035476D01*
X154280952Y-94035476D01*
X154376190Y-94083095D01*
X154423809Y-94130714D01*
X154471428Y-94225952D01*
X154471428Y-94416428D01*
X154423809Y-94511666D01*
X154376190Y-94559285D01*
X154280952Y-94606904D01*
%TO.C,D28*%
X154852380Y-63555714D02*
X153852380Y-63555714D01*
X153852380Y-63793809D01*
X153900000Y-63936666D01*
X153995238Y-64031904D01*
X154090476Y-64079523D01*
X154280952Y-64127142D01*
X154423809Y-64127142D01*
X154614285Y-64079523D01*
X154709523Y-64031904D01*
X154804761Y-63936666D01*
X154852380Y-63793809D01*
X154852380Y-63555714D01*
X153947619Y-64508095D02*
X153900000Y-64555714D01*
X153852380Y-64650952D01*
X153852380Y-64889047D01*
X153900000Y-64984285D01*
X153947619Y-65031904D01*
X154042857Y-65079523D01*
X154138095Y-65079523D01*
X154280952Y-65031904D01*
X154852380Y-64460476D01*
X154852380Y-65079523D01*
X154280952Y-65650952D02*
X154233333Y-65555714D01*
X154185714Y-65508095D01*
X154090476Y-65460476D01*
X154042857Y-65460476D01*
X153947619Y-65508095D01*
X153900000Y-65555714D01*
X153852380Y-65650952D01*
X153852380Y-65841428D01*
X153900000Y-65936666D01*
X153947619Y-65984285D01*
X154042857Y-66031904D01*
X154090476Y-66031904D01*
X154185714Y-65984285D01*
X154233333Y-65936666D01*
X154280952Y-65841428D01*
X154280952Y-65650952D01*
X154328571Y-65555714D01*
X154376190Y-65508095D01*
X154471428Y-65460476D01*
X154661904Y-65460476D01*
X154757142Y-65508095D01*
X154804761Y-65555714D01*
X154852380Y-65650952D01*
X154852380Y-65841428D01*
X154804761Y-65936666D01*
X154757142Y-65984285D01*
X154661904Y-66031904D01*
X154471428Y-66031904D01*
X154376190Y-65984285D01*
X154328571Y-65936666D01*
X154280952Y-65841428D01*
%TO.C,D27*%
X147232380Y-168330714D02*
X146232380Y-168330714D01*
X146232380Y-168568809D01*
X146280000Y-168711666D01*
X146375238Y-168806904D01*
X146470476Y-168854523D01*
X146660952Y-168902142D01*
X146803809Y-168902142D01*
X146994285Y-168854523D01*
X147089523Y-168806904D01*
X147184761Y-168711666D01*
X147232380Y-168568809D01*
X147232380Y-168330714D01*
X146327619Y-169283095D02*
X146280000Y-169330714D01*
X146232380Y-169425952D01*
X146232380Y-169664047D01*
X146280000Y-169759285D01*
X146327619Y-169806904D01*
X146422857Y-169854523D01*
X146518095Y-169854523D01*
X146660952Y-169806904D01*
X147232380Y-169235476D01*
X147232380Y-169854523D01*
X146232380Y-170187857D02*
X146232380Y-170854523D01*
X147232380Y-170425952D01*
%TO.C,D26*%
X135802380Y-149280714D02*
X134802380Y-149280714D01*
X134802380Y-149518809D01*
X134850000Y-149661666D01*
X134945238Y-149756904D01*
X135040476Y-149804523D01*
X135230952Y-149852142D01*
X135373809Y-149852142D01*
X135564285Y-149804523D01*
X135659523Y-149756904D01*
X135754761Y-149661666D01*
X135802380Y-149518809D01*
X135802380Y-149280714D01*
X134897619Y-150233095D02*
X134850000Y-150280714D01*
X134802380Y-150375952D01*
X134802380Y-150614047D01*
X134850000Y-150709285D01*
X134897619Y-150756904D01*
X134992857Y-150804523D01*
X135088095Y-150804523D01*
X135230952Y-150756904D01*
X135802380Y-150185476D01*
X135802380Y-150804523D01*
X134802380Y-151661666D02*
X134802380Y-151471190D01*
X134850000Y-151375952D01*
X134897619Y-151328333D01*
X135040476Y-151233095D01*
X135230952Y-151185476D01*
X135611904Y-151185476D01*
X135707142Y-151233095D01*
X135754761Y-151280714D01*
X135802380Y-151375952D01*
X135802380Y-151566428D01*
X135754761Y-151661666D01*
X135707142Y-151709285D01*
X135611904Y-151756904D01*
X135373809Y-151756904D01*
X135278571Y-151709285D01*
X135230952Y-151661666D01*
X135183333Y-151566428D01*
X135183333Y-151375952D01*
X135230952Y-151280714D01*
X135278571Y-151233095D01*
X135373809Y-151185476D01*
%TO.C,D25*%
X135802380Y-130230714D02*
X134802380Y-130230714D01*
X134802380Y-130468809D01*
X134850000Y-130611666D01*
X134945238Y-130706904D01*
X135040476Y-130754523D01*
X135230952Y-130802142D01*
X135373809Y-130802142D01*
X135564285Y-130754523D01*
X135659523Y-130706904D01*
X135754761Y-130611666D01*
X135802380Y-130468809D01*
X135802380Y-130230714D01*
X134897619Y-131183095D02*
X134850000Y-131230714D01*
X134802380Y-131325952D01*
X134802380Y-131564047D01*
X134850000Y-131659285D01*
X134897619Y-131706904D01*
X134992857Y-131754523D01*
X135088095Y-131754523D01*
X135230952Y-131706904D01*
X135802380Y-131135476D01*
X135802380Y-131754523D01*
X134802380Y-132659285D02*
X134802380Y-132183095D01*
X135278571Y-132135476D01*
X135230952Y-132183095D01*
X135183333Y-132278333D01*
X135183333Y-132516428D01*
X135230952Y-132611666D01*
X135278571Y-132659285D01*
X135373809Y-132706904D01*
X135611904Y-132706904D01*
X135707142Y-132659285D01*
X135754761Y-132611666D01*
X135802380Y-132516428D01*
X135802380Y-132278333D01*
X135754761Y-132183095D01*
X135707142Y-132135476D01*
%TO.C,D24*%
X135802380Y-111180714D02*
X134802380Y-111180714D01*
X134802380Y-111418809D01*
X134850000Y-111561666D01*
X134945238Y-111656904D01*
X135040476Y-111704523D01*
X135230952Y-111752142D01*
X135373809Y-111752142D01*
X135564285Y-111704523D01*
X135659523Y-111656904D01*
X135754761Y-111561666D01*
X135802380Y-111418809D01*
X135802380Y-111180714D01*
X134897619Y-112133095D02*
X134850000Y-112180714D01*
X134802380Y-112275952D01*
X134802380Y-112514047D01*
X134850000Y-112609285D01*
X134897619Y-112656904D01*
X134992857Y-112704523D01*
X135088095Y-112704523D01*
X135230952Y-112656904D01*
X135802380Y-112085476D01*
X135802380Y-112704523D01*
X135135714Y-113561666D02*
X135802380Y-113561666D01*
X134754761Y-113323571D02*
X135469047Y-113085476D01*
X135469047Y-113704523D01*
%TO.C,D23*%
X135802380Y-92130714D02*
X134802380Y-92130714D01*
X134802380Y-92368809D01*
X134850000Y-92511666D01*
X134945238Y-92606904D01*
X135040476Y-92654523D01*
X135230952Y-92702142D01*
X135373809Y-92702142D01*
X135564285Y-92654523D01*
X135659523Y-92606904D01*
X135754761Y-92511666D01*
X135802380Y-92368809D01*
X135802380Y-92130714D01*
X134897619Y-93083095D02*
X134850000Y-93130714D01*
X134802380Y-93225952D01*
X134802380Y-93464047D01*
X134850000Y-93559285D01*
X134897619Y-93606904D01*
X134992857Y-93654523D01*
X135088095Y-93654523D01*
X135230952Y-93606904D01*
X135802380Y-93035476D01*
X135802380Y-93654523D01*
X134802380Y-93987857D02*
X134802380Y-94606904D01*
X135183333Y-94273571D01*
X135183333Y-94416428D01*
X135230952Y-94511666D01*
X135278571Y-94559285D01*
X135373809Y-94606904D01*
X135611904Y-94606904D01*
X135707142Y-94559285D01*
X135754761Y-94511666D01*
X135802380Y-94416428D01*
X135802380Y-94130714D01*
X135754761Y-94035476D01*
X135707142Y-93987857D01*
%TO.C,D22*%
X135802380Y-63555714D02*
X134802380Y-63555714D01*
X134802380Y-63793809D01*
X134850000Y-63936666D01*
X134945238Y-64031904D01*
X135040476Y-64079523D01*
X135230952Y-64127142D01*
X135373809Y-64127142D01*
X135564285Y-64079523D01*
X135659523Y-64031904D01*
X135754761Y-63936666D01*
X135802380Y-63793809D01*
X135802380Y-63555714D01*
X134897619Y-64508095D02*
X134850000Y-64555714D01*
X134802380Y-64650952D01*
X134802380Y-64889047D01*
X134850000Y-64984285D01*
X134897619Y-65031904D01*
X134992857Y-65079523D01*
X135088095Y-65079523D01*
X135230952Y-65031904D01*
X135802380Y-64460476D01*
X135802380Y-65079523D01*
X134897619Y-65460476D02*
X134850000Y-65508095D01*
X134802380Y-65603333D01*
X134802380Y-65841428D01*
X134850000Y-65936666D01*
X134897619Y-65984285D01*
X134992857Y-66031904D01*
X135088095Y-66031904D01*
X135230952Y-65984285D01*
X135802380Y-65412857D01*
X135802380Y-66031904D01*
%TO.C,D21*%
X116752380Y-168330714D02*
X115752380Y-168330714D01*
X115752380Y-168568809D01*
X115800000Y-168711666D01*
X115895238Y-168806904D01*
X115990476Y-168854523D01*
X116180952Y-168902142D01*
X116323809Y-168902142D01*
X116514285Y-168854523D01*
X116609523Y-168806904D01*
X116704761Y-168711666D01*
X116752380Y-168568809D01*
X116752380Y-168330714D01*
X115847619Y-169283095D02*
X115800000Y-169330714D01*
X115752380Y-169425952D01*
X115752380Y-169664047D01*
X115800000Y-169759285D01*
X115847619Y-169806904D01*
X115942857Y-169854523D01*
X116038095Y-169854523D01*
X116180952Y-169806904D01*
X116752380Y-169235476D01*
X116752380Y-169854523D01*
X116752380Y-170806904D02*
X116752380Y-170235476D01*
X116752380Y-170521190D02*
X115752380Y-170521190D01*
X115895238Y-170425952D01*
X115990476Y-170330714D01*
X116038095Y-170235476D01*
%TO.C,D20*%
X116752380Y-149280714D02*
X115752380Y-149280714D01*
X115752380Y-149518809D01*
X115800000Y-149661666D01*
X115895238Y-149756904D01*
X115990476Y-149804523D01*
X116180952Y-149852142D01*
X116323809Y-149852142D01*
X116514285Y-149804523D01*
X116609523Y-149756904D01*
X116704761Y-149661666D01*
X116752380Y-149518809D01*
X116752380Y-149280714D01*
X115847619Y-150233095D02*
X115800000Y-150280714D01*
X115752380Y-150375952D01*
X115752380Y-150614047D01*
X115800000Y-150709285D01*
X115847619Y-150756904D01*
X115942857Y-150804523D01*
X116038095Y-150804523D01*
X116180952Y-150756904D01*
X116752380Y-150185476D01*
X116752380Y-150804523D01*
X115752380Y-151423571D02*
X115752380Y-151518809D01*
X115800000Y-151614047D01*
X115847619Y-151661666D01*
X115942857Y-151709285D01*
X116133333Y-151756904D01*
X116371428Y-151756904D01*
X116561904Y-151709285D01*
X116657142Y-151661666D01*
X116704761Y-151614047D01*
X116752380Y-151518809D01*
X116752380Y-151423571D01*
X116704761Y-151328333D01*
X116657142Y-151280714D01*
X116561904Y-151233095D01*
X116371428Y-151185476D01*
X116133333Y-151185476D01*
X115942857Y-151233095D01*
X115847619Y-151280714D01*
X115800000Y-151328333D01*
X115752380Y-151423571D01*
%TO.C,D19*%
X116752380Y-130230714D02*
X115752380Y-130230714D01*
X115752380Y-130468809D01*
X115800000Y-130611666D01*
X115895238Y-130706904D01*
X115990476Y-130754523D01*
X116180952Y-130802142D01*
X116323809Y-130802142D01*
X116514285Y-130754523D01*
X116609523Y-130706904D01*
X116704761Y-130611666D01*
X116752380Y-130468809D01*
X116752380Y-130230714D01*
X116752380Y-131754523D02*
X116752380Y-131183095D01*
X116752380Y-131468809D02*
X115752380Y-131468809D01*
X115895238Y-131373571D01*
X115990476Y-131278333D01*
X116038095Y-131183095D01*
X116752380Y-132230714D02*
X116752380Y-132421190D01*
X116704761Y-132516428D01*
X116657142Y-132564047D01*
X116514285Y-132659285D01*
X116323809Y-132706904D01*
X115942857Y-132706904D01*
X115847619Y-132659285D01*
X115800000Y-132611666D01*
X115752380Y-132516428D01*
X115752380Y-132325952D01*
X115800000Y-132230714D01*
X115847619Y-132183095D01*
X115942857Y-132135476D01*
X116180952Y-132135476D01*
X116276190Y-132183095D01*
X116323809Y-132230714D01*
X116371428Y-132325952D01*
X116371428Y-132516428D01*
X116323809Y-132611666D01*
X116276190Y-132659285D01*
X116180952Y-132706904D01*
%TO.C,D18*%
X116752380Y-111180714D02*
X115752380Y-111180714D01*
X115752380Y-111418809D01*
X115800000Y-111561666D01*
X115895238Y-111656904D01*
X115990476Y-111704523D01*
X116180952Y-111752142D01*
X116323809Y-111752142D01*
X116514285Y-111704523D01*
X116609523Y-111656904D01*
X116704761Y-111561666D01*
X116752380Y-111418809D01*
X116752380Y-111180714D01*
X116752380Y-112704523D02*
X116752380Y-112133095D01*
X116752380Y-112418809D02*
X115752380Y-112418809D01*
X115895238Y-112323571D01*
X115990476Y-112228333D01*
X116038095Y-112133095D01*
X116180952Y-113275952D02*
X116133333Y-113180714D01*
X116085714Y-113133095D01*
X115990476Y-113085476D01*
X115942857Y-113085476D01*
X115847619Y-113133095D01*
X115800000Y-113180714D01*
X115752380Y-113275952D01*
X115752380Y-113466428D01*
X115800000Y-113561666D01*
X115847619Y-113609285D01*
X115942857Y-113656904D01*
X115990476Y-113656904D01*
X116085714Y-113609285D01*
X116133333Y-113561666D01*
X116180952Y-113466428D01*
X116180952Y-113275952D01*
X116228571Y-113180714D01*
X116276190Y-113133095D01*
X116371428Y-113085476D01*
X116561904Y-113085476D01*
X116657142Y-113133095D01*
X116704761Y-113180714D01*
X116752380Y-113275952D01*
X116752380Y-113466428D01*
X116704761Y-113561666D01*
X116657142Y-113609285D01*
X116561904Y-113656904D01*
X116371428Y-113656904D01*
X116276190Y-113609285D01*
X116228571Y-113561666D01*
X116180952Y-113466428D01*
%TO.C,D17*%
X116752380Y-92130714D02*
X115752380Y-92130714D01*
X115752380Y-92368809D01*
X115800000Y-92511666D01*
X115895238Y-92606904D01*
X115990476Y-92654523D01*
X116180952Y-92702142D01*
X116323809Y-92702142D01*
X116514285Y-92654523D01*
X116609523Y-92606904D01*
X116704761Y-92511666D01*
X116752380Y-92368809D01*
X116752380Y-92130714D01*
X116752380Y-93654523D02*
X116752380Y-93083095D01*
X116752380Y-93368809D02*
X115752380Y-93368809D01*
X115895238Y-93273571D01*
X115990476Y-93178333D01*
X116038095Y-93083095D01*
X115752380Y-93987857D02*
X115752380Y-94654523D01*
X116752380Y-94225952D01*
%TO.C,D16*%
X116752380Y-63555714D02*
X115752380Y-63555714D01*
X115752380Y-63793809D01*
X115800000Y-63936666D01*
X115895238Y-64031904D01*
X115990476Y-64079523D01*
X116180952Y-64127142D01*
X116323809Y-64127142D01*
X116514285Y-64079523D01*
X116609523Y-64031904D01*
X116704761Y-63936666D01*
X116752380Y-63793809D01*
X116752380Y-63555714D01*
X116752380Y-65079523D02*
X116752380Y-64508095D01*
X116752380Y-64793809D02*
X115752380Y-64793809D01*
X115895238Y-64698571D01*
X115990476Y-64603333D01*
X116038095Y-64508095D01*
X115752380Y-65936666D02*
X115752380Y-65746190D01*
X115800000Y-65650952D01*
X115847619Y-65603333D01*
X115990476Y-65508095D01*
X116180952Y-65460476D01*
X116561904Y-65460476D01*
X116657142Y-65508095D01*
X116704761Y-65555714D01*
X116752380Y-65650952D01*
X116752380Y-65841428D01*
X116704761Y-65936666D01*
X116657142Y-65984285D01*
X116561904Y-66031904D01*
X116323809Y-66031904D01*
X116228571Y-65984285D01*
X116180952Y-65936666D01*
X116133333Y-65841428D01*
X116133333Y-65650952D01*
X116180952Y-65555714D01*
X116228571Y-65508095D01*
X116323809Y-65460476D01*
%TO.C,D15*%
X97702380Y-168330714D02*
X96702380Y-168330714D01*
X96702380Y-168568809D01*
X96750000Y-168711666D01*
X96845238Y-168806904D01*
X96940476Y-168854523D01*
X97130952Y-168902142D01*
X97273809Y-168902142D01*
X97464285Y-168854523D01*
X97559523Y-168806904D01*
X97654761Y-168711666D01*
X97702380Y-168568809D01*
X97702380Y-168330714D01*
X97702380Y-169854523D02*
X97702380Y-169283095D01*
X97702380Y-169568809D02*
X96702380Y-169568809D01*
X96845238Y-169473571D01*
X96940476Y-169378333D01*
X96988095Y-169283095D01*
X96702380Y-170759285D02*
X96702380Y-170283095D01*
X97178571Y-170235476D01*
X97130952Y-170283095D01*
X97083333Y-170378333D01*
X97083333Y-170616428D01*
X97130952Y-170711666D01*
X97178571Y-170759285D01*
X97273809Y-170806904D01*
X97511904Y-170806904D01*
X97607142Y-170759285D01*
X97654761Y-170711666D01*
X97702380Y-170616428D01*
X97702380Y-170378333D01*
X97654761Y-170283095D01*
X97607142Y-170235476D01*
%TO.C,D14*%
X97702380Y-149280714D02*
X96702380Y-149280714D01*
X96702380Y-149518809D01*
X96750000Y-149661666D01*
X96845238Y-149756904D01*
X96940476Y-149804523D01*
X97130952Y-149852142D01*
X97273809Y-149852142D01*
X97464285Y-149804523D01*
X97559523Y-149756904D01*
X97654761Y-149661666D01*
X97702380Y-149518809D01*
X97702380Y-149280714D01*
X97702380Y-150804523D02*
X97702380Y-150233095D01*
X97702380Y-150518809D02*
X96702380Y-150518809D01*
X96845238Y-150423571D01*
X96940476Y-150328333D01*
X96988095Y-150233095D01*
X97035714Y-151661666D02*
X97702380Y-151661666D01*
X96654761Y-151423571D02*
X97369047Y-151185476D01*
X97369047Y-151804523D01*
%TO.C,D13*%
X97702380Y-130230714D02*
X96702380Y-130230714D01*
X96702380Y-130468809D01*
X96750000Y-130611666D01*
X96845238Y-130706904D01*
X96940476Y-130754523D01*
X97130952Y-130802142D01*
X97273809Y-130802142D01*
X97464285Y-130754523D01*
X97559523Y-130706904D01*
X97654761Y-130611666D01*
X97702380Y-130468809D01*
X97702380Y-130230714D01*
X97702380Y-131754523D02*
X97702380Y-131183095D01*
X97702380Y-131468809D02*
X96702380Y-131468809D01*
X96845238Y-131373571D01*
X96940476Y-131278333D01*
X96988095Y-131183095D01*
X96702380Y-132087857D02*
X96702380Y-132706904D01*
X97083333Y-132373571D01*
X97083333Y-132516428D01*
X97130952Y-132611666D01*
X97178571Y-132659285D01*
X97273809Y-132706904D01*
X97511904Y-132706904D01*
X97607142Y-132659285D01*
X97654761Y-132611666D01*
X97702380Y-132516428D01*
X97702380Y-132230714D01*
X97654761Y-132135476D01*
X97607142Y-132087857D01*
%TO.C,D12*%
X98337380Y-111180714D02*
X97337380Y-111180714D01*
X97337380Y-111418809D01*
X97385000Y-111561666D01*
X97480238Y-111656904D01*
X97575476Y-111704523D01*
X97765952Y-111752142D01*
X97908809Y-111752142D01*
X98099285Y-111704523D01*
X98194523Y-111656904D01*
X98289761Y-111561666D01*
X98337380Y-111418809D01*
X98337380Y-111180714D01*
X98337380Y-112704523D02*
X98337380Y-112133095D01*
X98337380Y-112418809D02*
X97337380Y-112418809D01*
X97480238Y-112323571D01*
X97575476Y-112228333D01*
X97623095Y-112133095D01*
X97432619Y-113085476D02*
X97385000Y-113133095D01*
X97337380Y-113228333D01*
X97337380Y-113466428D01*
X97385000Y-113561666D01*
X97432619Y-113609285D01*
X97527857Y-113656904D01*
X97623095Y-113656904D01*
X97765952Y-113609285D01*
X98337380Y-113037857D01*
X98337380Y-113656904D01*
%TO.C,D11*%
X97702380Y-92130714D02*
X96702380Y-92130714D01*
X96702380Y-92368809D01*
X96750000Y-92511666D01*
X96845238Y-92606904D01*
X96940476Y-92654523D01*
X97130952Y-92702142D01*
X97273809Y-92702142D01*
X97464285Y-92654523D01*
X97559523Y-92606904D01*
X97654761Y-92511666D01*
X97702380Y-92368809D01*
X97702380Y-92130714D01*
X97702380Y-93654523D02*
X97702380Y-93083095D01*
X97702380Y-93368809D02*
X96702380Y-93368809D01*
X96845238Y-93273571D01*
X96940476Y-93178333D01*
X96988095Y-93083095D01*
X97702380Y-94606904D02*
X97702380Y-94035476D01*
X97702380Y-94321190D02*
X96702380Y-94321190D01*
X96845238Y-94225952D01*
X96940476Y-94130714D01*
X96988095Y-94035476D01*
%TO.C,D10*%
X97702380Y-63555714D02*
X96702380Y-63555714D01*
X96702380Y-63793809D01*
X96750000Y-63936666D01*
X96845238Y-64031904D01*
X96940476Y-64079523D01*
X97130952Y-64127142D01*
X97273809Y-64127142D01*
X97464285Y-64079523D01*
X97559523Y-64031904D01*
X97654761Y-63936666D01*
X97702380Y-63793809D01*
X97702380Y-63555714D01*
X97702380Y-65079523D02*
X97702380Y-64508095D01*
X97702380Y-64793809D02*
X96702380Y-64793809D01*
X96845238Y-64698571D01*
X96940476Y-64603333D01*
X96988095Y-64508095D01*
X96702380Y-65698571D02*
X96702380Y-65793809D01*
X96750000Y-65889047D01*
X96797619Y-65936666D01*
X96892857Y-65984285D01*
X97083333Y-66031904D01*
X97321428Y-66031904D01*
X97511904Y-65984285D01*
X97607142Y-65936666D01*
X97654761Y-65889047D01*
X97702380Y-65793809D01*
X97702380Y-65698571D01*
X97654761Y-65603333D01*
X97607142Y-65555714D01*
X97511904Y-65508095D01*
X97321428Y-65460476D01*
X97083333Y-65460476D01*
X96892857Y-65508095D01*
X96797619Y-65555714D01*
X96750000Y-65603333D01*
X96702380Y-65698571D01*
%TO.C,D9*%
X78652380Y-168806904D02*
X77652380Y-168806904D01*
X77652380Y-169045000D01*
X77700000Y-169187857D01*
X77795238Y-169283095D01*
X77890476Y-169330714D01*
X78080952Y-169378333D01*
X78223809Y-169378333D01*
X78414285Y-169330714D01*
X78509523Y-169283095D01*
X78604761Y-169187857D01*
X78652380Y-169045000D01*
X78652380Y-168806904D01*
X78652380Y-169854523D02*
X78652380Y-170045000D01*
X78604761Y-170140238D01*
X78557142Y-170187857D01*
X78414285Y-170283095D01*
X78223809Y-170330714D01*
X77842857Y-170330714D01*
X77747619Y-170283095D01*
X77700000Y-170235476D01*
X77652380Y-170140238D01*
X77652380Y-169949761D01*
X77700000Y-169854523D01*
X77747619Y-169806904D01*
X77842857Y-169759285D01*
X78080952Y-169759285D01*
X78176190Y-169806904D01*
X78223809Y-169854523D01*
X78271428Y-169949761D01*
X78271428Y-170140238D01*
X78223809Y-170235476D01*
X78176190Y-170283095D01*
X78080952Y-170330714D01*
%TO.C,D8*%
X78652380Y-92606904D02*
X77652380Y-92606904D01*
X77652380Y-92845000D01*
X77700000Y-92987857D01*
X77795238Y-93083095D01*
X77890476Y-93130714D01*
X78080952Y-93178333D01*
X78223809Y-93178333D01*
X78414285Y-93130714D01*
X78509523Y-93083095D01*
X78604761Y-92987857D01*
X78652380Y-92845000D01*
X78652380Y-92606904D01*
X78080952Y-93749761D02*
X78033333Y-93654523D01*
X77985714Y-93606904D01*
X77890476Y-93559285D01*
X77842857Y-93559285D01*
X77747619Y-93606904D01*
X77700000Y-93654523D01*
X77652380Y-93749761D01*
X77652380Y-93940238D01*
X77700000Y-94035476D01*
X77747619Y-94083095D01*
X77842857Y-94130714D01*
X77890476Y-94130714D01*
X77985714Y-94083095D01*
X78033333Y-94035476D01*
X78080952Y-93940238D01*
X78080952Y-93749761D01*
X78128571Y-93654523D01*
X78176190Y-93606904D01*
X78271428Y-93559285D01*
X78461904Y-93559285D01*
X78557142Y-93606904D01*
X78604761Y-93654523D01*
X78652380Y-93749761D01*
X78652380Y-93940238D01*
X78604761Y-94035476D01*
X78557142Y-94083095D01*
X78461904Y-94130714D01*
X78271428Y-94130714D01*
X78176190Y-94083095D01*
X78128571Y-94035476D01*
X78080952Y-93940238D01*
%TO.C,D5*%
X76747380Y-149756904D02*
X75747380Y-149756904D01*
X75747380Y-149995000D01*
X75795000Y-150137857D01*
X75890238Y-150233095D01*
X75985476Y-150280714D01*
X76175952Y-150328333D01*
X76318809Y-150328333D01*
X76509285Y-150280714D01*
X76604523Y-150233095D01*
X76699761Y-150137857D01*
X76747380Y-149995000D01*
X76747380Y-149756904D01*
X75747380Y-151233095D02*
X75747380Y-150756904D01*
X76223571Y-150709285D01*
X76175952Y-150756904D01*
X76128333Y-150852142D01*
X76128333Y-151090238D01*
X76175952Y-151185476D01*
X76223571Y-151233095D01*
X76318809Y-151280714D01*
X76556904Y-151280714D01*
X76652142Y-151233095D01*
X76699761Y-151185476D01*
X76747380Y-151090238D01*
X76747380Y-150852142D01*
X76699761Y-150756904D01*
X76652142Y-150709285D01*
%TO.C,D4*%
X76747380Y-130706904D02*
X75747380Y-130706904D01*
X75747380Y-130945000D01*
X75795000Y-131087857D01*
X75890238Y-131183095D01*
X75985476Y-131230714D01*
X76175952Y-131278333D01*
X76318809Y-131278333D01*
X76509285Y-131230714D01*
X76604523Y-131183095D01*
X76699761Y-131087857D01*
X76747380Y-130945000D01*
X76747380Y-130706904D01*
X76080714Y-132135476D02*
X76747380Y-132135476D01*
X75699761Y-131897380D02*
X76414047Y-131659285D01*
X76414047Y-132278333D01*
%TO.C,D3*%
X76112380Y-111656904D02*
X75112380Y-111656904D01*
X75112380Y-111895000D01*
X75160000Y-112037857D01*
X75255238Y-112133095D01*
X75350476Y-112180714D01*
X75540952Y-112228333D01*
X75683809Y-112228333D01*
X75874285Y-112180714D01*
X75969523Y-112133095D01*
X76064761Y-112037857D01*
X76112380Y-111895000D01*
X76112380Y-111656904D01*
X75112380Y-112561666D02*
X75112380Y-113180714D01*
X75493333Y-112847380D01*
X75493333Y-112990238D01*
X75540952Y-113085476D01*
X75588571Y-113133095D01*
X75683809Y-113180714D01*
X75921904Y-113180714D01*
X76017142Y-113133095D01*
X76064761Y-113085476D01*
X76112380Y-112990238D01*
X76112380Y-112704523D01*
X76064761Y-112609285D01*
X76017142Y-112561666D01*
%TO.C,D2*%
X59602380Y-92606904D02*
X58602380Y-92606904D01*
X58602380Y-92845000D01*
X58650000Y-92987857D01*
X58745238Y-93083095D01*
X58840476Y-93130714D01*
X59030952Y-93178333D01*
X59173809Y-93178333D01*
X59364285Y-93130714D01*
X59459523Y-93083095D01*
X59554761Y-92987857D01*
X59602380Y-92845000D01*
X59602380Y-92606904D01*
X58697619Y-93559285D02*
X58650000Y-93606904D01*
X58602380Y-93702142D01*
X58602380Y-93940238D01*
X58650000Y-94035476D01*
X58697619Y-94083095D01*
X58792857Y-94130714D01*
X58888095Y-94130714D01*
X59030952Y-94083095D01*
X59602380Y-93511666D01*
X59602380Y-94130714D01*
%TO.C,D1*%
X59602380Y-64031904D02*
X58602380Y-64031904D01*
X58602380Y-64270000D01*
X58650000Y-64412857D01*
X58745238Y-64508095D01*
X58840476Y-64555714D01*
X59030952Y-64603333D01*
X59173809Y-64603333D01*
X59364285Y-64555714D01*
X59459523Y-64508095D01*
X59554761Y-64412857D01*
X59602380Y-64270000D01*
X59602380Y-64031904D01*
X59602380Y-65555714D02*
X59602380Y-64984285D01*
X59602380Y-65270000D02*
X58602380Y-65270000D01*
X58745238Y-65174761D01*
X58840476Y-65079523D01*
X58888095Y-64984285D01*
%TD*%
M02*
