%TF.GenerationSoftware,KiCad,Pcbnew,(5.1.10)-1*%
%TF.CreationDate,2021-08-17T12:27:07-04:00*%
%TF.ProjectId,macropad,6d616372-6f70-4616-942e-6b696361645f,rev?*%
%TF.SameCoordinates,Original*%
%TF.FileFunction,Legend,Top*%
%TF.FilePolarity,Positive*%
%FSLAX46Y46*%
G04 Gerber Fmt 4.6, Leading zero omitted, Abs format (unit mm)*
G04 Created by KiCad (PCBNEW (5.1.10)-1) date 2021-08-17 12:27:07*
%MOMM*%
%LPD*%
G01*
G04 APERTURE LIST*
%ADD10C,0.150000*%
%ADD11C,0.381000*%
%ADD12C,0.100000*%
%ADD13C,0.120000*%
G04 APERTURE END LIST*
D10*
X62365238Y-31837380D02*
X62555714Y-31837380D01*
X62650952Y-31885000D01*
X62746190Y-31980238D01*
X62793809Y-32170714D01*
X62793809Y-32504047D01*
X62746190Y-32694523D01*
X62650952Y-32789761D01*
X62555714Y-32837380D01*
X62365238Y-32837380D01*
X62270000Y-32789761D01*
X62174761Y-32694523D01*
X62127142Y-32504047D01*
X62127142Y-32170714D01*
X62174761Y-31980238D01*
X62270000Y-31885000D01*
X62365238Y-31837380D01*
X63222380Y-31837380D02*
X63222380Y-32646904D01*
X63270000Y-32742142D01*
X63317619Y-32789761D01*
X63412857Y-32837380D01*
X63603333Y-32837380D01*
X63698571Y-32789761D01*
X63746190Y-32742142D01*
X63793809Y-32646904D01*
X63793809Y-31837380D01*
X64127142Y-31837380D02*
X64698571Y-31837380D01*
X64412857Y-32837380D02*
X64412857Y-31837380D01*
X65031904Y-32837380D02*
X65031904Y-31837380D01*
X65412857Y-31837380D01*
X65508095Y-31885000D01*
X65555714Y-31932619D01*
X65603333Y-32027857D01*
X65603333Y-32170714D01*
X65555714Y-32265952D01*
X65508095Y-32313571D01*
X65412857Y-32361190D01*
X65031904Y-32361190D01*
X66031904Y-31837380D02*
X66031904Y-32646904D01*
X66079523Y-32742142D01*
X66127142Y-32789761D01*
X66222380Y-32837380D01*
X66412857Y-32837380D01*
X66508095Y-32789761D01*
X66555714Y-32742142D01*
X66603333Y-32646904D01*
X66603333Y-31837380D01*
X66936666Y-31837380D02*
X67508095Y-31837380D01*
X67222380Y-32837380D02*
X67222380Y-31837380D01*
D11*
%TO.C,U1*%
X41910000Y-48260000D02*
X72390000Y-48260000D01*
X72390000Y-48260000D02*
X72390000Y-30480000D01*
X72390000Y-30480000D02*
X41910000Y-30480000D01*
X41910000Y-45720000D02*
X44450000Y-45720000D01*
X44450000Y-45720000D02*
X44450000Y-48260000D01*
D10*
G36*
X47789360Y-34438432D02*
G01*
X48089360Y-34438432D01*
X48089360Y-34538432D01*
X47789360Y-34538432D01*
X47789360Y-34438432D01*
G37*
X47789360Y-34438432D02*
X48089360Y-34438432D01*
X48089360Y-34538432D01*
X47789360Y-34538432D01*
X47789360Y-34438432D01*
G36*
X48189360Y-34638432D02*
G01*
X48289360Y-34638432D01*
X48289360Y-34738432D01*
X48189360Y-34738432D01*
X48189360Y-34638432D01*
G37*
X48189360Y-34638432D02*
X48289360Y-34638432D01*
X48289360Y-34738432D01*
X48189360Y-34738432D01*
X48189360Y-34638432D01*
G36*
X47789360Y-34438432D02*
G01*
X47889360Y-34438432D01*
X47889360Y-34938432D01*
X47789360Y-34938432D01*
X47789360Y-34438432D01*
G37*
X47789360Y-34438432D02*
X47889360Y-34438432D01*
X47889360Y-34938432D01*
X47789360Y-34938432D01*
X47789360Y-34438432D01*
G36*
X47789360Y-34838432D02*
G01*
X48589360Y-34838432D01*
X48589360Y-34938432D01*
X47789360Y-34938432D01*
X47789360Y-34838432D01*
G37*
X47789360Y-34838432D02*
X48589360Y-34838432D01*
X48589360Y-34938432D01*
X47789360Y-34938432D01*
X47789360Y-34838432D01*
G36*
X48389360Y-34438432D02*
G01*
X48589360Y-34438432D01*
X48589360Y-34538432D01*
X48389360Y-34538432D01*
X48389360Y-34438432D01*
G37*
X48389360Y-34438432D02*
X48589360Y-34438432D01*
X48589360Y-34538432D01*
X48389360Y-34538432D01*
X48389360Y-34438432D01*
D11*
X41910000Y-30480000D02*
X39370000Y-30480000D01*
X39370000Y-30480000D02*
X39370000Y-48260000D01*
X39370000Y-48260000D02*
X41910000Y-48260000D01*
X41910000Y-45720000D02*
X41910000Y-48260000D01*
D10*
%TO.C,REF\u002A\u002A*%
X87630000Y-41345000D02*
X87630000Y-29845000D01*
X117630000Y-29845000D02*
X117630000Y-41345000D01*
X87630000Y-29845000D02*
X117630000Y-29845000D01*
X87630000Y-41345000D02*
X117630000Y-41345000D01*
D12*
X89730000Y-31945000D02*
X112110000Y-31945000D01*
X89730000Y-31945000D02*
X89730000Y-37525000D01*
X89730000Y-37525000D02*
X112110000Y-37525000D01*
X112110000Y-31945000D02*
X112110000Y-37525000D01*
X113630000Y-29845000D02*
X113630000Y-41345000D01*
D13*
%TO.C,SW43*%
X151470000Y-36790000D02*
G75*
G03*
X151470000Y-36790000I-3000000J0D01*
G01*
X150470000Y-30890000D02*
X154570000Y-30890000D01*
X154570000Y-42690000D02*
X150470000Y-42690000D01*
X146470000Y-42690000D02*
X142370000Y-42690000D01*
X146470000Y-30890000D02*
X142370000Y-30890000D01*
X142370000Y-30890000D02*
X142370000Y-42690000D01*
X140970000Y-32990000D02*
X140670000Y-32690000D01*
X140670000Y-32690000D02*
X141270000Y-32690000D01*
X141270000Y-32690000D02*
X140970000Y-32990000D01*
X154570000Y-30890000D02*
X154570000Y-33290000D01*
X154570000Y-35490000D02*
X154570000Y-38090000D01*
X154570000Y-40290000D02*
X154570000Y-42690000D01*
X148470000Y-36290000D02*
X148470000Y-37290000D01*
X147970000Y-36790000D02*
X148970000Y-36790000D01*
%TO.C,SW45*%
X182610000Y-42965000D02*
X187110000Y-42965000D01*
X181360000Y-38965000D02*
X181360000Y-40465000D01*
X187110000Y-36465000D02*
X182610000Y-36465000D01*
X188360000Y-40465000D02*
X188360000Y-38965000D01*
%TO.C,SW10*%
X79895000Y-55765000D02*
X79895000Y-69965000D01*
X79895000Y-69965000D02*
X94095000Y-69965000D01*
X94095000Y-69965000D02*
X94095000Y-55765000D01*
X94095000Y-55765000D02*
X79895000Y-55765000D01*
%TO.C,SW44*%
X170520000Y-36790000D02*
G75*
G03*
X170520000Y-36790000I-3000000J0D01*
G01*
X169520000Y-30890000D02*
X173620000Y-30890000D01*
X173620000Y-42690000D02*
X169520000Y-42690000D01*
X165520000Y-42690000D02*
X161420000Y-42690000D01*
X165520000Y-30890000D02*
X161420000Y-30890000D01*
X161420000Y-30890000D02*
X161420000Y-42690000D01*
X160020000Y-32990000D02*
X159720000Y-32690000D01*
X159720000Y-32690000D02*
X160320000Y-32690000D01*
X160320000Y-32690000D02*
X160020000Y-32990000D01*
X173620000Y-30890000D02*
X173620000Y-33290000D01*
X173620000Y-35490000D02*
X173620000Y-38090000D01*
X173620000Y-40290000D02*
X173620000Y-42690000D01*
X167520000Y-36290000D02*
X167520000Y-37290000D01*
X167020000Y-36790000D02*
X168020000Y-36790000D01*
%TO.C,SW7*%
X132420000Y-36790000D02*
G75*
G03*
X132420000Y-36790000I-3000000J0D01*
G01*
X131420000Y-30890000D02*
X135520000Y-30890000D01*
X135520000Y-42690000D02*
X131420000Y-42690000D01*
X127420000Y-42690000D02*
X123320000Y-42690000D01*
X127420000Y-30890000D02*
X123320000Y-30890000D01*
X123320000Y-30890000D02*
X123320000Y-42690000D01*
X121920000Y-32990000D02*
X121620000Y-32690000D01*
X121620000Y-32690000D02*
X122220000Y-32690000D01*
X122220000Y-32690000D02*
X121920000Y-32990000D01*
X135520000Y-30890000D02*
X135520000Y-33290000D01*
X135520000Y-35490000D02*
X135520000Y-38090000D01*
X135520000Y-40290000D02*
X135520000Y-42690000D01*
X129420000Y-36290000D02*
X129420000Y-37290000D01*
X128920000Y-36790000D02*
X129920000Y-36790000D01*
%TO.C,J1*%
X85785000Y-40700000D02*
X84455000Y-40700000D01*
X85785000Y-39370000D02*
X85785000Y-40700000D01*
X85785000Y-38100000D02*
X83125000Y-38100000D01*
X83125000Y-38100000D02*
X83125000Y-30420000D01*
X85785000Y-38100000D02*
X85785000Y-30420000D01*
X85785000Y-30420000D02*
X83125000Y-30420000D01*
%TO.C,SW40*%
X189345000Y-84340000D02*
X175145000Y-84340000D01*
X189345000Y-98540000D02*
X189345000Y-84340000D01*
X175145000Y-98540000D02*
X189345000Y-98540000D01*
X175145000Y-84340000D02*
X175145000Y-98540000D01*
%TO.C,SW39*%
X175145000Y-55765000D02*
X175145000Y-69965000D01*
X175145000Y-69965000D02*
X189345000Y-69965000D01*
X189345000Y-69965000D02*
X189345000Y-55765000D01*
X189345000Y-55765000D02*
X175145000Y-55765000D01*
%TO.C,SW38*%
X170295000Y-160540000D02*
X156095000Y-160540000D01*
X170295000Y-174740000D02*
X170295000Y-160540000D01*
X156095000Y-174740000D02*
X170295000Y-174740000D01*
X156095000Y-160540000D02*
X156095000Y-174740000D01*
%TO.C,SW37*%
X170295000Y-141490000D02*
X156095000Y-141490000D01*
X170295000Y-155690000D02*
X170295000Y-141490000D01*
X156095000Y-155690000D02*
X170295000Y-155690000D01*
X156095000Y-141490000D02*
X156095000Y-155690000D01*
%TO.C,SW36*%
X170295000Y-122440000D02*
X156095000Y-122440000D01*
X170295000Y-136640000D02*
X170295000Y-122440000D01*
X156095000Y-136640000D02*
X170295000Y-136640000D01*
X156095000Y-122440000D02*
X156095000Y-136640000D01*
%TO.C,SW35*%
X170295000Y-103390000D02*
X156095000Y-103390000D01*
X170295000Y-117590000D02*
X170295000Y-103390000D01*
X156095000Y-117590000D02*
X170295000Y-117590000D01*
X156095000Y-103390000D02*
X156095000Y-117590000D01*
%TO.C,SW34*%
X170295000Y-84340000D02*
X156095000Y-84340000D01*
X170295000Y-98540000D02*
X170295000Y-84340000D01*
X156095000Y-98540000D02*
X170295000Y-98540000D01*
X156095000Y-84340000D02*
X156095000Y-98540000D01*
%TO.C,SW33*%
X156095000Y-55765000D02*
X156095000Y-69965000D01*
X156095000Y-69965000D02*
X170295000Y-69965000D01*
X170295000Y-69965000D02*
X170295000Y-55765000D01*
X170295000Y-55765000D02*
X156095000Y-55765000D01*
%TO.C,SW32*%
X151245000Y-141490000D02*
X137045000Y-141490000D01*
X151245000Y-155690000D02*
X151245000Y-141490000D01*
X137045000Y-155690000D02*
X151245000Y-155690000D01*
X137045000Y-141490000D02*
X137045000Y-155690000D01*
%TO.C,SW31*%
X151245000Y-122440000D02*
X137045000Y-122440000D01*
X151245000Y-136640000D02*
X151245000Y-122440000D01*
X137045000Y-136640000D02*
X151245000Y-136640000D01*
X137045000Y-122440000D02*
X137045000Y-136640000D01*
%TO.C,SW30*%
X151245000Y-103390000D02*
X137045000Y-103390000D01*
X151245000Y-117590000D02*
X151245000Y-103390000D01*
X137045000Y-117590000D02*
X151245000Y-117590000D01*
X137045000Y-103390000D02*
X137045000Y-117590000D01*
%TO.C,SW29*%
X151245000Y-84340000D02*
X137045000Y-84340000D01*
X151245000Y-98540000D02*
X151245000Y-84340000D01*
X137045000Y-98540000D02*
X151245000Y-98540000D01*
X137045000Y-84340000D02*
X137045000Y-98540000D01*
%TO.C,SW28*%
X137045000Y-55765000D02*
X137045000Y-69965000D01*
X137045000Y-69965000D02*
X151245000Y-69965000D01*
X151245000Y-69965000D02*
X151245000Y-55765000D01*
X151245000Y-55765000D02*
X137045000Y-55765000D01*
%TO.C,SW26*%
X132195000Y-141490000D02*
X117995000Y-141490000D01*
X132195000Y-155690000D02*
X132195000Y-141490000D01*
X117995000Y-155690000D02*
X132195000Y-155690000D01*
X117995000Y-141490000D02*
X117995000Y-155690000D01*
%TO.C,SW25*%
X132195000Y-122440000D02*
X117995000Y-122440000D01*
X132195000Y-136640000D02*
X132195000Y-122440000D01*
X117995000Y-136640000D02*
X132195000Y-136640000D01*
X117995000Y-122440000D02*
X117995000Y-136640000D01*
%TO.C,SW24*%
X132195000Y-103390000D02*
X117995000Y-103390000D01*
X132195000Y-117590000D02*
X132195000Y-103390000D01*
X117995000Y-117590000D02*
X132195000Y-117590000D01*
X117995000Y-103390000D02*
X117995000Y-117590000D01*
%TO.C,SW23*%
X132195000Y-84340000D02*
X117995000Y-84340000D01*
X132195000Y-98540000D02*
X132195000Y-84340000D01*
X117995000Y-98540000D02*
X132195000Y-98540000D01*
X117995000Y-84340000D02*
X117995000Y-98540000D01*
%TO.C,SW22*%
X117995000Y-55765000D02*
X117995000Y-69965000D01*
X117995000Y-69965000D02*
X132195000Y-69965000D01*
X132195000Y-69965000D02*
X132195000Y-55765000D01*
X132195000Y-55765000D02*
X117995000Y-55765000D01*
%TO.C,SW21*%
X113145000Y-160540000D02*
X98945000Y-160540000D01*
X113145000Y-174740000D02*
X113145000Y-160540000D01*
X98945000Y-174740000D02*
X113145000Y-174740000D01*
X98945000Y-160540000D02*
X98945000Y-174740000D01*
%TO.C,SW20*%
X113145000Y-141490000D02*
X98945000Y-141490000D01*
X113145000Y-155690000D02*
X113145000Y-141490000D01*
X98945000Y-155690000D02*
X113145000Y-155690000D01*
X98945000Y-141490000D02*
X98945000Y-155690000D01*
%TO.C,SW19*%
X113145000Y-122440000D02*
X98945000Y-122440000D01*
X113145000Y-136640000D02*
X113145000Y-122440000D01*
X98945000Y-136640000D02*
X113145000Y-136640000D01*
X98945000Y-122440000D02*
X98945000Y-136640000D01*
%TO.C,SW18*%
X113145000Y-103390000D02*
X98945000Y-103390000D01*
X113145000Y-117590000D02*
X113145000Y-103390000D01*
X98945000Y-117590000D02*
X113145000Y-117590000D01*
X98945000Y-103390000D02*
X98945000Y-117590000D01*
%TO.C,SW17*%
X113145000Y-84340000D02*
X98945000Y-84340000D01*
X113145000Y-98540000D02*
X113145000Y-84340000D01*
X98945000Y-98540000D02*
X113145000Y-98540000D01*
X98945000Y-84340000D02*
X98945000Y-98540000D01*
%TO.C,SW16*%
X98945000Y-55765000D02*
X98945000Y-69965000D01*
X98945000Y-69965000D02*
X113145000Y-69965000D01*
X113145000Y-69965000D02*
X113145000Y-55765000D01*
X113145000Y-55765000D02*
X98945000Y-55765000D01*
%TO.C,SW15*%
X94095000Y-160540000D02*
X79895000Y-160540000D01*
X94095000Y-174740000D02*
X94095000Y-160540000D01*
X79895000Y-174740000D02*
X94095000Y-174740000D01*
X79895000Y-160540000D02*
X79895000Y-174740000D01*
%TO.C,SW14*%
X94095000Y-141490000D02*
X79895000Y-141490000D01*
X94095000Y-155690000D02*
X94095000Y-141490000D01*
X79895000Y-155690000D02*
X94095000Y-155690000D01*
X79895000Y-141490000D02*
X79895000Y-155690000D01*
%TO.C,SW13*%
X94095000Y-122440000D02*
X79895000Y-122440000D01*
X94095000Y-136640000D02*
X94095000Y-122440000D01*
X79895000Y-136640000D02*
X94095000Y-136640000D01*
X79895000Y-122440000D02*
X79895000Y-136640000D01*
%TO.C,SW12*%
X94095000Y-103390000D02*
X79895000Y-103390000D01*
X94095000Y-117590000D02*
X94095000Y-103390000D01*
X79895000Y-117590000D02*
X94095000Y-117590000D01*
X79895000Y-103390000D02*
X79895000Y-117590000D01*
%TO.C,SW11*%
X94095000Y-84340000D02*
X79895000Y-84340000D01*
X94095000Y-98540000D02*
X94095000Y-84340000D01*
X79895000Y-98540000D02*
X94095000Y-98540000D01*
X79895000Y-84340000D02*
X79895000Y-98540000D01*
%TO.C,SW9*%
X75045000Y-160540000D02*
X60845000Y-160540000D01*
X75045000Y-174740000D02*
X75045000Y-160540000D01*
X60845000Y-174740000D02*
X75045000Y-174740000D01*
X60845000Y-160540000D02*
X60845000Y-174740000D01*
%TO.C,SW8*%
X75045000Y-84340000D02*
X60845000Y-84340000D01*
X75045000Y-98540000D02*
X75045000Y-84340000D01*
X60845000Y-98540000D02*
X75045000Y-98540000D01*
X60845000Y-84340000D02*
X60845000Y-98540000D01*
%TO.C,SW6*%
X55995000Y-160540000D02*
X41795000Y-160540000D01*
X55995000Y-174740000D02*
X55995000Y-160540000D01*
X41795000Y-174740000D02*
X55995000Y-174740000D01*
X41795000Y-160540000D02*
X41795000Y-174740000D01*
%TO.C,SW2*%
X55995000Y-84340000D02*
X41795000Y-84340000D01*
X55995000Y-98540000D02*
X55995000Y-84340000D01*
X41795000Y-98540000D02*
X55995000Y-98540000D01*
X41795000Y-84340000D02*
X41795000Y-98540000D01*
%TO.C,SW1*%
X41795000Y-55765000D02*
X41795000Y-69965000D01*
X41795000Y-69965000D02*
X55995000Y-69965000D01*
X55995000Y-69965000D02*
X55995000Y-55765000D01*
X55995000Y-55765000D02*
X41795000Y-55765000D01*
%TO.C,U1*%
D10*
X69911904Y-42500476D02*
X69111904Y-42500476D01*
X69111904Y-42310000D01*
X69150000Y-42195714D01*
X69226190Y-42119523D01*
X69302380Y-42081428D01*
X69454761Y-42043333D01*
X69569047Y-42043333D01*
X69721428Y-42081428D01*
X69797619Y-42119523D01*
X69873809Y-42195714D01*
X69911904Y-42310000D01*
X69911904Y-42500476D01*
X69111904Y-41319523D02*
X69111904Y-41700476D01*
X69492857Y-41738571D01*
X69454761Y-41700476D01*
X69416666Y-41624285D01*
X69416666Y-41433809D01*
X69454761Y-41357619D01*
X69492857Y-41319523D01*
X69569047Y-41281428D01*
X69759523Y-41281428D01*
X69835714Y-41319523D01*
X69873809Y-41357619D01*
X69911904Y-41433809D01*
X69911904Y-41624285D01*
X69873809Y-41700476D01*
X69835714Y-41738571D01*
X69492857Y-37096666D02*
X69492857Y-37363333D01*
X69911904Y-37363333D02*
X69111904Y-37363333D01*
X69111904Y-36982380D01*
X69911904Y-36258571D02*
X69911904Y-36715714D01*
X69911904Y-36487142D02*
X69111904Y-36487142D01*
X69226190Y-36563333D01*
X69302380Y-36639523D01*
X69340476Y-36715714D01*
X69835714Y-39503333D02*
X69873809Y-39541428D01*
X69911904Y-39655714D01*
X69911904Y-39731904D01*
X69873809Y-39846190D01*
X69797619Y-39922380D01*
X69721428Y-39960476D01*
X69569047Y-39998571D01*
X69454761Y-39998571D01*
X69302380Y-39960476D01*
X69226190Y-39922380D01*
X69150000Y-39846190D01*
X69111904Y-39731904D01*
X69111904Y-39655714D01*
X69150000Y-39541428D01*
X69188095Y-39503333D01*
X69111904Y-39236666D02*
X69111904Y-38703333D01*
X69911904Y-39046190D01*
X70014991Y-33205702D02*
X69967851Y-33111421D01*
X69967851Y-33064280D01*
X69991421Y-32993570D01*
X70062132Y-32922859D01*
X70132842Y-32899289D01*
X70179983Y-32899289D01*
X70250693Y-32922859D01*
X70439255Y-33111421D01*
X69944280Y-33606396D01*
X69779289Y-33441404D01*
X69755719Y-33370693D01*
X69755719Y-33323553D01*
X69779289Y-33252842D01*
X69826429Y-33205702D01*
X69897140Y-33182132D01*
X69944280Y-33182132D01*
X70014991Y-33205702D01*
X70179983Y-33370693D01*
X69237174Y-32899289D02*
X69331455Y-32993570D01*
X69402165Y-33017140D01*
X69449306Y-33017140D01*
X69567157Y-32993570D01*
X69685008Y-32922859D01*
X69873570Y-32734297D01*
X69897140Y-32663587D01*
X69897140Y-32616446D01*
X69873570Y-32545735D01*
X69779289Y-32451455D01*
X69708578Y-32427884D01*
X69661438Y-32427884D01*
X69590727Y-32451455D01*
X69472876Y-32569306D01*
X69449306Y-32640016D01*
X69449306Y-32687157D01*
X69472876Y-32757867D01*
X69567157Y-32852148D01*
X69637867Y-32875719D01*
X69685008Y-32875719D01*
X69755719Y-32852148D01*
X69700000Y-35103333D02*
X69700000Y-35336666D01*
X70066666Y-35336666D02*
X69366666Y-35336666D01*
X69366666Y-35003333D01*
X69366666Y-34603333D02*
X69366666Y-34536666D01*
X69400000Y-34470000D01*
X69433333Y-34436666D01*
X69500000Y-34403333D01*
X69633333Y-34370000D01*
X69800000Y-34370000D01*
X69933333Y-34403333D01*
X70000000Y-34436666D01*
X70033333Y-34470000D01*
X70066666Y-34536666D01*
X70066666Y-34603333D01*
X70033333Y-34670000D01*
X70000000Y-34703333D01*
X69933333Y-34736666D01*
X69800000Y-34770000D01*
X69633333Y-34770000D01*
X69500000Y-34736666D01*
X69433333Y-34703333D01*
X69400000Y-34670000D01*
X69366666Y-34603333D01*
X69700000Y-44153333D02*
X69733333Y-44053333D01*
X69766666Y-44020000D01*
X69833333Y-43986666D01*
X69933333Y-43986666D01*
X70000000Y-44020000D01*
X70033333Y-44053333D01*
X70066666Y-44120000D01*
X70066666Y-44386666D01*
X69366666Y-44386666D01*
X69366666Y-44153333D01*
X69400000Y-44086666D01*
X69433333Y-44053333D01*
X69500000Y-44020000D01*
X69566666Y-44020000D01*
X69633333Y-44053333D01*
X69666666Y-44086666D01*
X69700000Y-44153333D01*
X69700000Y-44386666D01*
X69366666Y-43753333D02*
X69366666Y-43286666D01*
X70066666Y-43586666D01*
X42741904Y-45132348D02*
X42741904Y-44675205D01*
X43541904Y-44903776D02*
X42741904Y-44903776D01*
X42741904Y-44484729D02*
X43541904Y-43951395D01*
X42741904Y-43951395D02*
X43541904Y-44484729D01*
X42741904Y-43494252D02*
X42741904Y-43418062D01*
X42780000Y-43341872D01*
X42818095Y-43303776D01*
X42894285Y-43265681D01*
X43046666Y-43227586D01*
X43237142Y-43227586D01*
X43389523Y-43265681D01*
X43465714Y-43303776D01*
X43503809Y-43341872D01*
X43541904Y-43418062D01*
X43541904Y-43494252D01*
X43503809Y-43570443D01*
X43465714Y-43608538D01*
X43389523Y-43646633D01*
X43237142Y-43684729D01*
X43046666Y-43684729D01*
X42894285Y-43646633D01*
X42818095Y-43608538D01*
X42780000Y-43570443D01*
X42741904Y-43494252D01*
X42703809Y-42313300D02*
X43732380Y-42999014D01*
X43541904Y-42046633D02*
X42741904Y-42046633D01*
X42741904Y-41856157D01*
X42780000Y-41741872D01*
X42856190Y-41665681D01*
X42932380Y-41627586D01*
X43084761Y-41589491D01*
X43199047Y-41589491D01*
X43351428Y-41627586D01*
X43427619Y-41665681D01*
X43503809Y-41741872D01*
X43541904Y-41856157D01*
X43541904Y-42046633D01*
X42741904Y-41322824D02*
X42741904Y-40827586D01*
X43046666Y-41094252D01*
X43046666Y-40979967D01*
X43084761Y-40903776D01*
X43122857Y-40865681D01*
X43199047Y-40827586D01*
X43389523Y-40827586D01*
X43465714Y-40865681D01*
X43503809Y-40903776D01*
X43541904Y-40979967D01*
X43541904Y-41208538D01*
X43503809Y-41284729D01*
X43465714Y-41322824D01*
X46081904Y-45421476D02*
X45281904Y-45421476D01*
X45281904Y-45231000D01*
X45320000Y-45116714D01*
X45396190Y-45040523D01*
X45472380Y-45002428D01*
X45624761Y-44964333D01*
X45739047Y-44964333D01*
X45891428Y-45002428D01*
X45967619Y-45040523D01*
X46043809Y-45116714D01*
X46081904Y-45231000D01*
X46081904Y-45421476D01*
X45358095Y-44659571D02*
X45320000Y-44621476D01*
X45281904Y-44545285D01*
X45281904Y-44354809D01*
X45320000Y-44278619D01*
X45358095Y-44240523D01*
X45434285Y-44202428D01*
X45510476Y-44202428D01*
X45624761Y-44240523D01*
X46081904Y-44697666D01*
X46081904Y-44202428D01*
X56241904Y-45421476D02*
X55441904Y-45421476D01*
X55441904Y-45231000D01*
X55480000Y-45116714D01*
X55556190Y-45040523D01*
X55632380Y-45002428D01*
X55784761Y-44964333D01*
X55899047Y-44964333D01*
X56051428Y-45002428D01*
X56127619Y-45040523D01*
X56203809Y-45116714D01*
X56241904Y-45231000D01*
X56241904Y-45421476D01*
X55441904Y-44469095D02*
X55441904Y-44392904D01*
X55480000Y-44316714D01*
X55518095Y-44278619D01*
X55594285Y-44240523D01*
X55746666Y-44202428D01*
X55937142Y-44202428D01*
X56089523Y-44240523D01*
X56165714Y-44278619D01*
X56203809Y-44316714D01*
X56241904Y-44392904D01*
X56241904Y-44469095D01*
X56203809Y-44545285D01*
X56165714Y-44583380D01*
X56089523Y-44621476D01*
X55937142Y-44659571D01*
X55746666Y-44659571D01*
X55594285Y-44621476D01*
X55518095Y-44583380D01*
X55480000Y-44545285D01*
X55441904Y-44469095D01*
X53701904Y-45421476D02*
X52901904Y-45421476D01*
X52901904Y-45231000D01*
X52940000Y-45116714D01*
X53016190Y-45040523D01*
X53092380Y-45002428D01*
X53244761Y-44964333D01*
X53359047Y-44964333D01*
X53511428Y-45002428D01*
X53587619Y-45040523D01*
X53663809Y-45116714D01*
X53701904Y-45231000D01*
X53701904Y-45421476D01*
X53701904Y-44202428D02*
X53701904Y-44659571D01*
X53701904Y-44431000D02*
X52901904Y-44431000D01*
X53016190Y-44507190D01*
X53092380Y-44583380D01*
X53130476Y-44659571D01*
X50400000Y-45440523D02*
X50361904Y-45516714D01*
X50361904Y-45631000D01*
X50400000Y-45745285D01*
X50476190Y-45821476D01*
X50552380Y-45859571D01*
X50704761Y-45897666D01*
X50819047Y-45897666D01*
X50971428Y-45859571D01*
X51047619Y-45821476D01*
X51123809Y-45745285D01*
X51161904Y-45631000D01*
X51161904Y-45554809D01*
X51123809Y-45440523D01*
X51085714Y-45402428D01*
X50819047Y-45402428D01*
X50819047Y-45554809D01*
X51161904Y-45059571D02*
X50361904Y-45059571D01*
X51161904Y-44602428D01*
X50361904Y-44602428D01*
X51161904Y-44221476D02*
X50361904Y-44221476D01*
X50361904Y-44031000D01*
X50400000Y-43916714D01*
X50476190Y-43840523D01*
X50552380Y-43802428D01*
X50704761Y-43764333D01*
X50819047Y-43764333D01*
X50971428Y-43802428D01*
X51047619Y-43840523D01*
X51123809Y-43916714D01*
X51161904Y-44031000D01*
X51161904Y-44221476D01*
X47860000Y-45440523D02*
X47821904Y-45516714D01*
X47821904Y-45631000D01*
X47860000Y-45745285D01*
X47936190Y-45821476D01*
X48012380Y-45859571D01*
X48164761Y-45897666D01*
X48279047Y-45897666D01*
X48431428Y-45859571D01*
X48507619Y-45821476D01*
X48583809Y-45745285D01*
X48621904Y-45631000D01*
X48621904Y-45554809D01*
X48583809Y-45440523D01*
X48545714Y-45402428D01*
X48279047Y-45402428D01*
X48279047Y-45554809D01*
X48621904Y-45059571D02*
X47821904Y-45059571D01*
X48621904Y-44602428D01*
X47821904Y-44602428D01*
X48621904Y-44221476D02*
X47821904Y-44221476D01*
X47821904Y-44031000D01*
X47860000Y-43916714D01*
X47936190Y-43840523D01*
X48012380Y-43802428D01*
X48164761Y-43764333D01*
X48279047Y-43764333D01*
X48431428Y-43802428D01*
X48507619Y-43840523D01*
X48583809Y-43916714D01*
X48621904Y-44031000D01*
X48621904Y-44221476D01*
X58781904Y-45421476D02*
X57981904Y-45421476D01*
X57981904Y-45231000D01*
X58020000Y-45116714D01*
X58096190Y-45040523D01*
X58172380Y-45002428D01*
X58324761Y-44964333D01*
X58439047Y-44964333D01*
X58591428Y-45002428D01*
X58667619Y-45040523D01*
X58743809Y-45116714D01*
X58781904Y-45231000D01*
X58781904Y-45421476D01*
X58248571Y-44278619D02*
X58781904Y-44278619D01*
X57943809Y-44469095D02*
X58515238Y-44659571D01*
X58515238Y-44164333D01*
X61245714Y-44964333D02*
X61283809Y-45002428D01*
X61321904Y-45116714D01*
X61321904Y-45192904D01*
X61283809Y-45307190D01*
X61207619Y-45383380D01*
X61131428Y-45421476D01*
X60979047Y-45459571D01*
X60864761Y-45459571D01*
X60712380Y-45421476D01*
X60636190Y-45383380D01*
X60560000Y-45307190D01*
X60521904Y-45192904D01*
X60521904Y-45116714D01*
X60560000Y-45002428D01*
X60598095Y-44964333D01*
X60521904Y-44278619D02*
X60521904Y-44431000D01*
X60560000Y-44507190D01*
X60598095Y-44545285D01*
X60712380Y-44621476D01*
X60864761Y-44659571D01*
X61169523Y-44659571D01*
X61245714Y-44621476D01*
X61283809Y-44583380D01*
X61321904Y-44507190D01*
X61321904Y-44354809D01*
X61283809Y-44278619D01*
X61245714Y-44240523D01*
X61169523Y-44202428D01*
X60979047Y-44202428D01*
X60902857Y-44240523D01*
X60864761Y-44278619D01*
X60826666Y-44354809D01*
X60826666Y-44507190D01*
X60864761Y-44583380D01*
X60902857Y-44621476D01*
X60979047Y-44659571D01*
X63861904Y-45421476D02*
X63061904Y-45421476D01*
X63061904Y-45231000D01*
X63100000Y-45116714D01*
X63176190Y-45040523D01*
X63252380Y-45002428D01*
X63404761Y-44964333D01*
X63519047Y-44964333D01*
X63671428Y-45002428D01*
X63747619Y-45040523D01*
X63823809Y-45116714D01*
X63861904Y-45231000D01*
X63861904Y-45421476D01*
X63061904Y-44697666D02*
X63061904Y-44164333D01*
X63861904Y-44507190D01*
X65982857Y-45383380D02*
X65982857Y-45116714D01*
X66401904Y-45002428D02*
X66401904Y-45383380D01*
X65601904Y-45383380D01*
X65601904Y-45002428D01*
X65601904Y-44316714D02*
X65601904Y-44469095D01*
X65640000Y-44545285D01*
X65678095Y-44583380D01*
X65792380Y-44659571D01*
X65944761Y-44697666D01*
X66249523Y-44697666D01*
X66325714Y-44659571D01*
X66363809Y-44621476D01*
X66401904Y-44545285D01*
X66401904Y-44392904D01*
X66363809Y-44316714D01*
X66325714Y-44278619D01*
X66249523Y-44240523D01*
X66059047Y-44240523D01*
X65982857Y-44278619D01*
X65944761Y-44316714D01*
X65906666Y-44392904D01*
X65906666Y-44545285D01*
X65944761Y-44621476D01*
X65982857Y-44659571D01*
X66059047Y-44697666D01*
X68522857Y-45154809D02*
X68560952Y-45040523D01*
X68599047Y-45002428D01*
X68675238Y-44964333D01*
X68789523Y-44964333D01*
X68865714Y-45002428D01*
X68903809Y-45040523D01*
X68941904Y-45116714D01*
X68941904Y-45421476D01*
X68141904Y-45421476D01*
X68141904Y-45154809D01*
X68180000Y-45078619D01*
X68218095Y-45040523D01*
X68294285Y-45002428D01*
X68370476Y-45002428D01*
X68446666Y-45040523D01*
X68484761Y-45078619D01*
X68522857Y-45154809D01*
X68522857Y-45421476D01*
X68408571Y-44278619D02*
X68941904Y-44278619D01*
X68103809Y-44469095D02*
X68675238Y-44659571D01*
X68675238Y-44164333D01*
X69614297Y-45934991D02*
X69708578Y-45887851D01*
X69755719Y-45887851D01*
X69826429Y-45911421D01*
X69897140Y-45982132D01*
X69920710Y-46052842D01*
X69920710Y-46099983D01*
X69897140Y-46170693D01*
X69708578Y-46359255D01*
X69213603Y-45864280D01*
X69378595Y-45699289D01*
X69449306Y-45675719D01*
X69496446Y-45675719D01*
X69567157Y-45699289D01*
X69614297Y-45746429D01*
X69637867Y-45817140D01*
X69637867Y-45864280D01*
X69614297Y-45934991D01*
X69449306Y-46099983D01*
X69944280Y-45133603D02*
X69708578Y-45369306D01*
X69920710Y-45628578D01*
X69920710Y-45581438D01*
X69944280Y-45510727D01*
X70062132Y-45392876D01*
X70132842Y-45369306D01*
X70179983Y-45369306D01*
X70250693Y-45392876D01*
X70368544Y-45510727D01*
X70392115Y-45581438D01*
X70392115Y-45628578D01*
X70368544Y-45699289D01*
X70250693Y-45817140D01*
X70179983Y-45840710D01*
X70132842Y-45840710D01*
X65982857Y-34232809D02*
X66020952Y-34118523D01*
X66059047Y-34080428D01*
X66135238Y-34042333D01*
X66249523Y-34042333D01*
X66325714Y-34080428D01*
X66363809Y-34118523D01*
X66401904Y-34194714D01*
X66401904Y-34499476D01*
X65601904Y-34499476D01*
X65601904Y-34232809D01*
X65640000Y-34156619D01*
X65678095Y-34118523D01*
X65754285Y-34080428D01*
X65830476Y-34080428D01*
X65906666Y-34118523D01*
X65944761Y-34156619D01*
X65982857Y-34232809D01*
X65982857Y-34499476D01*
X65601904Y-33775666D02*
X65601904Y-33280428D01*
X65906666Y-33547095D01*
X65906666Y-33432809D01*
X65944761Y-33356619D01*
X65982857Y-33318523D01*
X66059047Y-33280428D01*
X66249523Y-33280428D01*
X66325714Y-33318523D01*
X66363809Y-33356619D01*
X66401904Y-33432809D01*
X66401904Y-33661380D01*
X66363809Y-33737571D01*
X66325714Y-33775666D01*
X63442857Y-34232809D02*
X63480952Y-34118523D01*
X63519047Y-34080428D01*
X63595238Y-34042333D01*
X63709523Y-34042333D01*
X63785714Y-34080428D01*
X63823809Y-34118523D01*
X63861904Y-34194714D01*
X63861904Y-34499476D01*
X63061904Y-34499476D01*
X63061904Y-34232809D01*
X63100000Y-34156619D01*
X63138095Y-34118523D01*
X63214285Y-34080428D01*
X63290476Y-34080428D01*
X63366666Y-34118523D01*
X63404761Y-34156619D01*
X63442857Y-34232809D01*
X63442857Y-34499476D01*
X63861904Y-33280428D02*
X63861904Y-33737571D01*
X63861904Y-33509000D02*
X63061904Y-33509000D01*
X63176190Y-33585190D01*
X63252380Y-33661380D01*
X63290476Y-33737571D01*
X53282857Y-34175666D02*
X53282857Y-34442333D01*
X53701904Y-34442333D02*
X52901904Y-34442333D01*
X52901904Y-34061380D01*
X53168571Y-33413761D02*
X53701904Y-33413761D01*
X52863809Y-33604238D02*
X53435238Y-33794714D01*
X53435238Y-33299476D01*
X50361904Y-34975666D02*
X51161904Y-34709000D01*
X50361904Y-34442333D01*
X51085714Y-33718523D02*
X51123809Y-33756619D01*
X51161904Y-33870904D01*
X51161904Y-33947095D01*
X51123809Y-34061380D01*
X51047619Y-34137571D01*
X50971428Y-34175666D01*
X50819047Y-34213761D01*
X50704761Y-34213761D01*
X50552380Y-34175666D01*
X50476190Y-34137571D01*
X50400000Y-34061380D01*
X50361904Y-33947095D01*
X50361904Y-33870904D01*
X50400000Y-33756619D01*
X50438095Y-33718523D01*
X51085714Y-32918523D02*
X51123809Y-32956619D01*
X51161904Y-33070904D01*
X51161904Y-33147095D01*
X51123809Y-33261380D01*
X51047619Y-33337571D01*
X50971428Y-33375666D01*
X50819047Y-33413761D01*
X50704761Y-33413761D01*
X50552380Y-33375666D01*
X50476190Y-33337571D01*
X50400000Y-33261380D01*
X50361904Y-33147095D01*
X50361904Y-33070904D01*
X50400000Y-32956619D01*
X50438095Y-32918523D01*
X48553809Y-34170213D02*
X48591904Y-34055927D01*
X48591904Y-33865451D01*
X48553809Y-33789260D01*
X48515714Y-33751165D01*
X48439523Y-33713070D01*
X48363333Y-33713070D01*
X48287142Y-33751165D01*
X48249047Y-33789260D01*
X48210952Y-33865451D01*
X48172857Y-34017832D01*
X48134761Y-34094022D01*
X48096666Y-34132118D01*
X48020476Y-34170213D01*
X47944285Y-34170213D01*
X47868095Y-34132118D01*
X47830000Y-34094022D01*
X47791904Y-34017832D01*
X47791904Y-33827356D01*
X47830000Y-33713070D01*
X47791904Y-33484499D02*
X47791904Y-33027356D01*
X48591904Y-33255927D02*
X47791904Y-33255927D01*
X45320000Y-34518523D02*
X45281904Y-34594714D01*
X45281904Y-34709000D01*
X45320000Y-34823285D01*
X45396190Y-34899476D01*
X45472380Y-34937571D01*
X45624761Y-34975666D01*
X45739047Y-34975666D01*
X45891428Y-34937571D01*
X45967619Y-34899476D01*
X46043809Y-34823285D01*
X46081904Y-34709000D01*
X46081904Y-34632809D01*
X46043809Y-34518523D01*
X46005714Y-34480428D01*
X45739047Y-34480428D01*
X45739047Y-34632809D01*
X46081904Y-34137571D02*
X45281904Y-34137571D01*
X46081904Y-33680428D01*
X45281904Y-33680428D01*
X46081904Y-33299476D02*
X45281904Y-33299476D01*
X45281904Y-33109000D01*
X45320000Y-32994714D01*
X45396190Y-32918523D01*
X45472380Y-32880428D01*
X45624761Y-32842333D01*
X45739047Y-32842333D01*
X45891428Y-32880428D01*
X45967619Y-32918523D01*
X46043809Y-32994714D01*
X46081904Y-33109000D01*
X46081904Y-33299476D01*
X43122857Y-34232809D02*
X43160952Y-34118523D01*
X43199047Y-34080428D01*
X43275238Y-34042333D01*
X43389523Y-34042333D01*
X43465714Y-34080428D01*
X43503809Y-34118523D01*
X43541904Y-34194714D01*
X43541904Y-34499476D01*
X42741904Y-34499476D01*
X42741904Y-34232809D01*
X42780000Y-34156619D01*
X42818095Y-34118523D01*
X42894285Y-34080428D01*
X42970476Y-34080428D01*
X43046666Y-34118523D01*
X43084761Y-34156619D01*
X43122857Y-34232809D01*
X43122857Y-34499476D01*
X42741904Y-33547095D02*
X42741904Y-33470904D01*
X42780000Y-33394714D01*
X42818095Y-33356619D01*
X42894285Y-33318523D01*
X43046666Y-33280428D01*
X43237142Y-33280428D01*
X43389523Y-33318523D01*
X43465714Y-33356619D01*
X43503809Y-33394714D01*
X43541904Y-33470904D01*
X43541904Y-33547095D01*
X43503809Y-33623285D01*
X43465714Y-33661380D01*
X43389523Y-33699476D01*
X43237142Y-33737571D01*
X43046666Y-33737571D01*
X42894285Y-33699476D01*
X42818095Y-33661380D01*
X42780000Y-33623285D01*
X42741904Y-33547095D01*
X55822857Y-34175666D02*
X55822857Y-34442333D01*
X56241904Y-34442333D02*
X55441904Y-34442333D01*
X55441904Y-34061380D01*
X55441904Y-33375666D02*
X55441904Y-33756619D01*
X55822857Y-33794714D01*
X55784761Y-33756619D01*
X55746666Y-33680428D01*
X55746666Y-33489952D01*
X55784761Y-33413761D01*
X55822857Y-33375666D01*
X55899047Y-33337571D01*
X56089523Y-33337571D01*
X56165714Y-33375666D01*
X56203809Y-33413761D01*
X56241904Y-33489952D01*
X56241904Y-33680428D01*
X56203809Y-33756619D01*
X56165714Y-33794714D01*
X58362857Y-34175666D02*
X58362857Y-34442333D01*
X58781904Y-34442333D02*
X57981904Y-34442333D01*
X57981904Y-34061380D01*
X57981904Y-33413761D02*
X57981904Y-33566142D01*
X58020000Y-33642333D01*
X58058095Y-33680428D01*
X58172380Y-33756619D01*
X58324761Y-33794714D01*
X58629523Y-33794714D01*
X58705714Y-33756619D01*
X58743809Y-33718523D01*
X58781904Y-33642333D01*
X58781904Y-33489952D01*
X58743809Y-33413761D01*
X58705714Y-33375666D01*
X58629523Y-33337571D01*
X58439047Y-33337571D01*
X58362857Y-33375666D01*
X58324761Y-33413761D01*
X58286666Y-33489952D01*
X58286666Y-33642333D01*
X58324761Y-33718523D01*
X58362857Y-33756619D01*
X58439047Y-33794714D01*
X60902857Y-34175666D02*
X60902857Y-34442333D01*
X61321904Y-34442333D02*
X60521904Y-34442333D01*
X60521904Y-34061380D01*
X60521904Y-33832809D02*
X60521904Y-33299476D01*
X61321904Y-33642333D01*
X68522857Y-34232809D02*
X68560952Y-34118523D01*
X68599047Y-34080428D01*
X68675238Y-34042333D01*
X68789523Y-34042333D01*
X68865714Y-34080428D01*
X68903809Y-34118523D01*
X68941904Y-34194714D01*
X68941904Y-34499476D01*
X68141904Y-34499476D01*
X68141904Y-34232809D01*
X68180000Y-34156619D01*
X68218095Y-34118523D01*
X68294285Y-34080428D01*
X68370476Y-34080428D01*
X68446666Y-34118523D01*
X68484761Y-34156619D01*
X68522857Y-34232809D01*
X68522857Y-34499476D01*
X68218095Y-33737571D02*
X68180000Y-33699476D01*
X68141904Y-33623285D01*
X68141904Y-33432809D01*
X68180000Y-33356619D01*
X68218095Y-33318523D01*
X68294285Y-33280428D01*
X68370476Y-33280428D01*
X68484761Y-33318523D01*
X68941904Y-33775666D01*
X68941904Y-33280428D01*
%TO.C,REF\u002A\u002A*%
X88074666Y-29281380D02*
X87741333Y-28805190D01*
X87503238Y-29281380D02*
X87503238Y-28281380D01*
X87884190Y-28281380D01*
X87979428Y-28329000D01*
X88027047Y-28376619D01*
X88074666Y-28471857D01*
X88074666Y-28614714D01*
X88027047Y-28709952D01*
X87979428Y-28757571D01*
X87884190Y-28805190D01*
X87503238Y-28805190D01*
X88503238Y-28757571D02*
X88836571Y-28757571D01*
X88979428Y-29281380D02*
X88503238Y-29281380D01*
X88503238Y-28281380D01*
X88979428Y-28281380D01*
X89741333Y-28757571D02*
X89408000Y-28757571D01*
X89408000Y-29281380D02*
X89408000Y-28281380D01*
X89884190Y-28281380D01*
X90408000Y-28281380D02*
X90408000Y-28519476D01*
X90169904Y-28424238D02*
X90408000Y-28519476D01*
X90646095Y-28424238D01*
X90265142Y-28709952D02*
X90408000Y-28519476D01*
X90550857Y-28709952D01*
X91169904Y-28281380D02*
X91169904Y-28519476D01*
X90931809Y-28424238D02*
X91169904Y-28519476D01*
X91408000Y-28424238D01*
X91027047Y-28709952D02*
X91169904Y-28519476D01*
X91312761Y-28709952D01*
%TO.C,SW43*%
X141960476Y-29994761D02*
X142103333Y-30042380D01*
X142341428Y-30042380D01*
X142436666Y-29994761D01*
X142484285Y-29947142D01*
X142531904Y-29851904D01*
X142531904Y-29756666D01*
X142484285Y-29661428D01*
X142436666Y-29613809D01*
X142341428Y-29566190D01*
X142150952Y-29518571D01*
X142055714Y-29470952D01*
X142008095Y-29423333D01*
X141960476Y-29328095D01*
X141960476Y-29232857D01*
X142008095Y-29137619D01*
X142055714Y-29090000D01*
X142150952Y-29042380D01*
X142389047Y-29042380D01*
X142531904Y-29090000D01*
X142865238Y-29042380D02*
X143103333Y-30042380D01*
X143293809Y-29328095D01*
X143484285Y-30042380D01*
X143722380Y-29042380D01*
X144531904Y-29375714D02*
X144531904Y-30042380D01*
X144293809Y-28994761D02*
X144055714Y-29709047D01*
X144674761Y-29709047D01*
X144960476Y-29042380D02*
X145579523Y-29042380D01*
X145246190Y-29423333D01*
X145389047Y-29423333D01*
X145484285Y-29470952D01*
X145531904Y-29518571D01*
X145579523Y-29613809D01*
X145579523Y-29851904D01*
X145531904Y-29947142D01*
X145484285Y-29994761D01*
X145389047Y-30042380D01*
X145103333Y-30042380D01*
X145008095Y-29994761D01*
X144960476Y-29947142D01*
%TO.C,REF\u002A\u002A*%
X38036666Y-174417380D02*
X37703333Y-173941190D01*
X37465238Y-174417380D02*
X37465238Y-173417380D01*
X37846190Y-173417380D01*
X37941428Y-173465000D01*
X37989047Y-173512619D01*
X38036666Y-173607857D01*
X38036666Y-173750714D01*
X37989047Y-173845952D01*
X37941428Y-173893571D01*
X37846190Y-173941190D01*
X37465238Y-173941190D01*
X38465238Y-173893571D02*
X38798571Y-173893571D01*
X38941428Y-174417380D02*
X38465238Y-174417380D01*
X38465238Y-173417380D01*
X38941428Y-173417380D01*
X39703333Y-173893571D02*
X39370000Y-173893571D01*
X39370000Y-174417380D02*
X39370000Y-173417380D01*
X39846190Y-173417380D01*
X40370000Y-173417380D02*
X40370000Y-173655476D01*
X40131904Y-173560238D02*
X40370000Y-173655476D01*
X40608095Y-173560238D01*
X40227142Y-173845952D02*
X40370000Y-173655476D01*
X40512857Y-173845952D01*
X41131904Y-173417380D02*
X41131904Y-173655476D01*
X40893809Y-173560238D02*
X41131904Y-173655476D01*
X41370000Y-173560238D01*
X40989047Y-173845952D02*
X41131904Y-173655476D01*
X41274761Y-173845952D01*
%TO.C,SW45*%
X183050476Y-35869761D02*
X183193333Y-35917380D01*
X183431428Y-35917380D01*
X183526666Y-35869761D01*
X183574285Y-35822142D01*
X183621904Y-35726904D01*
X183621904Y-35631666D01*
X183574285Y-35536428D01*
X183526666Y-35488809D01*
X183431428Y-35441190D01*
X183240952Y-35393571D01*
X183145714Y-35345952D01*
X183098095Y-35298333D01*
X183050476Y-35203095D01*
X183050476Y-35107857D01*
X183098095Y-35012619D01*
X183145714Y-34965000D01*
X183240952Y-34917380D01*
X183479047Y-34917380D01*
X183621904Y-34965000D01*
X183955238Y-34917380D02*
X184193333Y-35917380D01*
X184383809Y-35203095D01*
X184574285Y-35917380D01*
X184812380Y-34917380D01*
X185621904Y-35250714D02*
X185621904Y-35917380D01*
X185383809Y-34869761D02*
X185145714Y-35584047D01*
X185764761Y-35584047D01*
X186621904Y-34917380D02*
X186145714Y-34917380D01*
X186098095Y-35393571D01*
X186145714Y-35345952D01*
X186240952Y-35298333D01*
X186479047Y-35298333D01*
X186574285Y-35345952D01*
X186621904Y-35393571D01*
X186669523Y-35488809D01*
X186669523Y-35726904D01*
X186621904Y-35822142D01*
X186574285Y-35869761D01*
X186479047Y-35917380D01*
X186240952Y-35917380D01*
X186145714Y-35869761D01*
X186098095Y-35822142D01*
%TO.C,REF\u002A\u002A*%
X152336666Y-155367380D02*
X152003333Y-154891190D01*
X151765238Y-155367380D02*
X151765238Y-154367380D01*
X152146190Y-154367380D01*
X152241428Y-154415000D01*
X152289047Y-154462619D01*
X152336666Y-154557857D01*
X152336666Y-154700714D01*
X152289047Y-154795952D01*
X152241428Y-154843571D01*
X152146190Y-154891190D01*
X151765238Y-154891190D01*
X152765238Y-154843571D02*
X153098571Y-154843571D01*
X153241428Y-155367380D02*
X152765238Y-155367380D01*
X152765238Y-154367380D01*
X153241428Y-154367380D01*
X154003333Y-154843571D02*
X153670000Y-154843571D01*
X153670000Y-155367380D02*
X153670000Y-154367380D01*
X154146190Y-154367380D01*
X154670000Y-154367380D02*
X154670000Y-154605476D01*
X154431904Y-154510238D02*
X154670000Y-154605476D01*
X154908095Y-154510238D01*
X154527142Y-154795952D02*
X154670000Y-154605476D01*
X154812857Y-154795952D01*
X155431904Y-154367380D02*
X155431904Y-154605476D01*
X155193809Y-154510238D02*
X155431904Y-154605476D01*
X155670000Y-154510238D01*
X155289047Y-154795952D02*
X155431904Y-154605476D01*
X155574761Y-154795952D01*
X95186666Y-155367380D02*
X94853333Y-154891190D01*
X94615238Y-155367380D02*
X94615238Y-154367380D01*
X94996190Y-154367380D01*
X95091428Y-154415000D01*
X95139047Y-154462619D01*
X95186666Y-154557857D01*
X95186666Y-154700714D01*
X95139047Y-154795952D01*
X95091428Y-154843571D01*
X94996190Y-154891190D01*
X94615238Y-154891190D01*
X95615238Y-154843571D02*
X95948571Y-154843571D01*
X96091428Y-155367380D02*
X95615238Y-155367380D01*
X95615238Y-154367380D01*
X96091428Y-154367380D01*
X96853333Y-154843571D02*
X96520000Y-154843571D01*
X96520000Y-155367380D02*
X96520000Y-154367380D01*
X96996190Y-154367380D01*
X97520000Y-154367380D02*
X97520000Y-154605476D01*
X97281904Y-154510238D02*
X97520000Y-154605476D01*
X97758095Y-154510238D01*
X97377142Y-154795952D02*
X97520000Y-154605476D01*
X97662857Y-154795952D01*
X98281904Y-154367380D02*
X98281904Y-154605476D01*
X98043809Y-154510238D02*
X98281904Y-154605476D01*
X98520000Y-154510238D01*
X98139047Y-154795952D02*
X98281904Y-154605476D01*
X98424761Y-154795952D01*
X65341666Y-60752380D02*
X65008333Y-60276190D01*
X64770238Y-60752380D02*
X64770238Y-59752380D01*
X65151190Y-59752380D01*
X65246428Y-59800000D01*
X65294047Y-59847619D01*
X65341666Y-59942857D01*
X65341666Y-60085714D01*
X65294047Y-60180952D01*
X65246428Y-60228571D01*
X65151190Y-60276190D01*
X64770238Y-60276190D01*
X65770238Y-60228571D02*
X66103571Y-60228571D01*
X66246428Y-60752380D02*
X65770238Y-60752380D01*
X65770238Y-59752380D01*
X66246428Y-59752380D01*
X67008333Y-60228571D02*
X66675000Y-60228571D01*
X66675000Y-60752380D02*
X66675000Y-59752380D01*
X67151190Y-59752380D01*
X67675000Y-59752380D02*
X67675000Y-59990476D01*
X67436904Y-59895238D02*
X67675000Y-59990476D01*
X67913095Y-59895238D01*
X67532142Y-60180952D02*
X67675000Y-59990476D01*
X67817857Y-60180952D01*
X68436904Y-59752380D02*
X68436904Y-59990476D01*
X68198809Y-59895238D02*
X68436904Y-59990476D01*
X68675000Y-59895238D01*
X68294047Y-60180952D02*
X68436904Y-59990476D01*
X68579761Y-60180952D01*
%TO.C,SW44*%
X161010476Y-29994761D02*
X161153333Y-30042380D01*
X161391428Y-30042380D01*
X161486666Y-29994761D01*
X161534285Y-29947142D01*
X161581904Y-29851904D01*
X161581904Y-29756666D01*
X161534285Y-29661428D01*
X161486666Y-29613809D01*
X161391428Y-29566190D01*
X161200952Y-29518571D01*
X161105714Y-29470952D01*
X161058095Y-29423333D01*
X161010476Y-29328095D01*
X161010476Y-29232857D01*
X161058095Y-29137619D01*
X161105714Y-29090000D01*
X161200952Y-29042380D01*
X161439047Y-29042380D01*
X161581904Y-29090000D01*
X161915238Y-29042380D02*
X162153333Y-30042380D01*
X162343809Y-29328095D01*
X162534285Y-30042380D01*
X162772380Y-29042380D01*
X163581904Y-29375714D02*
X163581904Y-30042380D01*
X163343809Y-28994761D02*
X163105714Y-29709047D01*
X163724761Y-29709047D01*
X164534285Y-29375714D02*
X164534285Y-30042380D01*
X164296190Y-28994761D02*
X164058095Y-29709047D01*
X164677142Y-29709047D01*
%TO.C,SW7*%
X123386666Y-29994761D02*
X123529523Y-30042380D01*
X123767619Y-30042380D01*
X123862857Y-29994761D01*
X123910476Y-29947142D01*
X123958095Y-29851904D01*
X123958095Y-29756666D01*
X123910476Y-29661428D01*
X123862857Y-29613809D01*
X123767619Y-29566190D01*
X123577142Y-29518571D01*
X123481904Y-29470952D01*
X123434285Y-29423333D01*
X123386666Y-29328095D01*
X123386666Y-29232857D01*
X123434285Y-29137619D01*
X123481904Y-29090000D01*
X123577142Y-29042380D01*
X123815238Y-29042380D01*
X123958095Y-29090000D01*
X124291428Y-29042380D02*
X124529523Y-30042380D01*
X124720000Y-29328095D01*
X124910476Y-30042380D01*
X125148571Y-29042380D01*
X125434285Y-29042380D02*
X126100952Y-29042380D01*
X125672380Y-30042380D01*
%TO.C,J1*%
X84121666Y-41152380D02*
X84121666Y-41866666D01*
X84074047Y-42009523D01*
X83978809Y-42104761D01*
X83835952Y-42152380D01*
X83740714Y-42152380D01*
X85121666Y-42152380D02*
X84550238Y-42152380D01*
X84835952Y-42152380D02*
X84835952Y-41152380D01*
X84740714Y-41295238D01*
X84645476Y-41390476D01*
X84550238Y-41438095D01*
%TO.C,REF\u002A\u002A*%
X144716666Y-74087380D02*
X144383333Y-73611190D01*
X144145238Y-74087380D02*
X144145238Y-73087380D01*
X144526190Y-73087380D01*
X144621428Y-73135000D01*
X144669047Y-73182619D01*
X144716666Y-73277857D01*
X144716666Y-73420714D01*
X144669047Y-73515952D01*
X144621428Y-73563571D01*
X144526190Y-73611190D01*
X144145238Y-73611190D01*
X145145238Y-73563571D02*
X145478571Y-73563571D01*
X145621428Y-74087380D02*
X145145238Y-74087380D01*
X145145238Y-73087380D01*
X145621428Y-73087380D01*
X146383333Y-73563571D02*
X146050000Y-73563571D01*
X146050000Y-74087380D02*
X146050000Y-73087380D01*
X146526190Y-73087380D01*
X147050000Y-73087380D02*
X147050000Y-73325476D01*
X146811904Y-73230238D02*
X147050000Y-73325476D01*
X147288095Y-73230238D01*
X146907142Y-73515952D02*
X147050000Y-73325476D01*
X147192857Y-73515952D01*
X147811904Y-73087380D02*
X147811904Y-73325476D01*
X147573809Y-73230238D02*
X147811904Y-73325476D01*
X148050000Y-73230238D01*
X147669047Y-73515952D02*
X147811904Y-73325476D01*
X147954761Y-73515952D01*
X83756666Y-74722380D02*
X83423333Y-74246190D01*
X83185238Y-74722380D02*
X83185238Y-73722380D01*
X83566190Y-73722380D01*
X83661428Y-73770000D01*
X83709047Y-73817619D01*
X83756666Y-73912857D01*
X83756666Y-74055714D01*
X83709047Y-74150952D01*
X83661428Y-74198571D01*
X83566190Y-74246190D01*
X83185238Y-74246190D01*
X84185238Y-74198571D02*
X84518571Y-74198571D01*
X84661428Y-74722380D02*
X84185238Y-74722380D01*
X84185238Y-73722380D01*
X84661428Y-73722380D01*
X85423333Y-74198571D02*
X85090000Y-74198571D01*
X85090000Y-74722380D02*
X85090000Y-73722380D01*
X85566190Y-73722380D01*
X86090000Y-73722380D02*
X86090000Y-73960476D01*
X85851904Y-73865238D02*
X86090000Y-73960476D01*
X86328095Y-73865238D01*
X85947142Y-74150952D02*
X86090000Y-73960476D01*
X86232857Y-74150952D01*
X86851904Y-73722380D02*
X86851904Y-73960476D01*
X86613809Y-73865238D02*
X86851904Y-73960476D01*
X87090000Y-73865238D01*
X86709047Y-74150952D02*
X86851904Y-73960476D01*
X86994761Y-74150952D01*
X113601666Y-117267380D02*
X113268333Y-116791190D01*
X113030238Y-117267380D02*
X113030238Y-116267380D01*
X113411190Y-116267380D01*
X113506428Y-116315000D01*
X113554047Y-116362619D01*
X113601666Y-116457857D01*
X113601666Y-116600714D01*
X113554047Y-116695952D01*
X113506428Y-116743571D01*
X113411190Y-116791190D01*
X113030238Y-116791190D01*
X114030238Y-116743571D02*
X114363571Y-116743571D01*
X114506428Y-117267380D02*
X114030238Y-117267380D01*
X114030238Y-116267380D01*
X114506428Y-116267380D01*
X115268333Y-116743571D02*
X114935000Y-116743571D01*
X114935000Y-117267380D02*
X114935000Y-116267380D01*
X115411190Y-116267380D01*
X115935000Y-116267380D02*
X115935000Y-116505476D01*
X115696904Y-116410238D02*
X115935000Y-116505476D01*
X116173095Y-116410238D01*
X115792142Y-116695952D02*
X115935000Y-116505476D01*
X116077857Y-116695952D01*
X116696904Y-116267380D02*
X116696904Y-116505476D01*
X116458809Y-116410238D02*
X116696904Y-116505476D01*
X116935000Y-116410238D01*
X116554047Y-116695952D02*
X116696904Y-116505476D01*
X116839761Y-116695952D01*
X40576666Y-127427380D02*
X40243333Y-126951190D01*
X40005238Y-127427380D02*
X40005238Y-126427380D01*
X40386190Y-126427380D01*
X40481428Y-126475000D01*
X40529047Y-126522619D01*
X40576666Y-126617857D01*
X40576666Y-126760714D01*
X40529047Y-126855952D01*
X40481428Y-126903571D01*
X40386190Y-126951190D01*
X40005238Y-126951190D01*
X41005238Y-126903571D02*
X41338571Y-126903571D01*
X41481428Y-127427380D02*
X41005238Y-127427380D01*
X41005238Y-126427380D01*
X41481428Y-126427380D01*
X42243333Y-126903571D02*
X41910000Y-126903571D01*
X41910000Y-127427380D02*
X41910000Y-126427380D01*
X42386190Y-126427380D01*
X42910000Y-126427380D02*
X42910000Y-126665476D01*
X42671904Y-126570238D02*
X42910000Y-126665476D01*
X43148095Y-126570238D01*
X42767142Y-126855952D02*
X42910000Y-126665476D01*
X43052857Y-126855952D01*
X43671904Y-126427380D02*
X43671904Y-126665476D01*
X43433809Y-126570238D02*
X43671904Y-126665476D01*
X43910000Y-126570238D01*
X43529047Y-126855952D02*
X43671904Y-126665476D01*
X43814761Y-126855952D01*
X181546666Y-171242380D02*
X181213333Y-170766190D01*
X180975238Y-171242380D02*
X180975238Y-170242380D01*
X181356190Y-170242380D01*
X181451428Y-170290000D01*
X181499047Y-170337619D01*
X181546666Y-170432857D01*
X181546666Y-170575714D01*
X181499047Y-170670952D01*
X181451428Y-170718571D01*
X181356190Y-170766190D01*
X180975238Y-170766190D01*
X181975238Y-170718571D02*
X182308571Y-170718571D01*
X182451428Y-171242380D02*
X181975238Y-171242380D01*
X181975238Y-170242380D01*
X182451428Y-170242380D01*
X183213333Y-170718571D02*
X182880000Y-170718571D01*
X182880000Y-171242380D02*
X182880000Y-170242380D01*
X183356190Y-170242380D01*
X183880000Y-170242380D02*
X183880000Y-170480476D01*
X183641904Y-170385238D02*
X183880000Y-170480476D01*
X184118095Y-170385238D01*
X183737142Y-170670952D02*
X183880000Y-170480476D01*
X184022857Y-170670952D01*
X184641904Y-170242380D02*
X184641904Y-170480476D01*
X184403809Y-170385238D02*
X184641904Y-170480476D01*
X184880000Y-170385238D01*
X184499047Y-170670952D02*
X184641904Y-170480476D01*
X184784761Y-170670952D01*
X188531666Y-29637380D02*
X188198333Y-29161190D01*
X187960238Y-29637380D02*
X187960238Y-28637380D01*
X188341190Y-28637380D01*
X188436428Y-28685000D01*
X188484047Y-28732619D01*
X188531666Y-28827857D01*
X188531666Y-28970714D01*
X188484047Y-29065952D01*
X188436428Y-29113571D01*
X188341190Y-29161190D01*
X187960238Y-29161190D01*
X188960238Y-29113571D02*
X189293571Y-29113571D01*
X189436428Y-29637380D02*
X188960238Y-29637380D01*
X188960238Y-28637380D01*
X189436428Y-28637380D01*
X190198333Y-29113571D02*
X189865000Y-29113571D01*
X189865000Y-29637380D02*
X189865000Y-28637380D01*
X190341190Y-28637380D01*
X190865000Y-28637380D02*
X190865000Y-28875476D01*
X190626904Y-28780238D02*
X190865000Y-28875476D01*
X191103095Y-28780238D01*
X190722142Y-29065952D02*
X190865000Y-28875476D01*
X191007857Y-29065952D01*
X191626904Y-28637380D02*
X191626904Y-28875476D01*
X191388809Y-28780238D02*
X191626904Y-28875476D01*
X191865000Y-28780238D01*
X191484047Y-29065952D02*
X191626904Y-28875476D01*
X191769761Y-29065952D01*
X38036666Y-22525380D02*
X37703333Y-22049190D01*
X37465238Y-22525380D02*
X37465238Y-21525380D01*
X37846190Y-21525380D01*
X37941428Y-21573000D01*
X37989047Y-21620619D01*
X38036666Y-21715857D01*
X38036666Y-21858714D01*
X37989047Y-21953952D01*
X37941428Y-22001571D01*
X37846190Y-22049190D01*
X37465238Y-22049190D01*
X38465238Y-22001571D02*
X38798571Y-22001571D01*
X38941428Y-22525380D02*
X38465238Y-22525380D01*
X38465238Y-21525380D01*
X38941428Y-21525380D01*
X39703333Y-22001571D02*
X39370000Y-22001571D01*
X39370000Y-22525380D02*
X39370000Y-21525380D01*
X39846190Y-21525380D01*
X40370000Y-21525380D02*
X40370000Y-21763476D01*
X40131904Y-21668238D02*
X40370000Y-21763476D01*
X40608095Y-21668238D01*
X40227142Y-21953952D02*
X40370000Y-21763476D01*
X40512857Y-21953952D01*
X41131904Y-21525380D02*
X41131904Y-21763476D01*
X40893809Y-21668238D02*
X41131904Y-21763476D01*
X41370000Y-21668238D01*
X40989047Y-21953952D02*
X41131904Y-21763476D01*
X41274761Y-21953952D01*
%TO.C,SW42*%
X180684497Y-143680955D02*
X180827354Y-143728574D01*
X181065449Y-143728574D01*
X181160687Y-143680955D01*
X181208306Y-143633336D01*
X181255925Y-143538098D01*
X181255925Y-143442860D01*
X181208306Y-143347622D01*
X181160687Y-143300003D01*
X181065449Y-143252384D01*
X180874973Y-143204765D01*
X180779735Y-143157146D01*
X180732116Y-143109527D01*
X180684497Y-143014289D01*
X180684497Y-142919051D01*
X180732116Y-142823813D01*
X180779735Y-142776194D01*
X180874973Y-142728574D01*
X181113068Y-142728574D01*
X181255925Y-142776194D01*
X181589259Y-142728574D02*
X181827354Y-143728574D01*
X182017830Y-143014289D01*
X182208306Y-143728574D01*
X182446401Y-142728574D01*
X183255925Y-143061908D02*
X183255925Y-143728574D01*
X183017830Y-142680955D02*
X182779735Y-143395241D01*
X183398782Y-143395241D01*
X183732116Y-142823813D02*
X183779735Y-142776194D01*
X183874973Y-142728574D01*
X184113068Y-142728574D01*
X184208306Y-142776194D01*
X184255925Y-142823813D01*
X184303544Y-142919051D01*
X184303544Y-143014289D01*
X184255925Y-143157146D01*
X183684497Y-143728574D01*
X184303544Y-143728574D01*
%TO.C,SW41*%
X180709400Y-105609641D02*
X180852257Y-105657260D01*
X181090352Y-105657260D01*
X181185590Y-105609641D01*
X181233209Y-105562022D01*
X181280828Y-105466784D01*
X181280828Y-105371546D01*
X181233209Y-105276308D01*
X181185590Y-105228689D01*
X181090352Y-105181070D01*
X180899876Y-105133451D01*
X180804638Y-105085832D01*
X180757019Y-105038213D01*
X180709400Y-104942975D01*
X180709400Y-104847737D01*
X180757019Y-104752499D01*
X180804638Y-104704880D01*
X180899876Y-104657260D01*
X181137971Y-104657260D01*
X181280828Y-104704880D01*
X181614162Y-104657260D02*
X181852257Y-105657260D01*
X182042733Y-104942975D01*
X182233209Y-105657260D01*
X182471304Y-104657260D01*
X183280828Y-104990594D02*
X183280828Y-105657260D01*
X183042733Y-104609641D02*
X182804638Y-105323927D01*
X183423685Y-105323927D01*
X184328447Y-105657260D02*
X183757019Y-105657260D01*
X184042733Y-105657260D02*
X184042733Y-104657260D01*
X183947495Y-104800118D01*
X183852257Y-104895356D01*
X183757019Y-104942975D01*
%TD*%
M02*
