%TF.GenerationSoftware,KiCad,Pcbnew,(5.1.10)-1*%
%TF.CreationDate,2021-08-17T12:27:07-04:00*%
%TF.ProjectId,macropad,6d616372-6f70-4616-942e-6b696361645f,rev?*%
%TF.SameCoordinates,Original*%
%TF.FileFunction,Soldermask,Bot*%
%TF.FilePolarity,Negative*%
%FSLAX46Y46*%
G04 Gerber Fmt 4.6, Leading zero omitted, Abs format (unit mm)*
G04 Created by KiCad (PCBNEW (5.1.10)-1) date 2021-08-17 12:27:07*
%MOMM*%
%LPD*%
G01*
G04 APERTURE LIST*
%ADD10R,1.752600X1.752600*%
%ADD11C,1.752600*%
%ADD12R,2.000000X2.000000*%
%ADD13C,2.000000*%
%ADD14R,3.200000X2.000000*%
%ADD15C,2.100000*%
%ADD16C,3.000000*%
%ADD17C,4.000000*%
%ADD18C,1.750000*%
%ADD19R,2.550000X2.500000*%
%ADD20R,1.200000X0.900000*%
%ADD21O,1.700000X1.700000*%
%ADD22R,1.700000X1.700000*%
%ADD23C,3.987800*%
%ADD24C,3.048000*%
G04 APERTURE END LIST*
D10*
%TO.C,U1*%
X43180000Y-46990000D03*
D11*
X45720000Y-46990000D03*
X48260000Y-46990000D03*
X50800000Y-46990000D03*
X53340000Y-46990000D03*
X55880000Y-46990000D03*
X58420000Y-46990000D03*
X60960000Y-46990000D03*
X63500000Y-46990000D03*
X66040000Y-46990000D03*
X68580000Y-46990000D03*
X71120000Y-31750000D03*
X68580000Y-31750000D03*
X66040000Y-31750000D03*
X63500000Y-31750000D03*
X60960000Y-31750000D03*
X58420000Y-31750000D03*
X55880000Y-31750000D03*
X53340000Y-31750000D03*
X50800000Y-31750000D03*
X48260000Y-31750000D03*
X45720000Y-31750000D03*
X71120000Y-46761400D03*
X43180000Y-31750000D03*
X71120000Y-34290000D03*
X71120000Y-36830000D03*
X71120000Y-39370000D03*
X71120000Y-41910000D03*
X71120000Y-44450000D03*
%TD*%
D12*
%TO.C,SW43*%
X140970000Y-34290000D03*
D13*
X140970000Y-36790000D03*
X140970000Y-39290000D03*
D14*
X148470000Y-31190000D03*
X148470000Y-42390000D03*
D13*
X155470000Y-34290000D03*
X155470000Y-39290000D03*
%TD*%
D15*
%TO.C,REF\u002A\u002A*%
X39370000Y-177165000D03*
%TD*%
D13*
%TO.C,SW45*%
X188110000Y-37465000D03*
X188110000Y-41965000D03*
X181610000Y-37465000D03*
X181610000Y-41965000D03*
%TD*%
D15*
%TO.C,REF\u002A\u002A*%
X153670000Y-158115000D03*
%TD*%
%TO.C,REF\u002A\u002A*%
X96520000Y-158115000D03*
%TD*%
%TO.C,REF\u002A\u002A*%
X66675000Y-63500000D03*
%TD*%
D16*
%TO.C,SW10*%
X83185000Y-60325000D03*
X89535000Y-57785000D03*
D17*
X86995000Y-62865000D03*
D18*
X81915000Y-62865000D03*
X92075000Y-62865000D03*
D19*
X79910000Y-60325000D03*
X92837000Y-57785000D03*
%TD*%
D12*
%TO.C,SW44*%
X160020000Y-34290000D03*
D13*
X160020000Y-36790000D03*
X160020000Y-39290000D03*
D14*
X167520000Y-31190000D03*
X167520000Y-42390000D03*
D13*
X174520000Y-34290000D03*
X174520000Y-39290000D03*
%TD*%
D12*
%TO.C,SW7*%
X121920000Y-34290000D03*
D13*
X121920000Y-36790000D03*
X121920000Y-39290000D03*
D14*
X129420000Y-31190000D03*
X129420000Y-42390000D03*
D13*
X136420000Y-34290000D03*
X136420000Y-39290000D03*
%TD*%
D20*
%TO.C,D44*%
X167640000Y-34545000D03*
X167640000Y-37845000D03*
%TD*%
%TO.C,D43*%
X129540000Y-34545000D03*
X129540000Y-37845000D03*
%TD*%
%TO.C,D7*%
X148590000Y-34545000D03*
X148590000Y-37845000D03*
%TD*%
D21*
%TO.C,J1*%
X84455000Y-31750000D03*
X84455000Y-34290000D03*
X84455000Y-36830000D03*
D22*
X84455000Y-39370000D03*
%TD*%
D15*
%TO.C,REF\u002A\u002A*%
X146050000Y-76835000D03*
%TD*%
%TO.C,REF\u002A\u002A*%
X85090000Y-77470000D03*
%TD*%
%TO.C,REF\u002A\u002A*%
X114935000Y-120015000D03*
%TD*%
%TO.C,REF\u002A\u002A*%
X41910000Y-130175000D03*
%TD*%
%TO.C,REF\u002A\u002A*%
X182880000Y-173990000D03*
%TD*%
%TO.C,REF\u002A\u002A*%
X189865000Y-32385000D03*
%TD*%
%TO.C,REF\u002A\u002A*%
X39370000Y-25273000D03*
%TD*%
D19*
%TO.C,SW4*%
X64292251Y-124506310D03*
X51365251Y-127046310D03*
D18*
X63530251Y-129586310D03*
X53370251Y-129586310D03*
D16*
X54640251Y-127046310D03*
D23*
X58450251Y-129586310D03*
D16*
X60990251Y-124506310D03*
%TD*%
D20*
%TO.C,D6*%
X57150000Y-167895000D03*
X57150000Y-171195000D03*
%TD*%
D23*
%TO.C,SW42*%
X173929021Y-170014194D03*
D16*
X178374021Y-155536194D03*
D24*
X189169021Y-170014194D03*
D23*
X182184021Y-158076194D03*
D16*
X184724021Y-152996194D03*
D19*
X188026021Y-152996194D03*
X175099021Y-155536194D03*
D18*
X187264021Y-158076194D03*
D24*
X189169021Y-146138194D03*
D23*
X173929021Y-146138194D03*
D18*
X177104021Y-158076194D03*
%TD*%
D23*
%TO.C,SW41*%
X173953924Y-131942880D03*
D16*
X178398924Y-117464880D03*
D24*
X189193924Y-131942880D03*
D23*
X182208924Y-120004880D03*
D16*
X184748924Y-114924880D03*
D19*
X188050924Y-114924880D03*
X175123924Y-117464880D03*
D18*
X187288924Y-120004880D03*
D24*
X189193924Y-108066880D03*
D23*
X173953924Y-108066880D03*
D18*
X177128924Y-120004880D03*
%TD*%
D19*
%TO.C,SW40*%
X188087000Y-86360000D03*
X175160000Y-88900000D03*
D18*
X187325000Y-91440000D03*
X177165000Y-91440000D03*
D17*
X182245000Y-91440000D03*
D16*
X184785000Y-86360000D03*
X178435000Y-88900000D03*
%TD*%
%TO.C,SW39*%
X178435000Y-60325000D03*
X184785000Y-57785000D03*
D17*
X182245000Y-62865000D03*
D18*
X177165000Y-62865000D03*
X187325000Y-62865000D03*
D19*
X175160000Y-60325000D03*
X188087000Y-57785000D03*
%TD*%
%TO.C,SW38*%
X169037000Y-162560000D03*
X156110000Y-165100000D03*
D18*
X168275000Y-167640000D03*
X158115000Y-167640000D03*
D17*
X163195000Y-167640000D03*
D16*
X165735000Y-162560000D03*
X159385000Y-165100000D03*
%TD*%
D19*
%TO.C,SW37*%
X169037000Y-143510000D03*
X156110000Y-146050000D03*
D18*
X168275000Y-148590000D03*
X158115000Y-148590000D03*
D17*
X163195000Y-148590000D03*
D16*
X165735000Y-143510000D03*
X159385000Y-146050000D03*
%TD*%
D19*
%TO.C,SW36*%
X169037000Y-124460000D03*
X156110000Y-127000000D03*
D18*
X168275000Y-129540000D03*
X158115000Y-129540000D03*
D17*
X163195000Y-129540000D03*
D16*
X165735000Y-124460000D03*
X159385000Y-127000000D03*
%TD*%
D19*
%TO.C,SW35*%
X169037000Y-105410000D03*
X156110000Y-107950000D03*
D18*
X168275000Y-110490000D03*
X158115000Y-110490000D03*
D17*
X163195000Y-110490000D03*
D16*
X165735000Y-105410000D03*
X159385000Y-107950000D03*
%TD*%
D19*
%TO.C,SW34*%
X169037000Y-86360000D03*
X156110000Y-88900000D03*
D18*
X168275000Y-91440000D03*
X158115000Y-91440000D03*
D17*
X163195000Y-91440000D03*
D16*
X165735000Y-86360000D03*
X159385000Y-88900000D03*
%TD*%
%TO.C,SW33*%
X159385000Y-60325000D03*
X165735000Y-57785000D03*
D17*
X163195000Y-62865000D03*
D18*
X158115000Y-62865000D03*
X168275000Y-62865000D03*
D19*
X156110000Y-60325000D03*
X169037000Y-57785000D03*
%TD*%
%TO.C,SW32*%
X149987000Y-143510000D03*
X137060000Y-146050000D03*
D18*
X149225000Y-148590000D03*
X139065000Y-148590000D03*
D17*
X144145000Y-148590000D03*
D16*
X146685000Y-143510000D03*
X140335000Y-146050000D03*
%TD*%
D19*
%TO.C,SW31*%
X149987000Y-124460000D03*
X137060000Y-127000000D03*
D18*
X149225000Y-129540000D03*
X139065000Y-129540000D03*
D17*
X144145000Y-129540000D03*
D16*
X146685000Y-124460000D03*
X140335000Y-127000000D03*
%TD*%
D19*
%TO.C,SW30*%
X149987000Y-105410000D03*
X137060000Y-107950000D03*
D18*
X149225000Y-110490000D03*
X139065000Y-110490000D03*
D17*
X144145000Y-110490000D03*
D16*
X146685000Y-105410000D03*
X140335000Y-107950000D03*
%TD*%
D19*
%TO.C,SW29*%
X149987000Y-86360000D03*
X137060000Y-88900000D03*
D18*
X149225000Y-91440000D03*
X139065000Y-91440000D03*
D17*
X144145000Y-91440000D03*
D16*
X146685000Y-86360000D03*
X140335000Y-88900000D03*
%TD*%
%TO.C,SW28*%
X140335000Y-60325000D03*
X146685000Y-57785000D03*
D17*
X144145000Y-62865000D03*
D18*
X139065000Y-62865000D03*
X149225000Y-62865000D03*
D19*
X137060000Y-60325000D03*
X149987000Y-57785000D03*
%TD*%
D23*
%TO.C,SW27*%
X122682000Y-175895000D03*
X146558000Y-175895000D03*
D24*
X122682000Y-160655000D03*
X146558000Y-160655000D03*
D19*
X140462000Y-162560000D03*
X127535000Y-165100000D03*
D18*
X139700000Y-167640000D03*
X129540000Y-167640000D03*
D16*
X130810000Y-165100000D03*
D23*
X134620000Y-167640000D03*
D16*
X137160000Y-162560000D03*
%TD*%
D19*
%TO.C,SW26*%
X130937000Y-143510000D03*
X118010000Y-146050000D03*
D18*
X130175000Y-148590000D03*
X120015000Y-148590000D03*
D17*
X125095000Y-148590000D03*
D16*
X127635000Y-143510000D03*
X121285000Y-146050000D03*
%TD*%
D19*
%TO.C,SW25*%
X130937000Y-124460000D03*
X118010000Y-127000000D03*
D18*
X130175000Y-129540000D03*
X120015000Y-129540000D03*
D17*
X125095000Y-129540000D03*
D16*
X127635000Y-124460000D03*
X121285000Y-127000000D03*
%TD*%
D19*
%TO.C,SW24*%
X130937000Y-105410000D03*
X118010000Y-107950000D03*
D18*
X130175000Y-110490000D03*
X120015000Y-110490000D03*
D17*
X125095000Y-110490000D03*
D16*
X127635000Y-105410000D03*
X121285000Y-107950000D03*
%TD*%
D19*
%TO.C,SW23*%
X130937000Y-86360000D03*
X118010000Y-88900000D03*
D18*
X130175000Y-91440000D03*
X120015000Y-91440000D03*
D17*
X125095000Y-91440000D03*
D16*
X127635000Y-86360000D03*
X121285000Y-88900000D03*
%TD*%
%TO.C,SW22*%
X121285000Y-60325000D03*
X127635000Y-57785000D03*
D17*
X125095000Y-62865000D03*
D18*
X120015000Y-62865000D03*
X130175000Y-62865000D03*
D19*
X118010000Y-60325000D03*
X130937000Y-57785000D03*
%TD*%
%TO.C,SW21*%
X111887000Y-162560000D03*
X98960000Y-165100000D03*
D18*
X111125000Y-167640000D03*
X100965000Y-167640000D03*
D17*
X106045000Y-167640000D03*
D16*
X108585000Y-162560000D03*
X102235000Y-165100000D03*
%TD*%
D19*
%TO.C,SW20*%
X111887000Y-143510000D03*
X98960000Y-146050000D03*
D18*
X111125000Y-148590000D03*
X100965000Y-148590000D03*
D17*
X106045000Y-148590000D03*
D16*
X108585000Y-143510000D03*
X102235000Y-146050000D03*
%TD*%
D19*
%TO.C,SW19*%
X111887000Y-124460000D03*
X98960000Y-127000000D03*
D18*
X111125000Y-129540000D03*
X100965000Y-129540000D03*
D17*
X106045000Y-129540000D03*
D16*
X108585000Y-124460000D03*
X102235000Y-127000000D03*
%TD*%
D19*
%TO.C,SW18*%
X111887000Y-105410000D03*
X98960000Y-107950000D03*
D18*
X111125000Y-110490000D03*
X100965000Y-110490000D03*
D17*
X106045000Y-110490000D03*
D16*
X108585000Y-105410000D03*
X102235000Y-107950000D03*
%TD*%
D19*
%TO.C,SW17*%
X111887000Y-86360000D03*
X98960000Y-88900000D03*
D18*
X111125000Y-91440000D03*
X100965000Y-91440000D03*
D17*
X106045000Y-91440000D03*
D16*
X108585000Y-86360000D03*
X102235000Y-88900000D03*
%TD*%
%TO.C,SW16*%
X102235000Y-60325000D03*
X108585000Y-57785000D03*
D17*
X106045000Y-62865000D03*
D18*
X100965000Y-62865000D03*
X111125000Y-62865000D03*
D19*
X98960000Y-60325000D03*
X111887000Y-57785000D03*
%TD*%
%TO.C,SW15*%
X92837000Y-162560000D03*
X79910000Y-165100000D03*
D18*
X92075000Y-167640000D03*
X81915000Y-167640000D03*
D17*
X86995000Y-167640000D03*
D16*
X89535000Y-162560000D03*
X83185000Y-165100000D03*
%TD*%
D19*
%TO.C,SW14*%
X92837000Y-143510000D03*
X79910000Y-146050000D03*
D18*
X92075000Y-148590000D03*
X81915000Y-148590000D03*
D17*
X86995000Y-148590000D03*
D16*
X89535000Y-143510000D03*
X83185000Y-146050000D03*
%TD*%
D19*
%TO.C,SW13*%
X92837000Y-124460000D03*
X79910000Y-127000000D03*
D18*
X92075000Y-129540000D03*
X81915000Y-129540000D03*
D17*
X86995000Y-129540000D03*
D16*
X89535000Y-124460000D03*
X83185000Y-127000000D03*
%TD*%
D19*
%TO.C,SW12*%
X92837000Y-105410000D03*
X79910000Y-107950000D03*
D18*
X92075000Y-110490000D03*
X81915000Y-110490000D03*
D17*
X86995000Y-110490000D03*
D16*
X89535000Y-105410000D03*
X83185000Y-107950000D03*
%TD*%
D19*
%TO.C,SW11*%
X92837000Y-86360000D03*
X79910000Y-88900000D03*
D18*
X92075000Y-91440000D03*
X81915000Y-91440000D03*
D17*
X86995000Y-91440000D03*
D16*
X89535000Y-86360000D03*
X83185000Y-88900000D03*
%TD*%
D19*
%TO.C,SW9*%
X73787000Y-162560000D03*
X60860000Y-165100000D03*
D18*
X73025000Y-167640000D03*
X62865000Y-167640000D03*
D17*
X67945000Y-167640000D03*
D16*
X70485000Y-162560000D03*
X64135000Y-165100000D03*
%TD*%
D19*
%TO.C,SW8*%
X73787000Y-86360000D03*
X60860000Y-88900000D03*
D18*
X73025000Y-91440000D03*
X62865000Y-91440000D03*
D17*
X67945000Y-91440000D03*
D16*
X70485000Y-86360000D03*
X64135000Y-88900000D03*
%TD*%
D19*
%TO.C,SW6*%
X54737000Y-162560000D03*
X41810000Y-165100000D03*
D18*
X53975000Y-167640000D03*
X43815000Y-167640000D03*
D17*
X48895000Y-167640000D03*
D16*
X51435000Y-162560000D03*
X45085000Y-165100000D03*
%TD*%
D23*
%TO.C,SW5*%
X46482000Y-156845000D03*
X70358000Y-156845000D03*
D24*
X46482000Y-141605000D03*
X70358000Y-141605000D03*
D19*
X64262000Y-143510000D03*
X51335000Y-146050000D03*
D18*
X63500000Y-148590000D03*
X53340000Y-148590000D03*
D16*
X54610000Y-146050000D03*
D23*
X58420000Y-148590000D03*
D16*
X60960000Y-143510000D03*
%TD*%
D23*
%TO.C,SW3*%
X46482000Y-118745000D03*
X70358000Y-118745000D03*
D24*
X46482000Y-103505000D03*
X70358000Y-103505000D03*
D19*
X64262000Y-105410000D03*
X51335000Y-107950000D03*
D18*
X63500000Y-110490000D03*
X53340000Y-110490000D03*
D16*
X54610000Y-107950000D03*
D23*
X58420000Y-110490000D03*
D16*
X60960000Y-105410000D03*
%TD*%
D19*
%TO.C,SW2*%
X54737000Y-86360000D03*
X41810000Y-88900000D03*
D18*
X53975000Y-91440000D03*
X43815000Y-91440000D03*
D17*
X48895000Y-91440000D03*
D16*
X51435000Y-86360000D03*
X45085000Y-88900000D03*
%TD*%
%TO.C,SW1*%
X45085000Y-60325000D03*
X51435000Y-57785000D03*
D17*
X48895000Y-62865000D03*
D18*
X43815000Y-62865000D03*
X53975000Y-62865000D03*
D19*
X41810000Y-60325000D03*
X54737000Y-57785000D03*
%TD*%
D20*
%TO.C,D42*%
X191135000Y-152780000D03*
X191135000Y-149480000D03*
%TD*%
%TO.C,D41*%
X191135000Y-114680000D03*
X191135000Y-111380000D03*
%TD*%
%TO.C,D40*%
X190500000Y-91695000D03*
X190500000Y-94995000D03*
%TD*%
%TO.C,D39*%
X190500000Y-66420000D03*
X190500000Y-63120000D03*
%TD*%
%TO.C,D38*%
X172085000Y-162180000D03*
X172085000Y-165480000D03*
%TD*%
%TO.C,D37*%
X171450000Y-148845000D03*
X171450000Y-152145000D03*
%TD*%
%TO.C,D36*%
X172720000Y-124715000D03*
X172720000Y-128015000D03*
%TD*%
%TO.C,D35*%
X171450000Y-112015000D03*
X171450000Y-115315000D03*
%TD*%
%TO.C,D34*%
X171450000Y-91695000D03*
X171450000Y-94995000D03*
%TD*%
%TO.C,D33*%
X171450000Y-66420000D03*
X171450000Y-63120000D03*
%TD*%
%TO.C,D32*%
X152400000Y-148845000D03*
X152400000Y-152145000D03*
%TD*%
%TO.C,D31*%
X152400000Y-129795000D03*
X152400000Y-133095000D03*
%TD*%
%TO.C,D30*%
X152400000Y-110745000D03*
X152400000Y-114045000D03*
%TD*%
%TO.C,D29*%
X152400000Y-91695000D03*
X152400000Y-94995000D03*
%TD*%
%TO.C,D28*%
X152400000Y-66420000D03*
X152400000Y-63120000D03*
%TD*%
%TO.C,D27*%
X144780000Y-167895000D03*
X144780000Y-171195000D03*
%TD*%
%TO.C,D26*%
X133350000Y-148845000D03*
X133350000Y-152145000D03*
%TD*%
%TO.C,D25*%
X133350000Y-129795000D03*
X133350000Y-133095000D03*
%TD*%
%TO.C,D24*%
X133350000Y-110745000D03*
X133350000Y-114045000D03*
%TD*%
%TO.C,D23*%
X133350000Y-91695000D03*
X133350000Y-94995000D03*
%TD*%
%TO.C,D22*%
X133350000Y-66420000D03*
X133350000Y-63120000D03*
%TD*%
%TO.C,D21*%
X114300000Y-167895000D03*
X114300000Y-171195000D03*
%TD*%
%TO.C,D20*%
X114300000Y-148845000D03*
X114300000Y-152145000D03*
%TD*%
%TO.C,D19*%
X114300000Y-129795000D03*
X114300000Y-133095000D03*
%TD*%
%TO.C,D18*%
X114300000Y-110745000D03*
X114300000Y-114045000D03*
%TD*%
%TO.C,D17*%
X114300000Y-91695000D03*
X114300000Y-94995000D03*
%TD*%
%TO.C,D16*%
X114300000Y-66420000D03*
X114300000Y-63120000D03*
%TD*%
%TO.C,D15*%
X95250000Y-167895000D03*
X95250000Y-171195000D03*
%TD*%
%TO.C,D14*%
X95250000Y-148845000D03*
X95250000Y-152145000D03*
%TD*%
%TO.C,D13*%
X95250000Y-129795000D03*
X95250000Y-133095000D03*
%TD*%
%TO.C,D12*%
X95885000Y-110745000D03*
X95885000Y-114045000D03*
%TD*%
%TO.C,D11*%
X95250000Y-91695000D03*
X95250000Y-94995000D03*
%TD*%
%TO.C,D10*%
X95250000Y-66420000D03*
X95250000Y-63120000D03*
%TD*%
%TO.C,D9*%
X76200000Y-167895000D03*
X76200000Y-171195000D03*
%TD*%
%TO.C,D8*%
X76200000Y-91695000D03*
X76200000Y-94995000D03*
%TD*%
%TO.C,D5*%
X74295000Y-148845000D03*
X74295000Y-152145000D03*
%TD*%
%TO.C,D4*%
X74295000Y-129795000D03*
X74295000Y-133095000D03*
%TD*%
%TO.C,D3*%
X73660000Y-110745000D03*
X73660000Y-114045000D03*
%TD*%
%TO.C,D2*%
X57150000Y-91695000D03*
X57150000Y-94995000D03*
%TD*%
%TO.C,D1*%
X57150000Y-66420000D03*
X57150000Y-63120000D03*
%TD*%
M02*
