M48
; DRILL file {KiCad (5.1.10)-1} date 08/17/21 12:27:02
; FORMAT={-:-/ absolute / inch / decimal}
; #@! TF.CreationDate,2021-08-17T12:27:02-04:00
; #@! TF.GenerationSoftware,Kicad,Pcbnew,(5.1.10)-1
; #@! TF.FileFunction,NonPlated,1,2,NPTH
FMAT,2
INCH
T1C0.0689
T2C0.0827
T3C0.1181
T4C0.1200
T5C0.1570
T6C0.1575
%
G90
G05
T1
X1.725Y-2.475
X1.725Y-3.6
X1.725Y-6.6
X2.1Y-4.35
X2.1Y-5.85
X2.1012Y-5.1018
X2.125Y-2.475
X2.125Y-3.6
X2.125Y-6.6
X2.475Y-3.6
X2.475Y-6.6
X2.5Y-4.35
X2.5Y-5.85
X2.5012Y-5.1018
X2.875Y-3.6
X2.875Y-6.6
X3.225Y-2.475
X3.225Y-3.6
X3.225Y-4.35
X3.225Y-5.1
X3.225Y-5.85
X3.225Y-6.6
X3.625Y-2.475
X3.625Y-3.6
X3.625Y-4.35
X3.625Y-5.1
X3.625Y-5.85
X3.625Y-6.6
X3.975Y-2.475
X3.975Y-3.6
X3.975Y-4.35
X3.975Y-5.1
X3.975Y-5.85
X3.975Y-6.6
X4.375Y-2.475
X4.375Y-3.6
X4.375Y-4.35
X4.375Y-5.1
X4.375Y-5.85
X4.375Y-6.6
X4.725Y-2.475
X4.725Y-3.6
X4.725Y-4.35
X4.725Y-5.1
X4.725Y-5.85
X5.1Y-6.6
X5.125Y-2.475
X5.125Y-3.6
X5.125Y-4.35
X5.125Y-5.1
X5.125Y-5.85
X5.475Y-2.475
X5.475Y-3.6
X5.475Y-4.35
X5.475Y-5.1
X5.475Y-5.85
X5.5Y-6.6
X5.875Y-2.475
X5.875Y-3.6
X5.875Y-4.35
X5.875Y-5.1
X5.875Y-5.85
X6.225Y-2.475
X6.225Y-3.6
X6.225Y-4.35
X6.225Y-5.1
X6.225Y-5.85
X6.225Y-6.6
X6.625Y-2.475
X6.625Y-3.6
X6.625Y-4.35
X6.625Y-5.1
X6.625Y-5.85
X6.625Y-6.6
X6.9726Y-6.2235
X6.9736Y-4.7246
X6.975Y-2.475
X6.975Y-3.6
X7.3726Y-6.2235
X7.3736Y-4.7246
X7.375Y-2.475
X7.375Y-3.6
T2
X1.55Y-0.995
X1.55Y-6.975
X1.65Y-5.125
X2.625Y-2.5
X3.35Y-3.05
X3.8Y-6.225
X4.525Y-4.725
X5.75Y-3.025
X6.05Y-6.225
X7.2Y-6.85
X7.475Y-1.275
T3
X1.775Y-2.375
X1.775Y-3.5
X1.775Y-6.5
X2.025Y-2.275
X2.025Y-3.4
X2.025Y-6.4
X2.15Y-4.25
X2.15Y-5.75
X2.1512Y-5.0018
X2.4Y-4.15
X2.4Y-5.65
X2.4012Y-4.9018
X2.525Y-3.5
X2.525Y-6.5
X2.775Y-3.4
X2.775Y-6.4
X3.275Y-2.375
X3.275Y-3.5
X3.275Y-4.25
X3.275Y-5.0
X3.275Y-5.75
X3.275Y-6.5
X3.525Y-2.275
X3.525Y-3.4
X3.525Y-4.15
X3.525Y-4.9
X3.525Y-5.65
X3.525Y-6.4
X4.025Y-2.375
X4.025Y-3.5
X4.025Y-4.25
X4.025Y-5.0
X4.025Y-5.75
X4.025Y-6.5
X4.275Y-2.275
X4.275Y-3.4
X4.275Y-4.15
X4.275Y-4.9
X4.275Y-5.65
X4.275Y-6.4
X4.775Y-2.375
X4.775Y-3.5
X4.775Y-4.25
X4.775Y-5.0
X4.775Y-5.75
X5.025Y-2.275
X5.025Y-3.4
X5.025Y-4.15
X5.025Y-4.9
X5.025Y-5.65
X5.15Y-6.5
X5.4Y-6.4
X5.525Y-2.375
X5.525Y-3.5
X5.525Y-4.25
X5.525Y-5.0
X5.525Y-5.75
X5.775Y-2.275
X5.775Y-3.4
X5.775Y-4.15
X5.775Y-4.9
X5.775Y-5.65
X6.275Y-2.375
X6.275Y-3.5
X6.275Y-4.25
X6.275Y-5.0
X6.275Y-5.75
X6.275Y-6.5
X6.525Y-2.275
X6.525Y-3.4
X6.525Y-4.15
X6.525Y-4.9
X6.525Y-5.65
X6.525Y-6.4
X7.0226Y-6.1235
X7.0236Y-4.6246
X7.025Y-2.375
X7.025Y-3.5
X7.2726Y-6.0235
X7.2736Y-4.5246
X7.275Y-2.275
X7.275Y-3.4
T4
X1.83Y-4.075
X1.83Y-5.575
X2.77Y-4.075
X2.77Y-5.575
X4.83Y-6.325
X5.77Y-6.325
X7.4476Y-5.7535
X7.4476Y-6.6935
X7.4486Y-4.2546
X7.4486Y-5.1946
T5
X1.83Y-4.675
X1.83Y-6.175
X2.3Y-4.35
X2.3Y-5.85
X2.3012Y-5.1018
X2.77Y-4.675
X2.77Y-6.175
X4.83Y-6.925
X5.3Y-6.6
X5.77Y-6.925
X6.8476Y-5.7535
X6.8476Y-6.6935
X6.8486Y-4.2546
X6.8486Y-5.1946
X7.1726Y-6.2235
X7.1736Y-4.7246
T6
X1.925Y-2.475
X1.925Y-3.6
X1.925Y-6.6
X2.675Y-3.6
X2.675Y-6.6
X3.425Y-2.475
X3.425Y-3.6
X3.425Y-4.35
X3.425Y-5.1
X3.425Y-5.85
X3.425Y-6.6
X4.175Y-2.475
X4.175Y-3.6
X4.175Y-4.35
X4.175Y-5.1
X4.175Y-5.85
X4.175Y-6.6
X4.925Y-2.475
X4.925Y-3.6
X4.925Y-4.35
X4.925Y-5.1
X4.925Y-5.85
X5.675Y-2.475
X5.675Y-3.6
X5.675Y-4.35
X5.675Y-5.1
X5.675Y-5.85
X6.425Y-2.475
X6.425Y-3.6
X6.425Y-4.35
X6.425Y-5.1
X6.425Y-5.85
X6.425Y-6.6
X7.175Y-2.475
X7.175Y-3.6
T0
M30
