%TF.GenerationSoftware,KiCad,Pcbnew,(5.1.10)-1*%
%TF.CreationDate,2021-08-17T12:27:07-04:00*%
%TF.ProjectId,macropad,6d616372-6f70-4616-942e-6b696361645f,rev?*%
%TF.SameCoordinates,Original*%
%TF.FileFunction,Soldermask,Top*%
%TF.FilePolarity,Negative*%
%FSLAX46Y46*%
G04 Gerber Fmt 4.6, Leading zero omitted, Abs format (unit mm)*
G04 Created by KiCad (PCBNEW (5.1.10)-1) date 2021-08-17 12:27:07*
%MOMM*%
%LPD*%
G01*
G04 APERTURE LIST*
%ADD10R,1.752600X1.752600*%
%ADD11C,1.752600*%
%ADD12R,2.000000X3.250000*%
%ADD13R,3.250000X2.000000*%
%ADD14R,2.000000X2.000000*%
%ADD15C,2.000000*%
%ADD16R,3.200000X2.000000*%
%ADD17C,2.100000*%
%ADD18C,3.000000*%
%ADD19C,4.000000*%
%ADD20C,1.750000*%
%ADD21O,1.700000X1.700000*%
%ADD22R,1.700000X1.700000*%
%ADD23C,3.987800*%
%ADD24C,3.048000*%
G04 APERTURE END LIST*
D10*
%TO.C,U1*%
X43180000Y-46990000D03*
D11*
X45720000Y-46990000D03*
X48260000Y-46990000D03*
X50800000Y-46990000D03*
X53340000Y-46990000D03*
X55880000Y-46990000D03*
X58420000Y-46990000D03*
X60960000Y-46990000D03*
X63500000Y-46990000D03*
X66040000Y-46990000D03*
X68580000Y-46990000D03*
X71120000Y-31750000D03*
X68580000Y-31750000D03*
X66040000Y-31750000D03*
X63500000Y-31750000D03*
X60960000Y-31750000D03*
X58420000Y-31750000D03*
X55880000Y-31750000D03*
X53340000Y-31750000D03*
X50800000Y-31750000D03*
X48260000Y-31750000D03*
X45720000Y-31750000D03*
X71120000Y-46761400D03*
X43180000Y-31750000D03*
X71120000Y-34290000D03*
X71120000Y-36830000D03*
X71120000Y-39370000D03*
X71120000Y-41910000D03*
X71120000Y-44450000D03*
D12*
X43180000Y-48768000D03*
X45720000Y-48768000D03*
X48260000Y-48768000D03*
X50800000Y-48768000D03*
X53340000Y-48768000D03*
X55880000Y-48768000D03*
X58420000Y-48768000D03*
X60960000Y-48768000D03*
X63500000Y-48768000D03*
X66040000Y-48768000D03*
X68580000Y-48768000D03*
X71120000Y-48768000D03*
X71120000Y-29972000D03*
X68580000Y-29972000D03*
X66040000Y-29972000D03*
X63500000Y-29972000D03*
X60960000Y-29972000D03*
X58420000Y-29972000D03*
X55880000Y-29972000D03*
X53340000Y-29972000D03*
X50800000Y-29972000D03*
X48260000Y-29972000D03*
X45720000Y-29972000D03*
X43180000Y-29972000D03*
D13*
X73025000Y-44450000D03*
X73025000Y-41910000D03*
X73025000Y-39370000D03*
X73025000Y-36830000D03*
X73025000Y-34290000D03*
%TD*%
D14*
%TO.C,SW43*%
X140970000Y-34290000D03*
D15*
X140970000Y-36790000D03*
X140970000Y-39290000D03*
D16*
X148470000Y-31190000D03*
X148470000Y-42390000D03*
D15*
X155470000Y-34290000D03*
X155470000Y-39290000D03*
%TD*%
D17*
%TO.C,REF\u002A\u002A*%
X39370000Y-177165000D03*
%TD*%
D15*
%TO.C,SW45*%
X188110000Y-37465000D03*
X188110000Y-41965000D03*
X181610000Y-37465000D03*
X181610000Y-41965000D03*
%TD*%
D17*
%TO.C,REF\u002A\u002A*%
X153670000Y-158115000D03*
%TD*%
%TO.C,REF\u002A\u002A*%
X96520000Y-158115000D03*
%TD*%
%TO.C,REF\u002A\u002A*%
X66675000Y-63500000D03*
%TD*%
D18*
%TO.C,SW10*%
X83185000Y-60325000D03*
X89535000Y-57785000D03*
D19*
X86995000Y-62865000D03*
D20*
X81915000Y-62865000D03*
X92075000Y-62865000D03*
%TD*%
D14*
%TO.C,SW44*%
X160020000Y-34290000D03*
D15*
X160020000Y-36790000D03*
X160020000Y-39290000D03*
D16*
X167520000Y-31190000D03*
X167520000Y-42390000D03*
D15*
X174520000Y-34290000D03*
X174520000Y-39290000D03*
%TD*%
D14*
%TO.C,SW7*%
X121920000Y-34290000D03*
D15*
X121920000Y-36790000D03*
X121920000Y-39290000D03*
D16*
X129420000Y-31190000D03*
X129420000Y-42390000D03*
D15*
X136420000Y-34290000D03*
X136420000Y-39290000D03*
%TD*%
D21*
%TO.C,J1*%
X84455000Y-31750000D03*
X84455000Y-34290000D03*
X84455000Y-36830000D03*
D22*
X84455000Y-39370000D03*
%TD*%
D17*
%TO.C,REF\u002A\u002A*%
X146050000Y-76835000D03*
%TD*%
%TO.C,REF\u002A\u002A*%
X85090000Y-77470000D03*
%TD*%
%TO.C,REF\u002A\u002A*%
X114935000Y-120015000D03*
%TD*%
%TO.C,REF\u002A\u002A*%
X41910000Y-130175000D03*
%TD*%
%TO.C,REF\u002A\u002A*%
X182880000Y-173990000D03*
%TD*%
%TO.C,REF\u002A\u002A*%
X189865000Y-32385000D03*
%TD*%
%TO.C,REF\u002A\u002A*%
X39370000Y-25273000D03*
%TD*%
D20*
%TO.C,SW4*%
X63530251Y-129586310D03*
X53370251Y-129586310D03*
D18*
X54640251Y-127046310D03*
D23*
X58450251Y-129586310D03*
D18*
X60990251Y-124506310D03*
%TD*%
D23*
%TO.C,SW42*%
X173929021Y-170014194D03*
D18*
X178374021Y-155536194D03*
D24*
X189169021Y-170014194D03*
D23*
X182184021Y-158076194D03*
D18*
X184724021Y-152996194D03*
D20*
X187264021Y-158076194D03*
D24*
X189169021Y-146138194D03*
D23*
X173929021Y-146138194D03*
D20*
X177104021Y-158076194D03*
%TD*%
D23*
%TO.C,SW41*%
X173953924Y-131942880D03*
D18*
X178398924Y-117464880D03*
D24*
X189193924Y-131942880D03*
D23*
X182208924Y-120004880D03*
D18*
X184748924Y-114924880D03*
D20*
X187288924Y-120004880D03*
D24*
X189193924Y-108066880D03*
D23*
X173953924Y-108066880D03*
D20*
X177128924Y-120004880D03*
%TD*%
%TO.C,SW40*%
X187325000Y-91440000D03*
X177165000Y-91440000D03*
D19*
X182245000Y-91440000D03*
D18*
X184785000Y-86360000D03*
X178435000Y-88900000D03*
%TD*%
%TO.C,SW39*%
X178435000Y-60325000D03*
X184785000Y-57785000D03*
D19*
X182245000Y-62865000D03*
D20*
X177165000Y-62865000D03*
X187325000Y-62865000D03*
%TD*%
%TO.C,SW38*%
X168275000Y-167640000D03*
X158115000Y-167640000D03*
D19*
X163195000Y-167640000D03*
D18*
X165735000Y-162560000D03*
X159385000Y-165100000D03*
%TD*%
D20*
%TO.C,SW37*%
X168275000Y-148590000D03*
X158115000Y-148590000D03*
D19*
X163195000Y-148590000D03*
D18*
X165735000Y-143510000D03*
X159385000Y-146050000D03*
%TD*%
D20*
%TO.C,SW36*%
X168275000Y-129540000D03*
X158115000Y-129540000D03*
D19*
X163195000Y-129540000D03*
D18*
X165735000Y-124460000D03*
X159385000Y-127000000D03*
%TD*%
D20*
%TO.C,SW35*%
X168275000Y-110490000D03*
X158115000Y-110490000D03*
D19*
X163195000Y-110490000D03*
D18*
X165735000Y-105410000D03*
X159385000Y-107950000D03*
%TD*%
D20*
%TO.C,SW34*%
X168275000Y-91440000D03*
X158115000Y-91440000D03*
D19*
X163195000Y-91440000D03*
D18*
X165735000Y-86360000D03*
X159385000Y-88900000D03*
%TD*%
%TO.C,SW33*%
X159385000Y-60325000D03*
X165735000Y-57785000D03*
D19*
X163195000Y-62865000D03*
D20*
X158115000Y-62865000D03*
X168275000Y-62865000D03*
%TD*%
%TO.C,SW32*%
X149225000Y-148590000D03*
X139065000Y-148590000D03*
D19*
X144145000Y-148590000D03*
D18*
X146685000Y-143510000D03*
X140335000Y-146050000D03*
%TD*%
D20*
%TO.C,SW31*%
X149225000Y-129540000D03*
X139065000Y-129540000D03*
D19*
X144145000Y-129540000D03*
D18*
X146685000Y-124460000D03*
X140335000Y-127000000D03*
%TD*%
D20*
%TO.C,SW30*%
X149225000Y-110490000D03*
X139065000Y-110490000D03*
D19*
X144145000Y-110490000D03*
D18*
X146685000Y-105410000D03*
X140335000Y-107950000D03*
%TD*%
D20*
%TO.C,SW29*%
X149225000Y-91440000D03*
X139065000Y-91440000D03*
D19*
X144145000Y-91440000D03*
D18*
X146685000Y-86360000D03*
X140335000Y-88900000D03*
%TD*%
%TO.C,SW28*%
X140335000Y-60325000D03*
X146685000Y-57785000D03*
D19*
X144145000Y-62865000D03*
D20*
X139065000Y-62865000D03*
X149225000Y-62865000D03*
%TD*%
D23*
%TO.C,SW27*%
X122682000Y-175895000D03*
X146558000Y-175895000D03*
D24*
X122682000Y-160655000D03*
X146558000Y-160655000D03*
D20*
X139700000Y-167640000D03*
X129540000Y-167640000D03*
D18*
X130810000Y-165100000D03*
D23*
X134620000Y-167640000D03*
D18*
X137160000Y-162560000D03*
%TD*%
D20*
%TO.C,SW26*%
X130175000Y-148590000D03*
X120015000Y-148590000D03*
D19*
X125095000Y-148590000D03*
D18*
X127635000Y-143510000D03*
X121285000Y-146050000D03*
%TD*%
D20*
%TO.C,SW25*%
X130175000Y-129540000D03*
X120015000Y-129540000D03*
D19*
X125095000Y-129540000D03*
D18*
X127635000Y-124460000D03*
X121285000Y-127000000D03*
%TD*%
D20*
%TO.C,SW24*%
X130175000Y-110490000D03*
X120015000Y-110490000D03*
D19*
X125095000Y-110490000D03*
D18*
X127635000Y-105410000D03*
X121285000Y-107950000D03*
%TD*%
D20*
%TO.C,SW23*%
X130175000Y-91440000D03*
X120015000Y-91440000D03*
D19*
X125095000Y-91440000D03*
D18*
X127635000Y-86360000D03*
X121285000Y-88900000D03*
%TD*%
%TO.C,SW22*%
X121285000Y-60325000D03*
X127635000Y-57785000D03*
D19*
X125095000Y-62865000D03*
D20*
X120015000Y-62865000D03*
X130175000Y-62865000D03*
%TD*%
%TO.C,SW21*%
X111125000Y-167640000D03*
X100965000Y-167640000D03*
D19*
X106045000Y-167640000D03*
D18*
X108585000Y-162560000D03*
X102235000Y-165100000D03*
%TD*%
D20*
%TO.C,SW20*%
X111125000Y-148590000D03*
X100965000Y-148590000D03*
D19*
X106045000Y-148590000D03*
D18*
X108585000Y-143510000D03*
X102235000Y-146050000D03*
%TD*%
D20*
%TO.C,SW19*%
X111125000Y-129540000D03*
X100965000Y-129540000D03*
D19*
X106045000Y-129540000D03*
D18*
X108585000Y-124460000D03*
X102235000Y-127000000D03*
%TD*%
D20*
%TO.C,SW18*%
X111125000Y-110490000D03*
X100965000Y-110490000D03*
D19*
X106045000Y-110490000D03*
D18*
X108585000Y-105410000D03*
X102235000Y-107950000D03*
%TD*%
D20*
%TO.C,SW17*%
X111125000Y-91440000D03*
X100965000Y-91440000D03*
D19*
X106045000Y-91440000D03*
D18*
X108585000Y-86360000D03*
X102235000Y-88900000D03*
%TD*%
%TO.C,SW16*%
X102235000Y-60325000D03*
X108585000Y-57785000D03*
D19*
X106045000Y-62865000D03*
D20*
X100965000Y-62865000D03*
X111125000Y-62865000D03*
%TD*%
%TO.C,SW15*%
X92075000Y-167640000D03*
X81915000Y-167640000D03*
D19*
X86995000Y-167640000D03*
D18*
X89535000Y-162560000D03*
X83185000Y-165100000D03*
%TD*%
D20*
%TO.C,SW14*%
X92075000Y-148590000D03*
X81915000Y-148590000D03*
D19*
X86995000Y-148590000D03*
D18*
X89535000Y-143510000D03*
X83185000Y-146050000D03*
%TD*%
D20*
%TO.C,SW13*%
X92075000Y-129540000D03*
X81915000Y-129540000D03*
D19*
X86995000Y-129540000D03*
D18*
X89535000Y-124460000D03*
X83185000Y-127000000D03*
%TD*%
D20*
%TO.C,SW12*%
X92075000Y-110490000D03*
X81915000Y-110490000D03*
D19*
X86995000Y-110490000D03*
D18*
X89535000Y-105410000D03*
X83185000Y-107950000D03*
%TD*%
D20*
%TO.C,SW11*%
X92075000Y-91440000D03*
X81915000Y-91440000D03*
D19*
X86995000Y-91440000D03*
D18*
X89535000Y-86360000D03*
X83185000Y-88900000D03*
%TD*%
D20*
%TO.C,SW9*%
X73025000Y-167640000D03*
X62865000Y-167640000D03*
D19*
X67945000Y-167640000D03*
D18*
X70485000Y-162560000D03*
X64135000Y-165100000D03*
%TD*%
D20*
%TO.C,SW8*%
X73025000Y-91440000D03*
X62865000Y-91440000D03*
D19*
X67945000Y-91440000D03*
D18*
X70485000Y-86360000D03*
X64135000Y-88900000D03*
%TD*%
D20*
%TO.C,SW6*%
X53975000Y-167640000D03*
X43815000Y-167640000D03*
D19*
X48895000Y-167640000D03*
D18*
X51435000Y-162560000D03*
X45085000Y-165100000D03*
%TD*%
D23*
%TO.C,SW5*%
X46482000Y-156845000D03*
X70358000Y-156845000D03*
D24*
X46482000Y-141605000D03*
X70358000Y-141605000D03*
D20*
X63500000Y-148590000D03*
X53340000Y-148590000D03*
D18*
X54610000Y-146050000D03*
D23*
X58420000Y-148590000D03*
D18*
X60960000Y-143510000D03*
%TD*%
D23*
%TO.C,SW3*%
X46482000Y-118745000D03*
X70358000Y-118745000D03*
D24*
X46482000Y-103505000D03*
X70358000Y-103505000D03*
D20*
X63500000Y-110490000D03*
X53340000Y-110490000D03*
D18*
X54610000Y-107950000D03*
D23*
X58420000Y-110490000D03*
D18*
X60960000Y-105410000D03*
%TD*%
D20*
%TO.C,SW2*%
X53975000Y-91440000D03*
X43815000Y-91440000D03*
D19*
X48895000Y-91440000D03*
D18*
X51435000Y-86360000D03*
X45085000Y-88900000D03*
%TD*%
%TO.C,SW1*%
X45085000Y-60325000D03*
X51435000Y-57785000D03*
D19*
X48895000Y-62865000D03*
D20*
X43815000Y-62865000D03*
X53975000Y-62865000D03*
%TD*%
M02*
