M48
; DRILL file {KiCad (5.1.10)-1} date 08/17/21 12:27:02
; FORMAT={-:-/ absolute / inch / decimal}
; #@! TF.CreationDate,2021-08-17T12:27:02-04:00
; #@! TF.GenerationSoftware,Kicad,Pcbnew,(5.1.10)-1
; #@! TF.FileFunction,Plated,1,2,PTH
FMAT,2
INCH
T1C0.0157
T2C0.0394
T3C0.0430
T4C0.0433
T5C0.0591
%
G90
G05
T1
X1.575Y-3.325
X2.1Y-1.675
X2.1Y-1.775
X2.2Y-1.675
X2.2Y-1.775
X2.35Y-2.825
X2.3961Y-3.6461
X2.3961Y-6.2289
X2.4Y-2.4
X2.4Y-2.825
X2.5Y-2.725
X2.75Y-2.525
X2.75Y-5.025
X2.95Y-2.015
X2.95Y-2.25
X2.95Y-3.65
X2.95Y-4.075
X2.97Y-1.41
X3.01Y-1.41
X3.05Y-1.41
X3.05Y-5.875
X3.09Y-1.41
X3.13Y-1.41
X3.15Y-2.0
X3.15Y-2.2
X3.15Y-2.525
X3.15Y-2.95
X3.15Y-3.65
X3.15Y-4.075
X3.15Y-4.4
X3.15Y-4.825
X3.15Y-5.15
X3.15Y-5.575
X3.15Y-5.9
X3.15Y-6.325
X3.17Y-1.41
X3.21Y-1.41
X3.275Y-1.075
X3.425Y-1.65
X3.8961Y-2.0039
X3.8961Y-2.2289
X3.9Y-2.525
X3.9Y-2.95
X3.9Y-3.65
X3.9Y-4.075
X3.9Y-4.4
X3.9Y-4.825
X3.9Y-5.15
X3.9Y-5.575
X3.9Y-5.9
X3.9Y-6.325
X4.125Y-1.65
X4.6461Y-2.0039
X4.6461Y-2.2064
X4.65Y-2.525
X4.65Y-2.95
X4.65Y-3.65
X4.65Y-4.075
X4.65Y-4.4
X4.65Y-4.825
X4.65Y-5.15
X4.65Y-5.575
X4.65Y-5.9
X4.65Y-6.325
X5.4Y-2.0
X5.4Y-2.2
X5.4Y-2.525
X5.4Y-2.95
X5.4Y-3.65
X5.4Y-4.075
X5.4Y-4.4
X5.4Y-4.825
X5.4Y-5.15
X5.4Y-5.575
X5.55Y-1.7
X5.85Y-1.825
X5.936Y-1.545
X6.05Y-4.425
X6.15Y-2.0
X6.15Y-2.2
X6.15Y-2.525
X6.15Y-2.95
X6.15Y-3.65
X6.15Y-4.075
X6.15Y-4.4
X6.15Y-4.825
X6.15Y-5.15
X6.15Y-5.575
X6.15Y-5.9
X6.15Y-6.325
X6.9Y-2.0
X6.9Y-2.2
X6.9Y-2.525
X6.9Y-2.95
X6.9Y-3.65
X7.0Y-4.45
X7.075Y-4.975
X7.075Y-5.975
T2
X3.325Y-1.25
X3.325Y-1.35
X3.325Y-1.45
X3.325Y-1.55
X4.8Y-1.35
X4.8Y-1.4484
X4.8Y-1.5469
X5.3709Y-1.35
X5.3709Y-1.5469
X5.55Y-1.35
X5.55Y-1.4484
X5.55Y-1.5469
X6.1209Y-1.35
X6.1209Y-1.5469
X6.3Y-1.35
X6.3Y-1.4484
X6.3Y-1.5469
X6.8709Y-1.35
X6.8709Y-1.5469
T3
X1.7Y-1.25
X1.7Y-1.85
X1.8Y-1.25
X1.8Y-1.85
X1.9Y-1.25
X1.9Y-1.85
X2.0Y-1.25
X2.0Y-1.85
X2.1Y-1.25
X2.1Y-1.85
X2.2Y-1.25
X2.2Y-1.85
X2.3Y-1.25
X2.3Y-1.85
X2.4Y-1.25
X2.4Y-1.85
X2.5Y-1.25
X2.5Y-1.85
X2.6Y-1.25
X2.6Y-1.85
X2.7Y-1.25
X2.7Y-1.85
X2.8Y-1.25
X2.8Y-1.35
X2.8Y-1.45
X2.8Y-1.55
X2.8Y-1.65
X2.8Y-1.75
X2.8Y-1.841
T4
X7.15Y-1.475
X7.15Y-1.6522
X7.4059Y-1.475
X7.4059Y-1.6522
T5
G00X5.0697Y-1.228
M15
G01X5.1209Y-1.228
M16
G05
G00X5.0697Y-1.6689
M15
G01X5.1209Y-1.6689
M16
G05
G00X5.8197Y-1.228
M15
G01X5.8709Y-1.228
M16
G05
G00X5.8197Y-1.6689
M15
G01X5.8709Y-1.6689
M16
G05
G00X6.5697Y-1.228
M15
G01X6.6209Y-1.228
M16
G05
G00X6.5697Y-1.6689
M15
G01X6.6209Y-1.6689
M16
G05
T0
M30
