%TF.GenerationSoftware,KiCad,Pcbnew,(5.1.10)-1*%
%TF.CreationDate,2021-08-17T12:27:07-04:00*%
%TF.ProjectId,macropad,6d616372-6f70-4616-942e-6b696361645f,rev?*%
%TF.SameCoordinates,Original*%
%TF.FileFunction,Paste,Bot*%
%TF.FilePolarity,Positive*%
%FSLAX46Y46*%
G04 Gerber Fmt 4.6, Leading zero omitted, Abs format (unit mm)*
G04 Created by KiCad (PCBNEW (5.1.10)-1) date 2021-08-17 12:27:07*
%MOMM*%
%LPD*%
G01*
G04 APERTURE LIST*
%ADD10R,2.550000X2.500000*%
%ADD11R,1.200000X0.900000*%
G04 APERTURE END LIST*
D10*
%TO.C,SW10*%
X79910000Y-60325000D03*
X92837000Y-57785000D03*
%TD*%
D11*
%TO.C,D44*%
X167640000Y-34545000D03*
X167640000Y-37845000D03*
%TD*%
%TO.C,D43*%
X129540000Y-34545000D03*
X129540000Y-37845000D03*
%TD*%
%TO.C,D7*%
X148590000Y-34545000D03*
X148590000Y-37845000D03*
%TD*%
D10*
%TO.C,SW4*%
X64292251Y-124506310D03*
X51365251Y-127046310D03*
%TD*%
D11*
%TO.C,D6*%
X57150000Y-167895000D03*
X57150000Y-171195000D03*
%TD*%
D10*
%TO.C,SW42*%
X188026021Y-152996194D03*
X175099021Y-155536194D03*
%TD*%
%TO.C,SW41*%
X188050924Y-114924880D03*
X175123924Y-117464880D03*
%TD*%
%TO.C,SW40*%
X188087000Y-86360000D03*
X175160000Y-88900000D03*
%TD*%
%TO.C,SW39*%
X175160000Y-60325000D03*
X188087000Y-57785000D03*
%TD*%
%TO.C,SW38*%
X169037000Y-162560000D03*
X156110000Y-165100000D03*
%TD*%
%TO.C,SW37*%
X169037000Y-143510000D03*
X156110000Y-146050000D03*
%TD*%
%TO.C,SW36*%
X169037000Y-124460000D03*
X156110000Y-127000000D03*
%TD*%
%TO.C,SW35*%
X169037000Y-105410000D03*
X156110000Y-107950000D03*
%TD*%
%TO.C,SW34*%
X169037000Y-86360000D03*
X156110000Y-88900000D03*
%TD*%
%TO.C,SW33*%
X156110000Y-60325000D03*
X169037000Y-57785000D03*
%TD*%
%TO.C,SW32*%
X149987000Y-143510000D03*
X137060000Y-146050000D03*
%TD*%
%TO.C,SW31*%
X149987000Y-124460000D03*
X137060000Y-127000000D03*
%TD*%
%TO.C,SW30*%
X149987000Y-105410000D03*
X137060000Y-107950000D03*
%TD*%
%TO.C,SW29*%
X149987000Y-86360000D03*
X137060000Y-88900000D03*
%TD*%
%TO.C,SW28*%
X137060000Y-60325000D03*
X149987000Y-57785000D03*
%TD*%
%TO.C,SW27*%
X140462000Y-162560000D03*
X127535000Y-165100000D03*
%TD*%
%TO.C,SW26*%
X130937000Y-143510000D03*
X118010000Y-146050000D03*
%TD*%
%TO.C,SW25*%
X130937000Y-124460000D03*
X118010000Y-127000000D03*
%TD*%
%TO.C,SW24*%
X130937000Y-105410000D03*
X118010000Y-107950000D03*
%TD*%
%TO.C,SW23*%
X130937000Y-86360000D03*
X118010000Y-88900000D03*
%TD*%
%TO.C,SW22*%
X118010000Y-60325000D03*
X130937000Y-57785000D03*
%TD*%
%TO.C,SW21*%
X111887000Y-162560000D03*
X98960000Y-165100000D03*
%TD*%
%TO.C,SW20*%
X111887000Y-143510000D03*
X98960000Y-146050000D03*
%TD*%
%TO.C,SW19*%
X111887000Y-124460000D03*
X98960000Y-127000000D03*
%TD*%
%TO.C,SW18*%
X111887000Y-105410000D03*
X98960000Y-107950000D03*
%TD*%
%TO.C,SW17*%
X111887000Y-86360000D03*
X98960000Y-88900000D03*
%TD*%
%TO.C,SW16*%
X98960000Y-60325000D03*
X111887000Y-57785000D03*
%TD*%
%TO.C,SW15*%
X92837000Y-162560000D03*
X79910000Y-165100000D03*
%TD*%
%TO.C,SW14*%
X92837000Y-143510000D03*
X79910000Y-146050000D03*
%TD*%
%TO.C,SW13*%
X92837000Y-124460000D03*
X79910000Y-127000000D03*
%TD*%
%TO.C,SW12*%
X92837000Y-105410000D03*
X79910000Y-107950000D03*
%TD*%
%TO.C,SW11*%
X92837000Y-86360000D03*
X79910000Y-88900000D03*
%TD*%
%TO.C,SW9*%
X73787000Y-162560000D03*
X60860000Y-165100000D03*
%TD*%
%TO.C,SW8*%
X73787000Y-86360000D03*
X60860000Y-88900000D03*
%TD*%
%TO.C,SW6*%
X54737000Y-162560000D03*
X41810000Y-165100000D03*
%TD*%
%TO.C,SW5*%
X64262000Y-143510000D03*
X51335000Y-146050000D03*
%TD*%
%TO.C,SW3*%
X64262000Y-105410000D03*
X51335000Y-107950000D03*
%TD*%
%TO.C,SW2*%
X54737000Y-86360000D03*
X41810000Y-88900000D03*
%TD*%
%TO.C,SW1*%
X41810000Y-60325000D03*
X54737000Y-57785000D03*
%TD*%
D11*
%TO.C,D42*%
X191135000Y-152780000D03*
X191135000Y-149480000D03*
%TD*%
%TO.C,D41*%
X191135000Y-114680000D03*
X191135000Y-111380000D03*
%TD*%
%TO.C,D40*%
X190500000Y-91695000D03*
X190500000Y-94995000D03*
%TD*%
%TO.C,D39*%
X190500000Y-66420000D03*
X190500000Y-63120000D03*
%TD*%
%TO.C,D38*%
X172085000Y-162180000D03*
X172085000Y-165480000D03*
%TD*%
%TO.C,D37*%
X171450000Y-148845000D03*
X171450000Y-152145000D03*
%TD*%
%TO.C,D36*%
X172720000Y-124715000D03*
X172720000Y-128015000D03*
%TD*%
%TO.C,D35*%
X171450000Y-112015000D03*
X171450000Y-115315000D03*
%TD*%
%TO.C,D34*%
X171450000Y-91695000D03*
X171450000Y-94995000D03*
%TD*%
%TO.C,D33*%
X171450000Y-66420000D03*
X171450000Y-63120000D03*
%TD*%
%TO.C,D32*%
X152400000Y-148845000D03*
X152400000Y-152145000D03*
%TD*%
%TO.C,D31*%
X152400000Y-129795000D03*
X152400000Y-133095000D03*
%TD*%
%TO.C,D30*%
X152400000Y-110745000D03*
X152400000Y-114045000D03*
%TD*%
%TO.C,D29*%
X152400000Y-91695000D03*
X152400000Y-94995000D03*
%TD*%
%TO.C,D28*%
X152400000Y-66420000D03*
X152400000Y-63120000D03*
%TD*%
%TO.C,D27*%
X144780000Y-167895000D03*
X144780000Y-171195000D03*
%TD*%
%TO.C,D26*%
X133350000Y-148845000D03*
X133350000Y-152145000D03*
%TD*%
%TO.C,D25*%
X133350000Y-129795000D03*
X133350000Y-133095000D03*
%TD*%
%TO.C,D24*%
X133350000Y-110745000D03*
X133350000Y-114045000D03*
%TD*%
%TO.C,D23*%
X133350000Y-91695000D03*
X133350000Y-94995000D03*
%TD*%
%TO.C,D22*%
X133350000Y-66420000D03*
X133350000Y-63120000D03*
%TD*%
%TO.C,D21*%
X114300000Y-167895000D03*
X114300000Y-171195000D03*
%TD*%
%TO.C,D20*%
X114300000Y-148845000D03*
X114300000Y-152145000D03*
%TD*%
%TO.C,D19*%
X114300000Y-129795000D03*
X114300000Y-133095000D03*
%TD*%
%TO.C,D18*%
X114300000Y-110745000D03*
X114300000Y-114045000D03*
%TD*%
%TO.C,D17*%
X114300000Y-91695000D03*
X114300000Y-94995000D03*
%TD*%
%TO.C,D16*%
X114300000Y-66420000D03*
X114300000Y-63120000D03*
%TD*%
%TO.C,D15*%
X95250000Y-167895000D03*
X95250000Y-171195000D03*
%TD*%
%TO.C,D14*%
X95250000Y-148845000D03*
X95250000Y-152145000D03*
%TD*%
%TO.C,D13*%
X95250000Y-129795000D03*
X95250000Y-133095000D03*
%TD*%
%TO.C,D12*%
X95885000Y-110745000D03*
X95885000Y-114045000D03*
%TD*%
%TO.C,D11*%
X95250000Y-91695000D03*
X95250000Y-94995000D03*
%TD*%
%TO.C,D10*%
X95250000Y-66420000D03*
X95250000Y-63120000D03*
%TD*%
%TO.C,D9*%
X76200000Y-167895000D03*
X76200000Y-171195000D03*
%TD*%
%TO.C,D8*%
X76200000Y-91695000D03*
X76200000Y-94995000D03*
%TD*%
%TO.C,D5*%
X74295000Y-148845000D03*
X74295000Y-152145000D03*
%TD*%
%TO.C,D4*%
X74295000Y-129795000D03*
X74295000Y-133095000D03*
%TD*%
%TO.C,D3*%
X73660000Y-110745000D03*
X73660000Y-114045000D03*
%TD*%
%TO.C,D2*%
X57150000Y-91695000D03*
X57150000Y-94995000D03*
%TD*%
%TO.C,D1*%
X57150000Y-66420000D03*
X57150000Y-63120000D03*
%TD*%
M02*
